Cafeteria-Black.ufo
<glyph name="exclam" format="1">
  <advance width="203"/>
  <unicode hex="0021"/>
  <outline>
    <contour>
      <point x="173" y="699" type="curve"/>
      <point x="164" y="561"/>
      <point x="167" y="287"/>
      <point x="160" y="184" type="curve"/>
      <point x="106" y="202"/>
      <point x="87" y="205"/>
      <point x="42" y="210" type="curve"/>
      <point x="40" y="320"/>
      <point x="33" y="508"/>
      <point x="21" y="649" type="curve"/>
      <point x="63" y="661"/>
      <point x="98" y="669"/>
    </contour>
    <contour>
      <point x="185" y="66" type="curve" smooth="yes"/>
      <point x="185" y="28"/>
      <point x="157" y="-6"/>
      <point x="107" y="-6" type="curve" smooth="yes"/>
      <point x="63" y="-6"/>
      <point x="23" y="25"/>
      <point x="23" y="67" type="curve" smooth="yes"/>
      <point x="23" y="110"/>
      <point x="58" y="138"/>
      <point x="106" y="138" type="curve" smooth="yes"/>
      <point x="151" y="138"/>
      <point x="185" y="108"/>
    </contour>
  </outline>
</glyph>
<glyph name="quotedbl" format="1">
  <advance width="375"/>
  <unicode hex="0022"/>
  <outline>
    <contour>
      <point x="350" y="687" type="curve"/>
      <point x="347" y="634"/>
      <point x="349" y="599"/>
      <point x="348" y="572" type="curve" smooth="yes"/>
      <point x="347" y="523"/>
      <point x="340" y="445"/>
      <point x="335" y="373" type="curve"/>
      <point x="283" y="388"/>
      <point x="270" y="388"/>
      <point x="236" y="391" type="curve"/>
      <point x="224" y="451"/>
      <point x="216" y="510"/>
      <point x="204" y="545" type="curve"/>
      <point x="209" y="579"/>
      <point x="205" y="616"/>
      <point x="204" y="662" type="curve"/>
      <point x="255" y="667"/>
      <point x="280" y="671"/>
    </contour>
    <contour>
      <point x="167" y="587" type="curve" smooth="yes"/>
      <point x="166" y="530"/>
      <point x="163" y="444"/>
      <point x="152" y="375" type="curve"/>
      <point x="102" y="388"/>
      <point x="86" y="388"/>
      <point x="55" y="391" type="curve"/>
      <point x="44" y="446"/>
      <point x="31" y="515"/>
      <point x="24" y="561" type="curve"/>
      <point x="28" y="589"/>
      <point x="25" y="616"/>
      <point x="24" y="661" type="curve"/>
      <point x="73" y="666"/>
      <point x="101" y="670"/>
      <point x="164" y="687" type="curve"/>
      <point x="170" y="635"/>
      <point x="168" y="616"/>
    </contour>
  </outline>
</glyph>
<glyph name="numbersign" format="1">
  <advance width="518"/>
  <unicode hex="0023"/>
  <outline>
    <contour>
      <point x="514" y="451" type="curve"/>
      <point x="500" y="411"/>
      <point x="490" y="382"/>
      <point x="481" y="348" type="curve"/>
      <point x="444" y="355"/>
      <point x="424" y="357"/>
      <point x="398" y="362" type="curve"/>
      <point x="393" y="334"/>
      <point x="385" y="288"/>
      <point x="382" y="261" type="curve"/>
      <point x="414" y="252"/>
      <point x="443" y="245"/>
      <point x="477" y="240" type="curve"/>
      <point x="460" y="201"/>
      <point x="448" y="169"/>
      <point x="438" y="136" type="curve"/>
      <point x="407" y="144"/>
      <point x="389" y="146"/>
      <point x="365" y="153" type="curve"/>
      <point x="354" y="89"/>
      <point x="345" y="43"/>
      <point x="340" y="-9" type="curve"/>
      <point x="299" y="-5"/>
      <point x="271" y="-2"/>
      <point x="224" y="-2" type="curve"/>
      <point x="239" y="66"/>
      <point x="246" y="116"/>
      <point x="257" y="181" type="curve"/>
      <point x="242" y="183"/>
      <point x="212" y="189"/>
      <point x="197" y="195" type="curve"/>
      <point x="189" y="124"/>
      <point x="182" y="75"/>
      <point x="178" y="24" type="curve"/>
      <point x="138" y="31"/>
      <point x="105" y="33"/>
      <point x="72" y="35" type="curve"/>
      <point x="80" y="91"/>
      <point x="83" y="145"/>
      <point x="90" y="222" type="curve"/>
      <point x="62" y="229"/>
      <point x="40" y="235"/>
      <point x="12" y="243" type="curve"/>
      <point x="18" y="274"/>
      <point x="23" y="303"/>
      <point x="26" y="343" type="curve"/>
      <point x="66" y="332"/>
      <point x="78" y="330"/>
      <point x="98" y="325" type="curve"/>
      <point x="99" y="348"/>
      <point x="104" y="388"/>
      <point x="106" y="409" type="curve"/>
      <point x="81" y="413"/>
      <point x="58" y="417"/>
      <point x="25" y="421" type="curve"/>
      <point x="33" y="454"/>
      <point x="37" y="477"/>
      <point x="40" y="513" type="curve"/>
      <point x="78" y="503"/>
      <point x="91" y="503"/>
      <point x="112" y="502" type="curve"/>
      <point x="118" y="575"/>
      <point x="123" y="631"/>
      <point x="127" y="684" type="curve"/>
      <point x="176" y="676"/>
      <point x="208" y="674"/>
      <point x="253" y="670" type="curve"/>
      <point x="245" y="617"/>
      <point x="239" y="562"/>
      <point x="229" y="486" type="curve"/>
      <point x="247" y="483"/>
      <point x="282" y="479"/>
      <point x="302" y="477" type="curve"/>
      <point x="311" y="532"/>
      <point x="318" y="572"/>
      <point x="325" y="627" type="curve"/>
      <point x="363" y="619"/>
      <point x="398" y="613"/>
      <point x="441" y="613" type="curve"/>
      <point x="429" y="559"/>
      <point x="424" y="521"/>
      <point x="414" y="463" type="curve"/>
      <point x="445" y="459"/>
      <point x="470" y="454"/>
    </contour>
    <contour>
      <point x="291" y="386" type="curve"/>
      <point x="271" y="387"/>
      <point x="236" y="392"/>
      <point x="217" y="395" type="curve"/>
      <point x="212" y="367"/>
      <point x="207" y="322"/>
      <point x="205" y="296" type="curve"/>
      <point x="221" y="290"/>
      <point x="256" y="285"/>
      <point x="275" y="281" type="curve"/>
      <point x="279" y="310"/>
      <point x="286" y="356"/>
    </contour>
  </outline>
</glyph>
<glyph name="dollar" format="1">
  <advance width="331"/>
  <unicode hex="0024"/>
  <outline>
    <contour>
      <point x="318" y="179" type="curve" smooth="yes"/>
      <point x="318" y="106"/>
      <point x="286" y="40"/>
      <point x="220" y="18" type="curve"/>
      <point x="226" y="-85" type="line"/>
      <point x="106" y="-104" type="line"/>
      <point x="100" y="-18" type="line"/>
      <point x="82" y="-19"/>
      <point x="62" y="-22"/>
      <point x="33" y="-26" type="curve"/>
      <point x="38" y="27"/>
      <point x="37" y="47"/>
      <point x="32" y="99" type="curve"/>
      <point x="139" y="99"/>
      <point x="191" y="125"/>
      <point x="191" y="165" type="curve" smooth="yes"/>
      <point x="191" y="217"/>
      <point x="151" y="263"/>
      <point x="112" y="313" type="curve" smooth="yes"/>
      <point x="65" y="372"/>
      <point x="21" y="434"/>
      <point x="21" y="504" type="curve" smooth="yes"/>
      <point x="21" y="562"/>
      <point x="54" y="619"/>
      <point x="119" y="646" type="curve"/>
      <point x="115" y="757" type="line"/>
      <point x="249" y="759" type="line"/>
      <point x="250" y="681" type="line"/>
      <point x="267" y="681"/>
      <point x="288" y="681"/>
      <point x="315" y="680" type="curve"/>
      <point x="311" y="639"/>
      <point x="308" y="610"/>
      <point x="315" y="566" type="curve"/>
      <point x="208" y="564"/>
      <point x="153" y="554"/>
      <point x="153" y="514" type="curve" smooth="yes"/>
      <point x="153" y="470"/>
      <point x="189" y="426"/>
      <point x="225" y="378" type="curve" smooth="yes"/>
      <point x="270" y="316"/>
      <point x="318" y="250"/>
    </contour>
  </outline>
</glyph>
<glyph name="percent" format="1">
  <advance width="735"/>
  <unicode hex="0025"/>
  <outline>
    <contour>
      <point x="724" y="223" type="curve" smooth="yes"/>
      <point x="724" y="62"/>
      <point x="635" y="5"/>
      <point x="568" y="5" type="curve" smooth="yes"/>
      <point x="483" y="5"/>
      <point x="416" y="66"/>
      <point x="416" y="201" type="curve" smooth="yes"/>
      <point x="416" y="301"/>
      <point x="481" y="430"/>
      <point x="579" y="430" type="curve" smooth="yes"/>
      <point x="667" y="430"/>
      <point x="724" y="367"/>
    </contour>
    <contour>
      <point x="504" y="625" type="curve"/>
      <point x="476" y="539"/>
      <point x="336" y="64"/>
      <point x="315" y="-18" type="curve"/>
      <point x="284" y="-4"/>
      <point x="253" y="7"/>
      <point x="220" y="14" type="curve"/>
      <point x="251" y="107"/>
      <point x="345" y="422"/>
      <point x="378" y="554" type="curve"/>
      <point x="363" y="551"/>
      <point x="335" y="541"/>
      <point x="320" y="537" type="curve"/>
      <point x="321" y="527"/>
      <point x="321" y="516"/>
      <point x="321" y="506" type="curve" smooth="yes"/>
      <point x="321" y="346"/>
      <point x="231" y="258"/>
      <point x="165" y="258" type="curve" smooth="yes"/>
      <point x="73" y="258"/>
      <point x="13" y="311"/>
      <point x="13" y="482" type="curve" smooth="yes"/>
      <point x="13" y="561"/>
      <point x="55" y="683"/>
      <point x="171" y="683" type="curve" smooth="yes"/>
      <point x="228" y="683"/>
      <point x="266" y="662"/>
      <point x="290" y="624" type="curve"/>
      <point x="338" y="635"/>
      <point x="393" y="650"/>
      <point x="452" y="668" type="curve"/>
      <point x="468" y="650"/>
      <point x="480" y="640"/>
    </contour>
    <contour>
      <point x="608" y="219" type="curve" smooth="yes"/>
      <point x="608" y="304"/>
      <point x="603" y="331"/>
      <point x="577" y="331" type="curve" smooth="yes"/>
      <point x="539" y="331"/>
      <point x="531" y="264"/>
      <point x="531" y="205" type="curve" smooth="yes"/>
      <point x="531" y="135"/>
      <point x="537" y="103"/>
      <point x="560" y="103" type="curve" smooth="yes"/>
      <point x="600" y="103"/>
      <point x="608" y="138"/>
    </contour>
    <contour>
      <point x="210" y="491" type="curve" smooth="yes"/>
      <point x="210" y="556"/>
      <point x="204" y="580"/>
      <point x="163" y="580" type="curve" smooth="yes"/>
      <point x="136" y="580"/>
      <point x="122" y="550"/>
      <point x="122" y="486" type="curve" smooth="yes"/>
      <point x="122" y="384"/>
      <point x="129" y="358"/>
      <point x="156" y="358" type="curve" smooth="yes"/>
      <point x="194" y="358"/>
      <point x="210" y="423"/>
    </contour>
  </outline>
</glyph>
<glyph name="ampersand" format="1">
  <advance width="503"/>
  <unicode hex="0026"/>
  <outline>
    <contour>
      <point x="494" y="333" type="curve"/>
      <point x="463" y="245"/>
      <point x="434" y="207"/>
      <point x="405" y="160" type="curve"/>
      <point x="422" y="132"/>
      <point x="451" y="96"/>
      <point x="480" y="51" type="curve"/>
      <point x="441" y="27"/>
      <point x="412" y="11"/>
      <point x="379" y="-25" type="curve"/>
      <point x="350" y="30"/>
      <point x="330" y="56"/>
      <point x="319" y="73" type="curve"/>
      <point x="282" y="50"/>
      <point x="230" y="17"/>
      <point x="177" y="17" type="curve" smooth="yes"/>
      <point x="90" y="17"/>
      <point x="9" y="129"/>
      <point x="9" y="228" type="curve" smooth="yes"/>
      <point x="9" y="293"/>
      <point x="74" y="349"/>
      <point x="129" y="385" type="curve"/>
      <point x="111" y="432"/>
      <point x="74" y="481"/>
      <point x="74" y="529" type="curve" smooth="yes"/>
      <point x="74" y="615"/>
      <point x="170" y="688"/>
      <point x="264" y="688" type="curve" smooth="yes"/>
      <point x="339" y="688"/>
      <point x="399" y="618"/>
      <point x="399" y="550" type="curve" smooth="yes"/>
      <point x="399" y="468"/>
      <point x="331" y="406"/>
      <point x="273" y="355" type="curve"/>
      <point x="287" y="329"/>
      <point x="323" y="272"/>
      <point x="339" y="245" type="curve"/>
      <point x="352" y="275"/>
      <point x="371" y="321"/>
      <point x="385" y="368" type="curve"/>
      <point x="431" y="351"/>
      <point x="454" y="342"/>
    </contour>
    <contour>
      <point x="277" y="532" type="curve" smooth="yes"/>
      <point x="277" y="562"/>
      <point x="262" y="584"/>
      <point x="243" y="584" type="curve" smooth="yes"/>
      <point x="216" y="584"/>
      <point x="194" y="556"/>
      <point x="194" y="532" type="curve" smooth="yes"/>
      <point x="194" y="500"/>
      <point x="206" y="474"/>
      <point x="224" y="444" type="curve"/>
      <point x="262" y="477"/>
      <point x="277" y="510"/>
    </contour>
    <contour>
      <point x="260" y="157" type="curve"/>
      <point x="237" y="195"/>
      <point x="201" y="254"/>
      <point x="179" y="291" type="curve"/>
      <point x="163" y="282"/>
      <point x="138" y="258"/>
      <point x="138" y="235" type="curve" smooth="yes"/>
      <point x="138" y="193"/>
      <point x="159" y="134"/>
      <point x="206" y="134" type="curve" smooth="yes"/>
      <point x="219" y="134"/>
      <point x="249" y="148"/>
    </contour>
  </outline>
</glyph>
<glyph name="quotesingle" format="1">
  <advance width="205"/>
  <unicode hex="0027"/>
  <outline>
    <contour>
      <point x="171" y="587" type="curve" smooth="yes"/>
      <point x="169" y="538"/>
      <point x="161" y="443"/>
      <point x="160" y="373" type="curve"/>
      <point x="105" y="385"/>
      <point x="96" y="385"/>
      <point x="59" y="390" type="curve"/>
      <point x="48" y="442"/>
      <point x="37" y="518"/>
      <point x="27" y="559" type="curve"/>
      <point x="27" y="593"/>
      <point x="30" y="612"/>
      <point x="24" y="665" type="curve"/>
      <point x="86" y="665"/>
      <point x="106" y="668"/>
      <point x="170" y="677" type="curve"/>
      <point x="172" y="631"/>
      <point x="172" y="615"/>
    </contour>
  </outline>
</glyph>
<glyph name="parenleft" format="1">
  <advance width="308"/>
  <unicode hex="0028"/>
  <outline>
    <contour>
      <point x="316" y="-102" type="curve"/>
      <point x="283" y="-124"/>
      <point x="253" y="-144"/>
      <point x="219" y="-169" type="curve"/>
      <point x="92" y="18"/>
      <point x="21" y="203"/>
      <point x="21" y="365" type="curve" smooth="yes"/>
      <point x="21" y="519"/>
      <point x="87" y="656"/>
      <point x="234" y="761" type="curve"/>
      <point x="261" y="735"/>
      <point x="276" y="722"/>
      <point x="314" y="698" type="curve"/>
      <point x="204" y="589"/>
      <point x="157" y="482"/>
      <point x="157" y="360" type="curve" smooth="yes"/>
      <point x="157" y="229"/>
      <point x="215" y="80"/>
    </contour>
  </outline>
</glyph>
<glyph name="parenright" format="1">
  <advance width="308"/>
  <unicode hex="0029"/>
  <outline>
    <contour>
      <point x="291" y="351" type="curve" smooth="yes"/>
      <point x="291" y="203"/>
      <point x="235" y="28"/>
      <point x="105" y="-170" type="curve"/>
      <point x="64" y="-141"/>
      <point x="40" y="-131"/>
      <point x="2" y="-114" type="curve"/>
      <point x="95" y="43"/>
      <point x="156" y="196"/>
      <point x="156" y="336" type="curve" smooth="yes"/>
      <point x="156" y="465"/>
      <point x="101" y="585"/>
      <point x="-32" y="689" type="curve"/>
      <point x="21" y="715"/>
      <point x="37" y="726"/>
      <point x="69" y="754" type="curve"/>
      <point x="208" y="661"/>
      <point x="291" y="522"/>
    </contour>
  </outline>
</glyph>
<glyph name="asterisk" format="1">
  <advance width="404"/>
  <unicode hex="002A"/>
  <outline>
    <contour>
      <point x="404" y="499" type="line"/>
      <point x="365" y="390" type="line"/>
      <point x="250" y="449" type="line"/>
      <point x="308" y="335" type="line"/>
      <point x="140" y="347" type="line"/>
      <point x="160" y="440" type="line"/>
      <point x="30" y="381" type="line"/>
      <point x="4" y="487" type="line"/>
      <point x="126" y="497" type="line"/>
      <point x="0" y="565" type="line"/>
      <point x="82" y="663" type="line"/>
      <point x="187" y="551" type="line"/>
      <point x="192" y="638" type="line"/>
      <point x="339" y="632" type="line"/>
      <point x="264" y="524" type="line"/>
    </contour>
  </outline>
</glyph>
<glyph name="plus" format="1">
  <advance width="428"/>
  <unicode hex="002B"/>
  <outline>
    <contour>
      <point x="418" y="377" type="curve"/>
      <point x="407" y="325"/>
      <point x="409" y="300"/>
      <point x="409" y="249" type="curve"/>
      <point x="368" y="254"/>
      <point x="324" y="255"/>
      <point x="280" y="256" type="curve"/>
      <point x="281" y="218"/>
      <point x="282" y="143"/>
      <point x="285" y="114" type="curve"/>
      <point x="225" y="114"/>
      <point x="194" y="116"/>
      <point x="127" y="107" type="curve"/>
      <point x="137" y="149"/>
      <point x="138" y="222"/>
      <point x="139" y="260" type="curve"/>
      <point x="96" y="258"/>
      <point x="56" y="257"/>
      <point x="20" y="258" type="curve"/>
      <point x="20" y="296"/>
      <point x="17" y="322"/>
      <point x="12" y="373" type="curve"/>
      <point x="59" y="370"/>
      <point x="98" y="370"/>
      <point x="144" y="370" type="curve"/>
      <point x="143" y="406"/>
      <point x="139" y="480"/>
      <point x="137" y="514" type="curve"/>
      <point x="198" y="510"/>
      <point x="229" y="507"/>
      <point x="277" y="507" type="curve"/>
      <point x="277" y="472"/>
      <point x="278" y="405"/>
      <point x="278" y="372" type="curve"/>
      <point x="323" y="372"/>
      <point x="369" y="373"/>
    </contour>
  </outline>
</glyph>
<glyph name="comma" format="1">
  <advance width="194"/>
  <unicode hex="002C"/>
  <outline>
    <contour>
      <point x="174" y="32" type="curve" smooth="yes"/>
      <point x="174" y="-35"/>
      <point x="149" y="-103"/>
      <point x="98" y="-137" type="curve"/>
      <point x="1" y="-101" type="line"/>
      <point x="27" y="-77"/>
      <point x="40" y="-34"/>
      <point x="40" y="11" type="curve" smooth="yes"/>
      <point x="40" y="45"/>
      <point x="30" y="81"/>
      <point x="11" y="109" type="curve"/>
      <point x="79" y="111"/>
      <point x="101" y="115"/>
      <point x="155" y="123" type="curve"/>
      <point x="167" y="95"/>
      <point x="174" y="64"/>
    </contour>
  </outline>
</glyph>
<glyph name="hyphen" format="1">
  <advance width="268"/>
  <unicode hex="002D"/>
  <unicode hex="2010"/>
  <unicode hex="2011"/>
  <outline>
    <contour>
      <point x="252" y="312" type="curve"/>
      <point x="247" y="275"/>
      <point x="246" y="224"/>
      <point x="248" y="193" type="curve"/>
      <point x="192" y="197"/>
      <point x="89" y="198"/>
      <point x="19" y="199" type="curve"/>
      <point x="19" y="225"/>
      <point x="16" y="277"/>
      <point x="11" y="311" type="curve"/>
      <point x="83" y="308"/>
      <point x="182" y="307"/>
    </contour>
  </outline>
</glyph>
<glyph name="period" format="1">
  <advance width="194"/>
  <unicode hex="002E"/>
  <outline>
    <contour>
      <point x="178" y="64" type="curve" smooth="yes"/>
      <point x="178" y="17"/>
      <point x="147" y="-7"/>
      <point x="108" y="-7" type="curve" smooth="yes"/>
      <point x="52" y="-7"/>
      <point x="16" y="16"/>
      <point x="16" y="64" type="curve" smooth="yes"/>
      <point x="16" y="102"/>
      <point x="47" y="135"/>
      <point x="108" y="135" type="curve" smooth="yes"/>
      <point x="153" y="135"/>
      <point x="178" y="118"/>
    </contour>
  </outline>
</glyph>
<glyph name="slash" format="1">
  <advance width="355"/>
  <unicode hex="002F"/>
  <outline>
    <contour>
      <point x="356" y="645" type="curve"/>
      <point x="287" y="472"/>
      <point x="186" y="178"/>
      <point x="124" y="-14" type="curve"/>
      <point x="71" y="4"/>
      <point x="52" y="10"/>
      <point x="-1" y="15" type="curve"/>
      <point x="68" y="202"/>
      <point x="178" y="510"/>
      <point x="225" y="675" type="curve"/>
      <point x="277" y="656"/>
      <point x="296" y="651"/>
    </contour>
  </outline>
</glyph>
<glyph name="zero" format="1">
  <advance width="456"/>
  <unicode hex="0030"/>
  <outline>
    <contour>
      <point x="436" y="360" type="curve" smooth="yes"/>
      <point x="436" y="51"/>
      <point x="303" y="-10"/>
      <point x="226" y="-10" type="curve" smooth="yes"/>
      <point x="120" y="-10"/>
      <point x="20" y="79"/>
      <point x="20" y="370" type="curve" smooth="yes"/>
      <point x="20" y="563"/>
      <point x="97" y="683"/>
      <point x="233" y="683" type="curve" smooth="yes"/>
      <point x="382" y="683"/>
      <point x="436" y="599"/>
    </contour>
    <contour>
      <point x="295" y="354" type="curve" smooth="yes"/>
      <point x="295" y="522"/>
      <point x="270" y="565"/>
      <point x="224" y="565" type="curve" smooth="yes"/>
      <point x="183" y="565"/>
      <point x="161" y="496"/>
      <point x="161" y="376" type="curve" smooth="yes"/>
      <point x="161" y="210"/>
      <point x="180" y="112"/>
      <point x="232" y="112" type="curve" smooth="yes"/>
      <point x="278" y="112"/>
      <point x="295" y="223"/>
    </contour>
  </outline>
</glyph>
<glyph name="one" format="1">
  <advance width="274"/>
  <unicode hex="0031"/>
  <outline>
    <contour>
      <point x="255" y="672" type="curve"/>
      <point x="251" y="637"/>
      <point x="242" y="546"/>
      <point x="242" y="481" type="curve" smooth="yes"/>
      <point x="242" y="352"/>
      <point x="239" y="144"/>
      <point x="245" y="0" type="curve"/>
      <point x="187" y="7"/>
      <point x="143" y="7"/>
      <point x="89" y="11" type="curve"/>
      <point x="104" y="109"/>
      <point x="105" y="169"/>
      <point x="107" y="252" type="curve" smooth="yes"/>
      <point x="110" y="368"/>
      <point x="109" y="507"/>
      <point x="107" y="568" type="curve"/>
      <point x="85" y="566"/>
      <point x="58" y="562"/>
      <point x="29" y="556" type="curve"/>
      <point x="27" y="601"/>
      <point x="22" y="633"/>
      <point x="15" y="675" type="curve"/>
      <point x="69" y="677"/>
      <point x="152" y="686"/>
      <point x="180" y="691" type="curve"/>
      <point x="194" y="686"/>
      <point x="219" y="678"/>
    </contour>
  </outline>
</glyph>
<glyph name="two" format="1">
  <advance width="399"/>
  <unicode hex="0032"/>
  <outline>
    <contour>
      <point x="386" y="122" type="curve"/>
      <point x="371" y="69"/>
      <point x="368" y="44"/>
      <point x="361" y="-5" type="curve"/>
      <point x="311" y="0"/>
      <point x="236" y="1"/>
      <point x="184" y="-1" type="curve" smooth="yes"/>
      <point x="137" y="-3"/>
      <point x="81" y="0"/>
      <point x="45" y="-7" type="curve"/>
      <point x="37" y="21"/>
      <point x="31" y="38"/>
      <point x="21" y="61" type="curve"/>
      <point x="167" y="284"/>
      <point x="218" y="407"/>
      <point x="218" y="498" type="curve" smooth="yes"/>
      <point x="218" y="549"/>
      <point x="191" y="569"/>
      <point x="163" y="569" type="curve" smooth="yes"/>
      <point x="132" y="569"/>
      <point x="106" y="560"/>
      <point x="70" y="532" type="curve"/>
      <point x="43" y="577"/>
      <point x="37" y="585"/>
      <point x="-1" y="628" type="curve"/>
      <point x="55" y="665"/>
      <point x="108" y="683"/>
      <point x="175" y="683" type="curve" smooth="yes"/>
      <point x="317" y="683"/>
      <point x="361" y="640"/>
      <point x="361" y="525" type="curve" smooth="yes"/>
      <point x="361" y="425"/>
      <point x="309" y="305"/>
      <point x="210" y="134" type="curve"/>
      <point x="204" y="121" type="line"/>
      <point x="228" y="119"/>
      <point x="303" y="120"/>
    </contour>
  </outline>
</glyph>
<glyph name="three" format="1">
  <advance width="380"/>
  <unicode hex="0033"/>
  <outline>
    <contour>
      <point x="365" y="292" type="curve" smooth="yes"/>
      <point x="365" y="136"/>
      <point x="253" y="-10"/>
      <point x="141" y="-10" type="curve" smooth="yes"/>
      <point x="119" y="-10"/>
      <point x="70" y="0"/>
      <point x="-2" y="20" type="curve"/>
      <point x="14" y="62"/>
      <point x="20" y="86"/>
      <point x="29" y="135" type="curve"/>
      <point x="75" y="114"/>
      <point x="112" y="107"/>
      <point x="134" y="107" type="curve" smooth="yes"/>
      <point x="189" y="107"/>
      <point x="227" y="186"/>
      <point x="227" y="281" type="curve" smooth="yes"/>
      <point x="227" y="325"/>
      <point x="161" y="333"/>
      <point x="96" y="336" type="curve"/>
      <point x="83" y="366"/>
      <point x="79" y="379"/>
      <point x="65" y="400" type="curve"/>
      <point x="118" y="465"/>
      <point x="168" y="524"/>
      <point x="194" y="562" type="curve"/>
      <point x="148" y="559"/>
      <point x="66" y="552"/>
      <point x="32" y="542" type="curve"/>
      <point x="26" y="595"/>
      <point x="20" y="617"/>
      <point x="12" y="662" type="curve"/>
      <point x="62" y="671"/>
      <point x="215" y="679"/>
      <point x="296" y="682" type="curve"/>
      <point x="316" y="665"/>
      <point x="330" y="654"/>
      <point x="360" y="637" type="curve"/>
      <point x="316" y="549"/>
      <point x="274" y="487"/>
      <point x="222" y="421" type="curve"/>
      <point x="301" y="410"/>
      <point x="365" y="368"/>
    </contour>
  </outline>
</glyph>
<glyph name="four" format="1">
  <advance width="422"/>
  <unicode hex="0034"/>
  <outline>
    <contour>
      <point x="411" y="138" type="curve"/>
      <point x="380" y="138"/>
      <point x="368" y="139"/>
      <point x="363" y="139" type="curve"/>
      <point x="361" y="106"/>
      <point x="360" y="60"/>
      <point x="364" y="-11" type="curve"/>
      <point x="308" y="-4"/>
      <point x="267" y="-1"/>
      <point x="216" y="1" type="curve"/>
      <point x="224" y="50"/>
      <point x="228" y="105"/>
      <point x="229" y="140" type="curve"/>
      <point x="39" y="143" type="line"/>
      <point x="23" y="182"/>
      <point x="15" y="194"/>
      <point x="4" y="220" type="curve"/>
      <point x="35" y="277"/>
      <point x="116" y="525"/>
      <point x="179" y="691" type="curve"/>
      <point x="218" y="675"/>
      <point x="234" y="667"/>
      <point x="290" y="662" type="curve"/>
      <point x="240" y="505"/>
      <point x="180" y="335"/>
      <point x="146" y="248" type="curve"/>
      <point x="160" y="248"/>
      <point x="218" y="248"/>
      <point x="231" y="248" type="curve"/>
      <point x="230" y="271"/>
      <point x="233" y="304"/>
      <point x="234" y="316" type="curve" smooth="yes"/>
      <point x="238" y="354"/>
      <point x="241" y="368"/>
      <point x="253" y="435" type="curve"/>
      <point x="253" y="435"/>
      <point x="301" y="438"/>
      <point x="358" y="448" type="curve"/>
      <point x="358" y="417"/>
      <point x="360" y="388"/>
      <point x="360" y="359" type="curve" smooth="yes"/>
      <point x="360" y="338"/>
      <point x="359" y="287"/>
      <point x="358" y="253" type="curve"/>
      <point x="371" y="253"/>
      <point x="388" y="251"/>
      <point x="408" y="249" type="curve"/>
      <point x="408" y="209"/>
      <point x="407" y="190"/>
    </contour>
  </outline>
</glyph>
<glyph name="five" format="1">
  <advance width="367"/>
  <unicode hex="0035"/>
  <outline>
    <contour>
      <point x="343" y="677" type="curve"/>
      <point x="330" y="631"/>
      <point x="326" y="594"/>
      <point x="319" y="552" type="curve"/>
      <point x="261" y="556"/>
      <point x="196" y="562"/>
      <point x="161" y="568" type="curve"/>
      <point x="159" y="536"/>
      <point x="156" y="471"/>
      <point x="152" y="439" type="curve"/>
      <point x="276" y="421"/>
      <point x="341" y="359"/>
      <point x="341" y="245" type="curve" smooth="yes"/>
      <point x="341" y="111"/>
      <point x="256" y="45"/>
      <point x="71" y="-24" type="curve"/>
      <point x="52" y="9"/>
      <point x="32" y="35"/>
      <point x="5" y="70" type="curve"/>
      <point x="133" y="128"/>
      <point x="200" y="166"/>
      <point x="200" y="229" type="curve" smooth="yes"/>
      <point x="200" y="301"/>
      <point x="124" y="349"/>
      <point x="20" y="343" type="curve"/>
      <point x="26" y="430"/>
      <point x="30" y="480"/>
      <point x="33" y="541" type="curve" smooth="yes"/>
      <point x="35" y="587"/>
      <point x="36" y="628"/>
      <point x="36" y="690" type="curve"/>
      <point x="113" y="682"/>
      <point x="251" y="677"/>
    </contour>
  </outline>
</glyph>
<glyph name="six" format="1">
  <advance width="427"/>
  <unicode hex="0036"/>
  <outline>
    <contour>
      <point x="414" y="232" type="curve" smooth="yes"/>
      <point x="414" y="90"/>
      <point x="292" y="-10"/>
      <point x="204" y="-10" type="curve" smooth="yes"/>
      <point x="105" y="-10"/>
      <point x="17" y="66"/>
      <point x="17" y="306" type="curve" smooth="yes"/>
      <point x="17" y="424"/>
      <point x="120" y="583"/>
      <point x="244" y="690" type="curve"/>
      <point x="279" y="660"/>
      <point x="292" y="648"/>
      <point x="351" y="616" type="curve"/>
      <point x="260" y="541"/>
      <point x="192" y="463"/>
      <point x="166" y="400" type="curve"/>
      <point x="191" y="413"/>
      <point x="241" y="426"/>
      <point x="264" y="426" type="curve" smooth="yes"/>
      <point x="362" y="426"/>
      <point x="414" y="371"/>
    </contour>
    <contour>
      <point x="282" y="234" type="curve" smooth="yes"/>
      <point x="282" y="290"/>
      <point x="265" y="311"/>
      <point x="244" y="311" type="curve" smooth="yes"/>
      <point x="219" y="311"/>
      <point x="175" y="300"/>
      <point x="148" y="282" type="curve"/>
      <point x="151" y="156"/>
      <point x="175" y="110"/>
      <point x="219" y="110" type="curve" smooth="yes"/>
      <point x="242" y="110"/>
      <point x="282" y="151"/>
    </contour>
  </outline>
</glyph>
<glyph name="seven" format="1">
  <advance width="370"/>
  <unicode hex="0037"/>
  <outline>
    <contour>
      <point x="366" y="668" type="curve"/>
      <point x="320" y="543"/>
      <point x="206" y="112"/>
      <point x="191" y="-14" type="curve"/>
      <point x="138" y="2"/>
      <point x="102" y="8"/>
      <point x="57" y="12" type="curve"/>
      <point x="70" y="115"/>
      <point x="163" y="444"/>
      <point x="199" y="559" type="curve"/>
      <point x="150" y="561"/>
      <point x="68" y="567"/>
      <point x="14" y="565" type="curve"/>
      <point x="12" y="615"/>
      <point x="11" y="634"/>
      <point x="4" y="681" type="curve"/>
      <point x="93" y="674"/>
      <point x="250" y="666"/>
    </contour>
  </outline>
</glyph>
<glyph name="eight" format="1">
  <advance width="433"/>
  <unicode hex="0038"/>
  <outline>
    <contour>
      <point x="413" y="244" type="curve" smooth="yes"/>
      <point x="413" y="114"/>
      <point x="307" y="-10"/>
      <point x="207" y="-10" type="curve" smooth="yes"/>
      <point x="109" y="-10"/>
      <point x="20" y="80"/>
      <point x="20" y="212" type="curve" smooth="yes"/>
      <point x="20" y="266"/>
      <point x="51" y="323"/>
      <point x="93" y="359" type="curve"/>
      <point x="54" y="391"/>
      <point x="24" y="437"/>
      <point x="24" y="495" type="curve" smooth="yes"/>
      <point x="24" y="652"/>
      <point x="165" y="683"/>
      <point x="216" y="683" type="curve" smooth="yes"/>
      <point x="305" y="683"/>
      <point x="407" y="637"/>
      <point x="407" y="492" type="curve" smooth="yes"/>
      <point x="407" y="442"/>
      <point x="382" y="391"/>
      <point x="350" y="353" type="curve"/>
      <point x="389" y="325"/>
      <point x="413" y="290"/>
    </contour>
    <contour>
      <point x="274" y="476" type="curve" smooth="yes"/>
      <point x="274" y="531"/>
      <point x="254" y="573"/>
      <point x="210" y="573" type="curve" smooth="yes"/>
      <point x="175" y="573"/>
      <point x="146" y="548"/>
      <point x="146" y="499" type="curve" smooth="yes"/>
      <point x="146" y="451"/>
      <point x="202" y="426"/>
      <point x="250" y="406" type="curve"/>
      <point x="264" y="425"/>
      <point x="274" y="458"/>
    </contour>
    <contour>
      <point x="285" y="232" type="curve" smooth="yes"/>
      <point x="285" y="255"/>
      <point x="224" y="285"/>
      <point x="183" y="301" type="curve"/>
      <point x="162" y="282"/>
      <point x="145" y="255"/>
      <point x="145" y="224" type="curve" smooth="yes"/>
      <point x="145" y="135"/>
      <point x="178" y="108"/>
      <point x="212" y="108" type="curve" smooth="yes"/>
      <point x="245" y="108"/>
      <point x="285" y="153"/>
    </contour>
  </outline>
</glyph>
<glyph name="nine" format="1">
  <advance width="395"/>
  <unicode hex="0039"/>
  <outline>
    <contour>
      <point x="384" y="453" type="curve" smooth="yes"/>
      <point x="384" y="219"/>
      <point x="273" y="86"/>
      <point x="189" y="-25" type="curve"/>
      <point x="141" y="-11"/>
      <point x="119" y="8"/>
      <point x="65" y="37" type="curve"/>
      <point x="134" y="111"/>
      <point x="171" y="164"/>
      <point x="200" y="230" type="curve"/>
      <point x="59" y="287"/>
      <point x="7" y="379"/>
      <point x="7" y="469" type="curve" smooth="yes"/>
      <point x="7" y="605"/>
      <point x="112" y="683"/>
      <point x="205" y="683" type="curve" smooth="yes"/>
      <point x="310" y="683"/>
      <point x="384" y="606"/>
    </contour>
    <contour>
      <point x="249" y="446" type="curve" smooth="yes"/>
      <point x="249" y="509"/>
      <point x="233" y="566"/>
      <point x="197" y="566" type="curve" smooth="yes"/>
      <point x="157" y="566"/>
      <point x="140" y="531"/>
      <point x="140" y="466" type="curve" smooth="yes"/>
      <point x="140" y="412"/>
      <point x="165" y="377"/>
      <point x="234" y="342" type="curve"/>
      <point x="244" y="365"/>
      <point x="249" y="414"/>
    </contour>
  </outline>
</glyph>
<glyph name="colon" format="1">
  <advance width="194"/>
  <unicode hex="003A"/>
  <outline>
    <contour>
      <point x="176" y="389" type="curve" smooth="yes"/>
      <point x="176" y="351"/>
      <point x="148" y="317"/>
      <point x="98" y="317" type="curve" smooth="yes"/>
      <point x="52" y="317"/>
      <point x="14" y="348"/>
      <point x="14" y="389" type="curve" smooth="yes"/>
      <point x="14" y="432"/>
      <point x="49" y="459"/>
      <point x="97" y="459" type="curve" smooth="yes"/>
      <point x="142" y="459"/>
      <point x="176" y="429"/>
    </contour>
    <contour>
      <point x="176" y="65" type="curve" smooth="yes"/>
      <point x="176" y="28"/>
      <point x="148" y="-6"/>
      <point x="98" y="-6" type="curve" smooth="yes"/>
      <point x="52" y="-6"/>
      <point x="14" y="24"/>
      <point x="14" y="66" type="curve" smooth="yes"/>
      <point x="14" y="108"/>
      <point x="49" y="136"/>
      <point x="97" y="136" type="curve" smooth="yes"/>
      <point x="142" y="136"/>
      <point x="176" y="106"/>
    </contour>
  </outline>
</glyph>
<glyph name="semicolon" format="1">
  <advance width="194"/>
  <unicode hex="003B"/>
  <outline>
    <contour>
      <point x="180" y="388" type="curve" smooth="yes"/>
      <point x="180" y="349"/>
      <point x="152" y="315"/>
      <point x="102" y="315" type="curve" smooth="yes"/>
      <point x="56" y="315"/>
      <point x="18" y="346"/>
      <point x="18" y="388" type="curve" smooth="yes"/>
      <point x="18" y="432"/>
      <point x="53" y="459"/>
      <point x="101" y="459" type="curve" smooth="yes"/>
      <point x="146" y="459"/>
      <point x="180" y="428"/>
    </contour>
    <contour>
      <point x="174" y="32" type="curve" smooth="yes"/>
      <point x="174" y="-35"/>
      <point x="149" y="-103"/>
      <point x="98" y="-137" type="curve"/>
      <point x="1" y="-101" type="line"/>
      <point x="27" y="-77"/>
      <point x="40" y="-34"/>
      <point x="40" y="11" type="curve" smooth="yes"/>
      <point x="40" y="45"/>
      <point x="30" y="81"/>
      <point x="11" y="109" type="curve"/>
      <point x="79" y="111"/>
      <point x="101" y="115"/>
      <point x="155" y="123" type="curve"/>
      <point x="167" y="95"/>
      <point x="174" y="64"/>
    </contour>
  </outline>
</glyph>
<glyph name="less" format="1">
  <advance width="298"/>
  <unicode hex="003C"/>
  <outline>
    <contour>
      <point x="294" y="150" type="curve"/>
      <point x="249" y="129"/>
      <point x="225" y="112"/>
      <point x="187" y="83" type="curve"/>
      <point x="146" y="133"/>
      <point x="35" y="256"/>
      <point x="7" y="280" type="curve"/>
      <point x="7" y="349" type="line"/>
      <point x="47" y="392"/>
      <point x="132" y="499"/>
      <point x="159" y="546" type="curve"/>
      <point x="200" y="514"/>
      <point x="229" y="501"/>
      <point x="273" y="482" type="curve"/>
      <point x="238" y="440"/>
      <point x="176" y="355"/>
      <point x="149" y="314" type="curve"/>
      <point x="181" y="276"/>
      <point x="256" y="188"/>
    </contour>
  </outline>
</glyph>
<glyph name="equal" format="1">
  <advance width="362"/>
  <unicode hex="003D"/>
  <outline>
    <contour>
      <point x="351" y="460" type="curve"/>
      <point x="346" y="412"/>
      <point x="343" y="388"/>
      <point x="343" y="351" type="curve"/>
      <point x="272" y="350"/>
      <point x="81" y="349"/>
      <point x="24" y="343" type="curve"/>
      <point x="24" y="391"/>
      <point x="25" y="420"/>
      <point x="18" y="465" type="curve"/>
      <point x="88" y="457"/>
      <point x="279" y="455"/>
    </contour>
    <contour>
      <point x="346" y="283" type="curve"/>
      <point x="339" y="240"/>
      <point x="341" y="209"/>
      <point x="344" y="164" type="curve"/>
      <point x="287" y="169"/>
      <point x="96" y="170"/>
      <point x="25" y="172" type="curve"/>
      <point x="25" y="208"/>
      <point x="22" y="232"/>
      <point x="17" y="280" type="curve"/>
      <point x="89" y="276"/>
      <point x="277" y="277"/>
    </contour>
  </outline>
</glyph>
<glyph name="greater" format="1">
  <advance width="298"/>
  <unicode hex="003E"/>
  <outline>
    <contour>
      <point x="287" y="282" type="line"/>
      <point x="247" y="240"/>
      <point x="162" y="132"/>
      <point x="136" y="86" type="curve"/>
      <point x="94" y="117"/>
      <point x="65" y="130"/>
      <point x="22" y="150" type="curve"/>
      <point x="56" y="191"/>
      <point x="118" y="276"/>
      <point x="145" y="317" type="curve"/>
      <point x="113" y="356"/>
      <point x="35" y="447"/>
      <point x="-1" y="482" type="curve"/>
      <point x="45" y="503"/>
      <point x="69" y="519"/>
      <point x="108" y="549" type="curve"/>
      <point x="148" y="498"/>
      <point x="259" y="376"/>
      <point x="287" y="352" type="curve"/>
    </contour>
  </outline>
</glyph>
<glyph name="question" format="1">
  <advance width="321"/>
  <unicode hex="003F"/>
  <outline>
    <contour>
      <point x="309" y="511" type="curve" smooth="yes"/>
      <point x="309" y="452"/>
      <point x="269" y="378"/>
      <point x="190" y="278" type="curve"/>
      <point x="213" y="205" type="line"/>
      <point x="91" y="175" type="line"/>
      <point x="54" y="290" type="line"/>
      <point x="118" y="369"/>
      <point x="161" y="424"/>
      <point x="161" y="462" type="curve" smooth="yes"/>
      <point x="161" y="508"/>
      <point x="106" y="537"/>
      <point x="6" y="554" type="curve"/>
      <point x="31" y="598"/>
      <point x="42" y="631"/>
      <point x="58" y="669" type="curve"/>
      <point x="229" y="638"/>
      <point x="309" y="588"/>
    </contour>
    <contour>
      <point x="224" y="67" type="curve" smooth="yes"/>
      <point x="224" y="29"/>
      <point x="197" y="-6"/>
      <point x="147" y="-6" type="curve" smooth="yes"/>
      <point x="101" y="-6"/>
      <point x="63" y="25"/>
      <point x="63" y="68" type="curve" smooth="yes"/>
      <point x="63" y="112"/>
      <point x="99" y="140"/>
      <point x="145" y="140" type="curve" smooth="yes"/>
      <point x="190" y="140"/>
      <point x="224" y="110"/>
    </contour>
  </outline>
</glyph>
<glyph name="at" format="1">
  <advance width="643"/>
  <unicode hex="0040"/>
  <outline>
    <contour>
      <point x="623" y="322" type="curve" smooth="yes"/>
      <point x="623" y="188"/>
      <point x="535" y="143"/>
      <point x="453" y="143" type="curve" smooth="yes"/>
      <point x="403" y="143"/>
      <point x="378" y="170"/>
      <point x="361" y="205" type="curve"/>
      <point x="341" y="193"/>
      <point x="291" y="167"/>
      <point x="269" y="167" type="curve" smooth="yes"/>
      <point x="236" y="167"/>
      <point x="185" y="204"/>
      <point x="185" y="280" type="curve" smooth="yes"/>
      <point x="185" y="324"/>
      <point x="203" y="348"/>
      <point x="238" y="364" type="curve" smooth="yes"/>
      <point x="272" y="380"/>
      <point x="316" y="391"/>
      <point x="337" y="396" type="curve"/>
      <point x="337" y="410"/>
      <point x="335" y="424"/>
      <point x="327" y="426" type="curve" smooth="yes"/>
      <point x="314" y="429"/>
      <point x="293" y="433"/>
      <point x="240" y="433" type="curve"/>
      <point x="240" y="433"/>
      <point x="248" y="473"/>
      <point x="248" y="516" type="curve"/>
      <point x="321" y="508"/>
      <point x="366" y="500"/>
      <point x="387" y="489" type="curve" smooth="yes"/>
      <point x="416" y="473"/>
      <point x="429" y="435"/>
      <point x="429" y="410" type="curve" smooth="yes"/>
      <point x="429" y="406"/>
      <point x="429" y="312"/>
      <point x="429" y="250" type="curve" smooth="yes"/>
      <point x="429" y="230"/>
      <point x="445" y="217"/>
      <point x="461" y="217" type="curve" smooth="yes"/>
      <point x="501" y="217"/>
      <point x="531" y="242"/>
      <point x="531" y="324" type="curve" smooth="yes"/>
      <point x="531" y="486"/>
      <point x="425" y="591"/>
      <point x="309" y="591" type="curve" smooth="yes"/>
      <point x="193" y="591"/>
      <point x="115" y="466"/>
      <point x="115" y="354" type="curve" smooth="yes"/>
      <point x="115" y="211"/>
      <point x="193" y="64"/>
      <point x="295" y="64" type="curve" smooth="yes"/>
      <point x="335" y="64"/>
      <point x="381" y="75"/>
      <point x="430" y="102" type="curve"/>
      <point x="474" y="42" type="line"/>
      <point x="416" y="7"/>
      <point x="352" y="-15"/>
      <point x="282" y="-15" type="curve" smooth="yes"/>
      <point x="134" y="-15"/>
      <point x="20" y="192"/>
      <point x="20" y="347" type="curve" smooth="yes"/>
      <point x="20" y="495"/>
      <point x="127" y="670"/>
      <point x="298" y="670" type="curve" smooth="yes"/>
      <point x="459" y="670"/>
      <point x="623" y="537"/>
    </contour>
    <contour>
      <point x="337" y="266" type="curve"/>
      <point x="337" y="271"/>
      <point x="337" y="323"/>
      <point x="337" y="333" type="curve"/>
      <point x="332" y="331"/>
      <point x="315" y="325"/>
      <point x="302" y="319" type="curve" smooth="yes"/>
      <point x="283" y="310"/>
      <point x="272" y="299"/>
      <point x="273" y="278" type="curve" smooth="yes"/>
      <point x="274" y="264"/>
      <point x="284" y="247"/>
      <point x="296" y="247" type="curve" smooth="yes"/>
      <point x="314" y="247"/>
      <point x="331" y="261"/>
    </contour>
  </outline>
</glyph>
<glyph name="A" format="1">
  <advance width="452"/>
  <unicode hex="0041"/>
  <outline>
    <contour>
      <point x="452" y="15" type="curve"/>
      <point x="410" y="8"/>
      <point x="362" y="-3"/>
      <point x="314" y="-16" type="curve"/>
      <point x="306" y="36"/>
      <point x="294" y="93"/>
      <point x="287" y="128" type="curve"/>
      <point x="286" y="131"/>
      <point x="284" y="137"/>
      <point x="284" y="140" type="curve"/>
      <point x="259" y="138"/>
      <point x="184" y="136"/>
      <point x="160" y="135" type="curve"/>
      <point x="153" y="98"/>
      <point x="139" y="26"/>
      <point x="134" y="-17" type="curve"/>
      <point x="80" y="5"/>
      <point x="42" y="20"/>
      <point x="0" y="30" type="curve"/>
      <point x="14" y="83"/>
      <point x="93" y="362"/>
      <point x="125" y="560" type="curve" smooth="yes"/>
      <point x="130" y="591"/>
      <point x="138" y="634"/>
      <point x="138" y="663" type="curve"/>
      <point x="175" y="667"/>
      <point x="233" y="670"/>
      <point x="272" y="676" type="curve"/>
      <point x="282" y="629"/>
      <point x="437" y="74"/>
    </contour>
    <contour>
      <point x="262" y="247" type="curve"/>
      <point x="257" y="270"/>
      <point x="221" y="435"/>
      <point x="214" y="466" type="curve"/>
      <point x="208" y="435"/>
      <point x="184" y="268"/>
      <point x="180" y="246" type="curve"/>
      <point x="191" y="247"/>
      <point x="251" y="247"/>
    </contour>
  </outline>
</glyph>
<glyph name="B" format="1">
  <advance width="415"/>
  <unicode hex="0042"/>
  <outline>
    <contour>
      <point x="395" y="207" type="curve" smooth="yes"/>
      <point x="395" y="104"/>
      <point x="321" y="3"/>
      <point x="160" y="3" type="curve" smooth="yes"/>
      <point x="139" y="3"/>
      <point x="82" y="5"/>
      <point x="25" y="5" type="curve"/>
      <point x="34" y="99"/>
      <point x="31" y="340"/>
      <point x="30" y="372" type="curve" smooth="yes"/>
      <point x="29" y="400"/>
      <point x="29" y="437"/>
      <point x="28" y="508" type="curve" smooth="yes"/>
      <point x="27" y="557"/>
      <point x="26" y="618"/>
      <point x="20" y="664" type="curve"/>
      <point x="66" y="664"/>
      <point x="106" y="666"/>
      <point x="147" y="666" type="curve" smooth="yes"/>
      <point x="280" y="666"/>
      <point x="377" y="584"/>
      <point x="377" y="493" type="curve" smooth="yes"/>
      <point x="377" y="395"/>
      <point x="328" y="365"/>
      <point x="285" y="345" type="curve"/>
      <point x="333" y="326"/>
      <point x="395" y="277"/>
    </contour>
    <contour>
      <point x="245" y="470" type="curve" smooth="yes"/>
      <point x="245" y="526"/>
      <point x="204" y="552"/>
      <point x="161" y="553" type="curve"/>
      <point x="160" y="516"/>
      <point x="160" y="433"/>
      <point x="160" y="393" type="curve"/>
      <point x="209" y="393"/>
      <point x="245" y="408"/>
    </contour>
    <contour>
      <point x="254" y="207" type="curve" smooth="yes"/>
      <point x="254" y="273"/>
      <point x="214" y="293"/>
      <point x="162" y="296" type="curve"/>
      <point x="161" y="270"/>
      <point x="161" y="228"/>
      <point x="161" y="195" type="curve" smooth="yes"/>
      <point x="161" y="164"/>
      <point x="161" y="138"/>
      <point x="161" y="110" type="curve"/>
      <point x="166" y="110"/>
      <point x="171" y="109"/>
      <point x="176" y="109" type="curve" smooth="yes"/>
      <point x="226" y="109"/>
      <point x="254" y="132"/>
    </contour>
  </outline>
</glyph>
<glyph name="C" format="1">
  <advance width="364"/>
  <unicode hex="0043"/>
  <outline>
    <contour>
      <point x="345" y="112" type="curve"/>
      <point x="334" y="64"/>
      <point x="329" y="35"/>
      <point x="324" y="-12" type="curve"/>
      <point x="90" y="49"/>
      <point x="20" y="142"/>
      <point x="20" y="348" type="curve" smooth="yes"/>
      <point x="20" y="524"/>
      <point x="126" y="671"/>
      <point x="292" y="671" type="curve" smooth="yes"/>
      <point x="306" y="671"/>
      <point x="320" y="670"/>
      <point x="335" y="668" type="curve"/>
      <point x="333" y="629"/>
      <point x="333" y="599"/>
      <point x="336" y="564" type="curve"/>
      <point x="244" y="557"/>
      <point x="163" y="520"/>
      <point x="163" y="347" type="curve" smooth="yes"/>
      <point x="163" y="200"/>
      <point x="205" y="145"/>
    </contour>
  </outline>
</glyph>
<glyph name="D" format="1">
  <advance width="458"/>
  <unicode hex="0044"/>
  <outline>
    <contour>
      <point x="438" y="379" type="curve" smooth="yes"/>
      <point x="438" y="139"/>
      <point x="289" y="-2"/>
      <point x="150" y="-2" type="curve" smooth="yes"/>
      <point x="110" y="-2"/>
      <point x="59" y="6"/>
      <point x="19" y="17" type="curve"/>
      <point x="30" y="77"/>
      <point x="31" y="340"/>
      <point x="31" y="392" type="curve" smooth="yes"/>
      <point x="31" y="489"/>
      <point x="28" y="607"/>
      <point x="23" y="661" type="curve"/>
      <point x="75" y="674"/>
      <point x="113" y="675"/>
      <point x="143" y="675" type="curve" smooth="yes"/>
      <point x="315" y="675"/>
      <point x="438" y="596"/>
    </contour>
    <contour>
      <point x="295" y="376" type="curve" smooth="yes"/>
      <point x="295" y="528"/>
      <point x="236" y="551"/>
      <point x="167" y="557" type="curve"/>
      <point x="167" y="417"/>
      <point x="165" y="225"/>
      <point x="168" y="115" type="curve"/>
      <point x="249" y="118"/>
      <point x="295" y="252"/>
    </contour>
  </outline>
</glyph>
<glyph name="E" format="1">
  <advance width="402"/>
  <unicode hex="0045"/>
  <outline>
    <contour>
      <point x="373" y="121" type="curve"/>
      <point x="368" y="79"/>
      <point x="361" y="43"/>
      <point x="353" y="-6" type="curve"/>
      <point x="312" y="-1"/>
      <point x="261" y="-1"/>
      <point x="223" y="0" type="curve" smooth="yes"/>
      <point x="156" y="2"/>
      <point x="83" y="5"/>
      <point x="21" y="6" type="curve"/>
      <point x="22" y="71"/>
      <point x="30" y="198"/>
      <point x="32" y="303" type="curve" smooth="yes"/>
      <point x="35" y="433"/>
      <point x="31" y="588"/>
      <point x="30" y="660" type="curve"/>
      <point x="79" y="663"/>
      <point x="144" y="666"/>
      <point x="168" y="666" type="curve" smooth="yes"/>
      <point x="201" y="666"/>
      <point x="312" y="662"/>
      <point x="372" y="662" type="curve"/>
      <point x="359" y="614"/>
      <point x="354" y="578"/>
      <point x="349" y="537" type="curve"/>
      <point x="299" y="544"/>
      <point x="232" y="546"/>
      <point x="197" y="548" type="curve" smooth="yes"/>
      <point x="189" y="549"/>
      <point x="177" y="549"/>
      <point x="169" y="549" type="curve"/>
      <point x="169" y="499"/>
      <point x="170" y="464"/>
      <point x="170" y="414" type="curve"/>
      <point x="187" y="413"/>
      <point x="217" y="412"/>
      <point x="231" y="414" type="curve" smooth="yes"/>
      <point x="239" y="415"/>
      <point x="285" y="419"/>
      <point x="335" y="419" type="curve"/>
      <point x="335" y="378"/>
      <point x="333" y="344"/>
      <point x="333" y="297" type="curve"/>
      <point x="290" y="298"/>
      <point x="269" y="302"/>
      <point x="228" y="306" type="curve" smooth="yes"/>
      <point x="207" y="308"/>
      <point x="186" y="309"/>
      <point x="170" y="311" type="curve"/>
      <point x="167" y="259"/>
      <point x="170" y="182"/>
      <point x="171" y="123" type="curve"/>
      <point x="184" y="123"/>
      <point x="194" y="123"/>
      <point x="204" y="123" type="curve"/>
      <point x="213" y="122"/>
      <point x="311" y="118"/>
    </contour>
  </outline>
</glyph>
<glyph name="F" format="1">
  <advance width="346"/>
  <unicode hex="0046"/>
  <outline>
    <contour>
      <point x="318" y="544" type="curve"/>
      <point x="254" y="544"/>
      <point x="204" y="545"/>
      <point x="167" y="546" type="curve"/>
      <point x="168" y="532"/>
      <point x="169" y="512"/>
      <point x="170" y="497" type="curve" smooth="yes"/>
      <point x="171" y="463"/>
      <point x="172" y="423"/>
      <point x="171" y="392" type="curve"/>
      <point x="189" y="393"/>
      <point x="213" y="395"/>
      <point x="229" y="395" type="curve" smooth="yes"/>
      <point x="248" y="395"/>
      <point x="315" y="393"/>
      <point x="315" y="393" type="curve"/>
      <point x="315" y="393"/>
      <point x="300" y="327"/>
      <point x="298" y="277" type="curve"/>
      <point x="257" y="281"/>
      <point x="239" y="282"/>
      <point x="222" y="283" type="curve" smooth="yes"/>
      <point x="207" y="284"/>
      <point x="190" y="284"/>
      <point x="175" y="285" type="curve"/>
      <point x="175" y="271"/>
      <point x="174" y="253"/>
      <point x="174" y="235" type="curve" smooth="yes"/>
      <point x="174" y="157"/>
      <point x="169" y="89"/>
      <point x="172" y="-1" type="curve"/>
      <point x="119" y="9"/>
      <point x="70" y="15"/>
      <point x="20" y="18" type="curve"/>
      <point x="23" y="125"/>
      <point x="32" y="310"/>
      <point x="32" y="479" type="curve" smooth="yes"/>
      <point x="32" y="539"/>
      <point x="30" y="565"/>
      <point x="27" y="660" type="curve"/>
      <point x="112" y="660"/>
      <point x="246" y="659"/>
      <point x="314" y="663" type="curve"/>
      <point x="314" y="618"/>
      <point x="314" y="592"/>
    </contour>
  </outline>
</glyph>
<glyph name="G" format="1">
  <advance width="454"/>
  <unicode hex="0047"/>
  <outline>
    <contour>
      <point x="426" y="387" type="curve"/>
      <point x="422" y="322"/>
      <point x="413" y="159"/>
      <point x="413" y="32" type="curve"/>
      <point x="366" y="3"/>
      <point x="295" y="-6"/>
      <point x="269" y="-6" type="curve" smooth="yes"/>
      <point x="131" y="-6"/>
      <point x="19" y="70"/>
      <point x="19" y="338" type="curve" smooth="yes"/>
      <point x="19" y="621"/>
      <point x="189" y="654"/>
      <point x="397" y="660" type="curve"/>
      <point x="403" y="616"/>
      <point x="407" y="593"/>
      <point x="418" y="539" type="curve"/>
      <point x="278" y="548"/>
      <point x="159" y="527"/>
      <point x="159" y="337" type="curve" smooth="yes"/>
      <point x="159" y="169"/>
      <point x="206" y="114"/>
      <point x="284" y="114" type="curve" smooth="yes"/>
      <point x="286" y="114"/>
      <point x="287" y="115"/>
      <point x="287" y="115" type="curve"/>
      <point x="285" y="149"/>
      <point x="284" y="239"/>
      <point x="282" y="280" type="curve"/>
      <point x="267" y="283"/>
      <point x="249" y="286"/>
      <point x="233" y="289" type="curve"/>
      <point x="234" y="336"/>
      <point x="233" y="354"/>
      <point x="232" y="403" type="curve"/>
      <point x="307" y="397"/>
      <point x="356" y="390"/>
    </contour>
  </outline>
</glyph>
<glyph name="H" format="1">
  <advance width="450"/>
  <unicode hex="0048"/>
  <outline>
    <contour>
      <point x="420" y="35" type="line"/>
      <point x="372" y="33"/>
      <point x="337" y="30"/>
      <point x="275" y="22" type="curve"/>
      <point x="278" y="58"/>
      <point x="280" y="108"/>
      <point x="280" y="139" type="curve" smooth="yes"/>
      <point x="280" y="188"/>
      <point x="282" y="229"/>
      <point x="281" y="267" type="curve"/>
      <point x="256" y="267"/>
      <point x="199" y="266"/>
      <point x="172" y="267" type="curve"/>
      <point x="172" y="207"/>
      <point x="171" y="86"/>
      <point x="166" y="0" type="curve"/>
      <point x="113" y="17"/>
      <point x="63" y="21"/>
      <point x="22" y="30" type="curve"/>
      <point x="26" y="97"/>
      <point x="30" y="167"/>
      <point x="30" y="212" type="curve" smooth="yes"/>
      <point x="30" y="336"/>
      <point x="31" y="444"/>
      <point x="28" y="530" type="curve" smooth="yes"/>
      <point x="26" y="567"/>
      <point x="24" y="622"/>
      <point x="19" y="666" type="curve"/>
      <point x="82" y="661"/>
      <point x="121" y="661"/>
      <point x="183" y="665" type="curve"/>
      <point x="175" y="613"/>
      <point x="172" y="450"/>
      <point x="173" y="379" type="curve"/>
      <point x="199" y="378"/>
      <point x="258" y="379"/>
      <point x="282" y="380" type="curve"/>
      <point x="282" y="383"/>
      <point x="282" y="390"/>
      <point x="282" y="392" type="curve" smooth="yes"/>
      <point x="280" y="430"/>
      <point x="279" y="558"/>
      <point x="279" y="573" type="curve" smooth="yes"/>
      <point x="279" y="587"/>
      <point x="279" y="626"/>
      <point x="274" y="652" type="curve"/>
      <point x="315" y="654"/>
      <point x="370" y="656"/>
      <point x="420" y="660" type="curve"/>
    </contour>
  </outline>
</glyph>
<glyph name="I" format="1">
  <advance width="198"/>
  <unicode hex="0049"/>
  <outline>
    <contour>
      <point x="177" y="654" type="curve"/>
      <point x="174" y="571"/>
      <point x="165" y="239"/>
      <point x="168" y="-15" type="curve"/>
      <point x="105" y="-3"/>
      <point x="80" y="0"/>
      <point x="32" y="0" type="curve"/>
      <point x="34" y="113"/>
      <point x="31" y="484"/>
      <point x="27" y="672" type="curve"/>
      <point x="86" y="661"/>
      <point x="120" y="658"/>
    </contour>
  </outline>
</glyph>
<glyph name="J" format="1">
  <advance width="198"/>
  <unicode hex="004A"/>
  <outline>
    <contour>
      <point x="169" y="133" type="curve" smooth="yes"/>
      <point x="169" y="-49"/>
      <point x="142" y="-116"/>
      <point x="-18" y="-185" type="curve"/>
      <point x="-32" y="-139"/>
      <point x="-43" y="-119"/>
      <point x="-62" y="-80" type="curve"/>
      <point x="37" y="-42"/>
      <point x="35" y="24"/>
      <point x="35" y="135" type="curve" smooth="yes"/>
      <point x="35" y="208"/>
      <point x="35" y="267"/>
      <point x="33" y="351" type="curve" smooth="yes"/>
      <point x="31" y="463"/>
      <point x="25" y="595"/>
      <point x="24" y="674" type="curve"/>
      <point x="82" y="664"/>
      <point x="115" y="660"/>
      <point x="166" y="658" type="curve"/>
      <point x="164" y="594"/>
      <point x="168" y="484"/>
      <point x="168" y="394" type="curve" smooth="yes"/>
      <point x="168" y="244"/>
      <point x="169" y="176"/>
    </contour>
  </outline>
</glyph>
<glyph name="K" format="1">
  <advance width="452"/>
  <unicode hex="004B"/>
  <outline>
    <contour>
      <point x="450" y="67" type="curve"/>
      <point x="405" y="41"/>
      <point x="378" y="27"/>
      <point x="322" y="-8" type="curve"/>
      <point x="286" y="77"/>
      <point x="229" y="214"/>
      <point x="189" y="296" type="curve"/>
      <point x="187" y="293"/>
      <point x="174" y="274"/>
      <point x="172" y="271" type="curve"/>
      <point x="172" y="189"/>
      <point x="173" y="94"/>
      <point x="175" y="18" type="curve"/>
      <point x="121" y="17"/>
      <point x="86" y="13"/>
      <point x="24" y="9" type="curve"/>
      <point x="27" y="93"/>
      <point x="36" y="419"/>
      <point x="34" y="660" type="curve"/>
      <point x="89" y="660"/>
      <point x="117" y="664"/>
      <point x="175" y="668" type="curve"/>
      <point x="175" y="610"/>
      <point x="173" y="507"/>
      <point x="172" y="434" type="curve"/>
      <point x="216" y="507"/>
      <point x="281" y="621"/>
      <point x="315" y="686" type="curve"/>
      <point x="363" y="652"/>
      <point x="382" y="644"/>
      <point x="436" y="617" type="curve"/>
      <point x="391" y="557"/>
      <point x="340" y="479"/>
      <point x="285" y="398" type="curve"/>
      <point x="321" y="314"/>
      <point x="381" y="190"/>
    </contour>
  </outline>
</glyph>
<glyph name="L" format="1">
  <advance width="358"/>
  <unicode hex="004C"/>
  <outline>
    <contour>
      <point x="353" y="122" type="curve"/>
      <point x="339" y="66"/>
      <point x="335" y="46"/>
      <point x="324" y="-8" type="curve"/>
      <point x="283" y="-2"/>
      <point x="242" y="0"/>
      <point x="208" y="2" type="curve" smooth="yes"/>
      <point x="144" y="6"/>
      <point x="76" y="7"/>
      <point x="24" y="10" type="curve"/>
      <point x="32" y="99"/>
      <point x="39" y="314"/>
      <point x="32" y="491" type="curve" smooth="yes"/>
      <point x="30" y="544"/>
      <point x="32" y="603"/>
      <point x="25" y="658" type="curve"/>
      <point x="82" y="658"/>
      <point x="122" y="666"/>
      <point x="175" y="673" type="curve"/>
      <point x="178" y="594"/>
      <point x="176" y="231"/>
      <point x="175" y="117" type="curve"/>
      <point x="224" y="117"/>
      <point x="277" y="116"/>
    </contour>
  </outline>
</glyph>
<glyph name="M" format="1">
  <advance width="545"/>
  <unicode hex="004D"/>
  <outline>
    <contour>
      <point x="521" y="-27" type="line"/>
      <point x="470" y="-24"/>
      <point x="428" y="-20"/>
      <point x="384" y="-13" type="curve"/>
      <point x="384" y="57"/>
      <point x="391" y="286"/>
      <point x="389" y="406" type="curve"/>
      <point x="373" y="373"/>
      <point x="317" y="240"/>
      <point x="301" y="204" type="curve"/>
      <point x="271" y="211"/>
      <point x="251" y="213"/>
      <point x="228" y="213" type="curve"/>
      <point x="210" y="253"/>
      <point x="160" y="399"/>
      <point x="152" y="418" type="curve"/>
      <point x="148" y="315"/>
      <point x="153" y="95"/>
      <point x="155" y="15" type="curve"/>
      <point x="102" y="13"/>
      <point x="79" y="7"/>
      <point x="23" y="-3" type="curve"/>
      <point x="23" y="73"/>
      <point x="33" y="311"/>
      <point x="38" y="513" type="curve" smooth="yes"/>
      <point x="39" y="559"/>
      <point x="39" y="611"/>
      <point x="41" y="658" type="curve"/>
      <point x="86" y="658"/>
      <point x="125" y="660"/>
      <point x="161" y="662" type="curve"/>
      <point x="172" y="634"/>
      <point x="187" y="599"/>
      <point x="197" y="577" type="curve" smooth="yes"/>
      <point x="220" y="524"/>
      <point x="256" y="439"/>
      <point x="274" y="396" type="curve"/>
      <point x="289" y="429"/>
      <point x="318" y="504"/>
      <point x="333" y="544" type="curve" smooth="yes"/>
      <point x="345" y="576"/>
      <point x="364" y="619"/>
      <point x="376" y="649" type="curve"/>
      <point x="413" y="654"/>
      <point x="439" y="660"/>
      <point x="499" y="676" type="curve"/>
    </contour>
  </outline>
</glyph>
<glyph name="N" format="1">
  <advance width="460"/>
  <unicode hex="004E"/>
  <outline>
    <contour>
      <point x="425" y="5" type="line"/>
      <point x="373" y="9"/>
      <point x="346" y="10"/>
      <point x="307" y="13" type="curve"/>
      <point x="289" y="71"/>
      <point x="203" y="258"/>
      <point x="153" y="357" type="curve"/>
      <point x="153" y="350"/>
      <point x="153" y="297"/>
      <point x="153" y="290" type="curve" smooth="yes"/>
      <point x="152" y="200"/>
      <point x="155" y="29"/>
      <point x="156" y="2" type="curve"/>
      <point x="109" y="11"/>
      <point x="69" y="17"/>
      <point x="15" y="21" type="curve"/>
      <point x="20" y="86"/>
      <point x="32" y="240"/>
      <point x="33" y="361" type="curve" smooth="yes"/>
      <point x="34" y="466"/>
      <point x="27" y="596"/>
      <point x="26" y="662" type="curve"/>
      <point x="69" y="662"/>
      <point x="103" y="666"/>
      <point x="148" y="673" type="curve"/>
      <point x="157" y="619"/>
      <point x="249" y="427"/>
      <point x="301" y="317" type="curve"/>
      <point x="301" y="371"/>
      <point x="301" y="495"/>
      <point x="299" y="546" type="curve" smooth="yes"/>
      <point x="298" y="575"/>
      <point x="295" y="609"/>
      <point x="288" y="651" type="curve"/>
      <point x="342" y="655"/>
      <point x="373" y="658"/>
      <point x="425" y="668" type="curve"/>
    </contour>
  </outline>
</glyph>
<glyph name="O" format="1">
  <advance width="492"/>
  <unicode hex="004F"/>
  <outline>
    <contour>
      <point x="472" y="346" type="curve" smooth="yes"/>
      <point x="472" y="100"/>
      <point x="326" y="-6"/>
      <point x="236" y="-6" type="curve" smooth="yes"/>
      <point x="134" y="-6"/>
      <point x="20" y="105"/>
      <point x="20" y="344" type="curve" smooth="yes"/>
      <point x="20" y="596"/>
      <point x="92" y="670"/>
      <point x="239" y="670" type="curve" smooth="yes"/>
      <point x="351" y="670"/>
      <point x="472" y="597"/>
    </contour>
    <contour>
      <point x="329" y="343" type="curve" smooth="yes"/>
      <point x="329" y="518"/>
      <point x="280" y="552"/>
      <point x="229" y="552" type="curve" smooth="yes"/>
      <point x="186" y="552"/>
      <point x="164" y="504"/>
      <point x="164" y="349" type="curve" smooth="yes"/>
      <point x="164" y="202"/>
      <point x="196" y="116"/>
      <point x="249" y="116" type="curve" smooth="yes"/>
      <point x="291" y="116"/>
      <point x="329" y="226"/>
    </contour>
  </outline>
</glyph>
<glyph name="P" format="1">
  <advance width="401"/>
  <unicode hex="0050"/>
  <outline>
    <contour>
      <point x="391" y="462" type="curve" smooth="yes"/>
      <point x="391" y="373"/>
      <point x="308" y="265"/>
      <point x="168" y="246" type="curve"/>
      <point x="168" y="176"/>
      <point x="169" y="95"/>
      <point x="176" y="34" type="curve"/>
      <point x="120" y="14"/>
      <point x="32" y="-2"/>
      <point x="32" y="-2" type="curve"/>
      <point x="32" y="92"/>
      <point x="35" y="258"/>
      <point x="32" y="421" type="curve" smooth="yes"/>
      <point x="30" y="502"/>
      <point x="24" y="609"/>
      <point x="13" y="653" type="curve"/>
      <point x="64" y="666"/>
      <point x="108" y="670"/>
      <point x="138" y="670" type="curve" smooth="yes"/>
      <point x="292" y="670"/>
      <point x="391" y="625"/>
    </contour>
    <contour>
      <point x="251" y="468" type="curve" smooth="yes"/>
      <point x="251" y="527"/>
      <point x="238" y="554"/>
      <point x="162" y="553" type="curve"/>
      <point x="163" y="528"/>
      <point x="165" y="489"/>
      <point x="166" y="460" type="curve" smooth="yes"/>
      <point x="167" y="437"/>
      <point x="168" y="393"/>
      <point x="168" y="367" type="curve"/>
      <point x="225" y="374"/>
      <point x="251" y="411"/>
    </contour>
  </outline>
</glyph>
<glyph name="Q" format="1">
  <advance width="489"/>
  <unicode hex="0051"/>
  <outline>
    <contour>
      <point x="469" y="365" type="curve" smooth="yes"/>
      <point x="469" y="233"/>
      <point x="414" y="103"/>
      <point x="354" y="41" type="curve"/>
      <point x="374" y="10"/>
      <point x="406" y="-38"/>
      <point x="451" y="-88" type="curve"/>
      <point x="400" y="-115"/>
      <point x="375" y="-132"/>
      <point x="319" y="-170" type="curve"/>
      <point x="279" y="-95"/>
      <point x="244" y="-34"/>
      <point x="218" y="5" type="curve"/>
      <point x="97" y="37"/>
      <point x="17" y="200"/>
      <point x="17" y="372" type="curve" smooth="yes"/>
      <point x="17" y="547"/>
      <point x="110" y="670"/>
      <point x="252" y="670" type="curve" smooth="yes"/>
      <point x="360" y="670"/>
      <point x="469" y="621"/>
    </contour>
    <contour>
      <point x="326" y="362" type="curve" smooth="yes"/>
      <point x="326" y="499"/>
      <point x="299" y="549"/>
      <point x="239" y="549" type="curve" smooth="yes"/>
      <point x="181" y="549"/>
      <point x="161" y="474"/>
      <point x="161" y="378" type="curve" smooth="yes"/>
      <point x="161" y="229"/>
      <point x="197" y="118"/>
      <point x="251" y="118" type="curve" smooth="yes"/>
      <point x="285" y="118"/>
      <point x="326" y="176"/>
    </contour>
  </outline>
</glyph>
<glyph name="R" format="1">
  <advance width="439"/>
  <unicode hex="0052"/>
  <outline>
    <contour>
      <point x="442" y="43" type="curve"/>
      <point x="394" y="28"/>
      <point x="357" y="10"/>
      <point x="310" y="-5" type="curve"/>
      <point x="272" y="92"/>
      <point x="214" y="218"/>
      <point x="192" y="264" type="curve"/>
      <point x="192" y="264"/>
      <point x="174" y="260"/>
      <point x="164" y="259" type="curve"/>
      <point x="165" y="248"/>
      <point x="164" y="222"/>
      <point x="164" y="205" type="curve" smooth="yes"/>
      <point x="165" y="140"/>
      <point x="167" y="80"/>
      <point x="172" y="20" type="curve"/>
      <point x="120" y="17"/>
      <point x="66" y="11"/>
      <point x="25" y="8" type="curve"/>
      <point x="29" y="68"/>
      <point x="30" y="173"/>
      <point x="30" y="213" type="curve" smooth="yes"/>
      <point x="30" y="234"/>
      <point x="32" y="401"/>
      <point x="32" y="485" type="curve" smooth="yes"/>
      <point x="32" y="564"/>
      <point x="34" y="681"/>
      <point x="34" y="681" type="curve"/>
      <point x="65" y="684"/>
      <point x="92" y="685"/>
      <point x="120" y="685" type="curve" smooth="yes"/>
      <point x="319" y="685"/>
      <point x="393" y="605"/>
      <point x="393" y="509" type="curve" smooth="yes"/>
      <point x="393" y="429"/>
      <point x="356" y="347"/>
      <point x="305" y="308" type="curve"/>
      <point x="330" y="251"/>
      <point x="371" y="179"/>
    </contour>
    <contour>
      <point x="246" y="497" type="curve" smooth="yes"/>
      <point x="246" y="547"/>
      <point x="215" y="570"/>
      <point x="163" y="575" type="curve"/>
      <point x="164" y="525"/>
      <point x="165" y="404"/>
      <point x="166" y="357" type="curve"/>
      <point x="172" y="359"/>
      <point x="177" y="360"/>
      <point x="181" y="361" type="curve" smooth="yes"/>
      <point x="235" y="375"/>
      <point x="246" y="418"/>
    </contour>
  </outline>
</glyph>
<glyph name="S" format="1">
  <advance width="328"/>
  <unicode hex="0053"/>
  <outline>
    <contour>
      <point x="306" y="182" type="curve" smooth="yes"/>
      <point x="306" y="59"/>
      <point x="254" y="-2"/>
      <point x="22" y="-23" type="curve"/>
      <point x="23" y="35"/>
      <point x="25" y="54"/>
      <point x="21" y="108" type="curve"/>
      <point x="125" y="108"/>
      <point x="174" y="130"/>
      <point x="174" y="168" type="curve" smooth="yes"/>
      <point x="174" y="217"/>
      <point x="137" y="261"/>
      <point x="99" y="310" type="curve" smooth="yes"/>
      <point x="54" y="368"/>
      <point x="9" y="430"/>
      <point x="9" y="499" type="curve" smooth="yes"/>
      <point x="9" y="608"/>
      <point x="78" y="671"/>
      <point x="303" y="675" type="curve"/>
      <point x="300" y="632"/>
      <point x="297" y="604"/>
      <point x="303" y="557" type="curve"/>
      <point x="199" y="554"/>
      <point x="146" y="548"/>
      <point x="146" y="509" type="curve" smooth="yes"/>
      <point x="146" y="468"/>
      <point x="181" y="425"/>
      <point x="215" y="379" type="curve" smooth="yes"/>
      <point x="260" y="318"/>
      <point x="306" y="252"/>
    </contour>
  </outline>
</glyph>
<glyph name="T" format="1">
  <advance width="401"/>
  <unicode hex="0054"/>
  <outline>
    <contour>
      <point x="397" y="656" type="curve"/>
      <point x="386" y="615"/>
      <point x="380" y="572"/>
      <point x="377" y="531" type="curve"/>
      <point x="344" y="531"/>
      <point x="294" y="535"/>
      <point x="259" y="538" type="curve"/>
      <point x="263" y="469"/>
      <point x="270" y="298"/>
      <point x="272" y="177" type="curve" smooth="yes"/>
      <point x="273" y="118"/>
      <point x="274" y="76"/>
      <point x="271" y="-1" type="curve"/>
      <point x="216" y="3"/>
      <point x="175" y="6"/>
      <point x="118" y="6" type="curve"/>
      <point x="125" y="79"/>
      <point x="129" y="177"/>
      <point x="131" y="268" type="curve" smooth="yes"/>
      <point x="134" y="369"/>
      <point x="131" y="481"/>
      <point x="130" y="549" type="curve"/>
      <point x="122" y="548"/>
      <point x="113" y="548"/>
      <point x="105" y="548" type="curve" smooth="yes"/>
      <point x="80" y="548"/>
      <point x="51" y="549"/>
      <point x="-1" y="549" type="curve"/>
      <point x="15" y="593"/>
      <point x="21" y="633"/>
      <point x="21" y="673" type="curve"/>
      <point x="67" y="666"/>
      <point x="86" y="665"/>
      <point x="104" y="664" type="curve" smooth="yes"/>
      <point x="203" y="658"/>
      <point x="338" y="656"/>
    </contour>
  </outline>
</glyph>
<glyph name="U" format="1">
  <advance width="448"/>
  <unicode hex="0055"/>
  <outline>
    <contour>
      <point x="415" y="432" type="curve" smooth="yes"/>
      <point x="415" y="329"/>
      <point x="414" y="184"/>
      <point x="414" y="168" type="curve" smooth="yes"/>
      <point x="414" y="-1"/>
      <point x="292" y="-6"/>
      <point x="226" y="-6" type="curve" smooth="yes"/>
      <point x="180" y="-6"/>
      <point x="111" y="9"/>
      <point x="84" y="37" type="curve" smooth="yes"/>
      <point x="49" y="72"/>
      <point x="30" y="105"/>
      <point x="30" y="159" type="curve" smooth="yes"/>
      <point x="30" y="182"/>
      <point x="31" y="362"/>
      <point x="27" y="491" type="curve" smooth="yes"/>
      <point x="25" y="546"/>
      <point x="23" y="594"/>
      <point x="22" y="665" type="curve"/>
      <point x="83" y="663"/>
      <point x="113" y="664"/>
      <point x="171" y="671" type="curve"/>
      <point x="166" y="573"/>
      <point x="171" y="189"/>
      <point x="171" y="165" type="curve" smooth="yes"/>
      <point x="171" y="126"/>
      <point x="188" y="112"/>
      <point x="232" y="112" type="curve" smooth="yes"/>
      <point x="255" y="112"/>
      <point x="274" y="122"/>
      <point x="274" y="149" type="curve" smooth="yes"/>
      <point x="274" y="170"/>
      <point x="277" y="327"/>
      <point x="274" y="449" type="curve" smooth="yes"/>
      <point x="272" y="519"/>
      <point x="273" y="594"/>
      <point x="261" y="658" type="curve"/>
      <point x="323" y="661"/>
      <point x="359" y="663"/>
      <point x="412" y="668" type="curve"/>
      <point x="420" y="560"/>
      <point x="415" y="512"/>
    </contour>
  </outline>
</glyph>
<glyph name="V" format="1">
  <advance width="450"/>
  <unicode hex="0056"/>
  <outline>
    <contour>
      <point x="449" y="643" type="curve"/>
      <point x="428" y="517"/>
      <point x="317" y="142"/>
      <point x="292" y="-2" type="curve"/>
      <point x="250" y="-8"/>
      <point x="213" y="-9"/>
      <point x="172" y="-12" type="curve"/>
      <point x="134" y="171"/>
      <point x="25" y="554"/>
      <point x="1" y="650" type="curve"/>
      <point x="55" y="656"/>
      <point x="97" y="669"/>
      <point x="154" y="691" type="curve"/>
      <point x="161" y="622"/>
      <point x="212" y="346"/>
      <point x="230" y="230" type="curve"/>
      <point x="249" y="345"/>
      <point x="301" y="624"/>
      <point x="302" y="672" type="curve"/>
      <point x="363" y="655"/>
      <point x="396" y="648"/>
    </contour>
  </outline>
</glyph>
<glyph name="W" format="1">
  <advance width="686"/>
  <unicode hex="0057"/>
  <outline>
    <contour>
      <point x="683" y="639" type="curve"/>
      <point x="643" y="452"/>
      <point x="580" y="136"/>
      <point x="552" y="-5" type="curve"/>
      <point x="515" y="-10"/>
      <point x="482" y="-16"/>
      <point x="435" y="-19" type="curve"/>
      <point x="420" y="63"/>
      <point x="364" y="277"/>
      <point x="344" y="393" type="curve"/>
      <point x="324" y="286"/>
      <point x="261" y="68"/>
      <point x="243" y="-14" type="curve"/>
      <point x="191" y="-4"/>
      <point x="164" y="2"/>
      <point x="121" y="2" type="curve"/>
      <point x="100" y="113"/>
      <point x="24" y="521"/>
      <point x="1" y="636" type="curve"/>
      <point x="48" y="647"/>
      <point x="78" y="656"/>
      <point x="144" y="684" type="curve"/>
      <point x="157" y="605"/>
      <point x="184" y="383"/>
      <point x="202" y="256" type="curve"/>
      <point x="225" y="380"/>
      <point x="285" y="605"/>
      <point x="292" y="652" type="curve"/>
      <point x="333" y="652"/>
      <point x="350" y="650"/>
      <point x="400" y="654" type="curve"/>
      <point x="411" y="585"/>
      <point x="466" y="379"/>
      <point x="485" y="267" type="curve"/>
      <point x="499" y="378"/>
      <point x="533" y="580"/>
      <point x="545" y="667" type="curve"/>
      <point x="604" y="649"/>
      <point x="626" y="644"/>
    </contour>
  </outline>
</glyph>
<glyph name="X" format="1">
  <advance width="483"/>
  <unicode hex="0058"/>
  <outline>
    <contour>
      <point x="472" y="38" type="curve"/>
      <point x="414" y="25"/>
      <point x="385" y="9"/>
      <point x="330" y="-13" type="curve"/>
      <point x="310" y="57"/>
      <point x="261" y="172"/>
      <point x="235" y="235" type="curve"/>
      <point x="208" y="158"/>
      <point x="160" y="31"/>
      <point x="148" y="-10" type="curve"/>
      <point x="99" y="-1"/>
      <point x="55" y="9"/>
      <point x="0" y="18" type="curve"/>
      <point x="37" y="98"/>
      <point x="128" y="283"/>
      <point x="156" y="364" type="curve"/>
      <point x="136" y="419"/>
      <point x="50" y="589"/>
      <point x="20" y="646" type="curve"/>
      <point x="84" y="651"/>
      <point x="128" y="663"/>
      <point x="181" y="679" type="curve"/>
      <point x="187" y="633"/>
      <point x="222" y="533"/>
      <point x="240" y="482" type="curve"/>
      <point x="258" y="533"/>
      <point x="294" y="635"/>
      <point x="301" y="668" type="curve"/>
      <point x="354" y="648"/>
      <point x="389" y="637"/>
      <point x="443" y="618" type="curve"/>
      <point x="406" y="537"/>
      <point x="335" y="408"/>
      <point x="316" y="357" type="curve"/>
      <point x="332" y="314"/>
      <point x="409" y="177"/>
    </contour>
  </outline>
</glyph>
<glyph name="Y" format="1">
  <advance width="462"/>
  <unicode hex="0059"/>
  <outline>
    <contour>
      <point x="460" y="627" type="curve"/>
      <point x="412" y="518"/>
      <point x="338" y="350"/>
      <point x="315" y="290" type="curve"/>
      <point x="316" y="244"/>
      <point x="322" y="80"/>
      <point x="318" y="3" type="curve"/>
      <point x="268" y="6"/>
      <point x="217" y="7"/>
      <point x="159" y="7" type="curve"/>
      <point x="169" y="82"/>
      <point x="173" y="192"/>
      <point x="175" y="277" type="curve"/>
      <point x="143" y="352"/>
      <point x="46" y="541"/>
      <point x="1" y="627" type="curve"/>
      <point x="64" y="639"/>
      <point x="98" y="650"/>
      <point x="155" y="673" type="curve"/>
      <point x="170" y="617"/>
      <point x="215" y="486"/>
      <point x="241" y="425" type="curve"/>
      <point x="259" y="481"/>
      <point x="295" y="601"/>
      <point x="309" y="677" type="curve"/>
      <point x="372" y="651"/>
      <point x="401" y="640"/>
    </contour>
  </outline>
</glyph>
<glyph name="Z" format="1">
  <advance width="397"/>
  <unicode hex="005A"/>
  <outline>
    <contour>
      <point x="380" y="116" type="curve"/>
      <point x="369" y="56"/>
      <point x="368" y="37"/>
      <point x="363" y="-5" type="curve"/>
      <point x="274" y="0"/>
      <point x="101" y="2"/>
      <point x="6" y="7" type="curve"/>
      <point x="58" y="150"/>
      <point x="158" y="419"/>
      <point x="196" y="545" type="curve"/>
      <point x="173" y="545"/>
      <point x="146" y="544"/>
      <point x="132" y="543" type="curve" smooth="yes"/>
      <point x="118" y="543"/>
      <point x="78" y="544"/>
      <point x="26" y="541" type="curve"/>
      <point x="39" y="600"/>
      <point x="40" y="620"/>
      <point x="45" y="670" type="curve"/>
      <point x="118" y="664"/>
      <point x="289" y="654"/>
      <point x="377" y="649" type="curve"/>
      <point x="358" y="591"/>
      <point x="227" y="232"/>
      <point x="187" y="114" type="curve"/>
      <point x="234" y="113"/>
      <point x="305" y="114"/>
    </contour>
  </outline>
</glyph>
<glyph name="bracketleft" format="1">
  <advance width="284"/>
  <unicode hex="005B"/>
  <outline>
    <contour>
      <point x="276" y="-27" type="curve"/>
      <point x="263" y="-72"/>
      <point x="260" y="-89"/>
      <point x="258" y="-127" type="curve"/>
      <point x="201" y="-122"/>
      <point x="106" y="-122"/>
      <point x="46" y="-122" type="curve"/>
      <point x="46" y="-16"/>
      <point x="36" y="534"/>
      <point x="33" y="690" type="curve"/>
      <point x="108" y="690"/>
      <point x="184" y="692"/>
      <point x="258" y="701" type="curve"/>
      <point x="258" y="658"/>
      <point x="258" y="637"/>
      <point x="266" y="603" type="curve"/>
      <point x="220" y="596"/>
      <point x="187" y="592"/>
      <point x="160" y="590" type="curve"/>
      <point x="159" y="480"/>
      <point x="163" y="81"/>
      <point x="166" y="-25" type="curve"/>
      <point x="192" y="-27"/>
      <point x="224" y="-29"/>
    </contour>
  </outline>
</glyph>
<glyph name="backslash" format="1">
  <advance width="355"/>
  <unicode hex="005C"/>
  <outline>
    <contour>
      <point x="356" y="15" type="curve"/>
      <point x="303" y="10"/>
      <point x="284" y="4"/>
      <point x="231" y="-14" type="curve"/>
      <point x="169" y="178"/>
      <point x="68" y="472"/>
      <point x="-1" y="645" type="curve"/>
      <point x="59" y="651"/>
      <point x="78" y="656"/>
      <point x="130" y="675" type="curve"/>
      <point x="177" y="510"/>
      <point x="287" y="202"/>
    </contour>
  </outline>
</glyph>
<glyph name="bracketright" format="1">
  <advance width="284"/>
  <unicode hex="005D"/>
  <outline>
    <contour>
      <point x="247" y="716" type="curve"/>
      <point x="242" y="567"/>
      <point x="234" y="50"/>
      <point x="234" y="-74" type="curve"/>
      <point x="166" y="-80"/>
      <point x="84" y="-89"/>
      <point x="28" y="-96" type="curve"/>
      <point x="25" y="-54"/>
      <point x="21" y="-39"/>
      <point x="13" y="1" type="curve"/>
      <point x="60" y="6"/>
      <point x="89" y="11"/>
      <point x="113" y="16" type="curve"/>
      <point x="116" y="118"/>
      <point x="122" y="519"/>
      <point x="122" y="619" type="curve"/>
      <point x="94" y="620"/>
      <point x="64" y="621"/>
      <point x="21" y="623" type="curve"/>
      <point x="21" y="666"/>
      <point x="23" y="683"/>
      <point x="19" y="727" type="curve"/>
      <point x="94" y="719"/>
      <point x="175" y="716"/>
    </contour>
  </outline>
</glyph>
<glyph name="asciicircum" format="1">
  <advance width="433"/>
  <unicode hex="005E"/>
  <outline>
    <contour>
      <point x="419" y="391" type="line"/>
      <point x="360" y="324" type="line"/>
      <point x="206" y="490" type="line"/>
      <point x="89" y="334" type="line"/>
      <point x="16" y="381" type="line"/>
      <point x="143" y="618" type="line"/>
      <point x="240" y="645" type="line"/>
    </contour>
  </outline>
</glyph>
<glyph name="underscore" format="1">
  <advance width="330"/>
  <unicode hex="005F"/>
  <outline>
    <contour>
      <point x="337" y="-60" type="curve"/>
      <point x="332" y="-85"/>
      <point x="334" y="-138"/>
      <point x="334" y="-167" type="curve"/>
      <point x="311" y="-164"/>
      <point x="38" y="-163"/>
      <point x="-4" y="-162" type="curve"/>
      <point x="-4" y="-143"/>
      <point x="-7" y="-92"/>
      <point x="-9" y="-64" type="curve"/>
      <point x="29" y="-67"/>
      <point x="307" y="-64"/>
    </contour>
  </outline>
</glyph>
<glyph name="grave" format="1">
  <advance width="350"/>
  <unicode hex="0060"/>
  <outline>
    <contour>
      <point x="293" y="555" type="line"/>
      <point x="231" y="483" type="line"/>
      <point x="48" y="574" type="line"/>
      <point x="139" y="667" type="line"/>
    </contour>
  </outline>
</glyph>
<glyph name="a" format="1">
  <advance width="374"/>
  <unicode hex="0061"/>
  <outline>
    <contour>
      <point x="354" y="14" type="curve"/>
      <point x="306" y="3"/>
      <point x="284" y="-2"/>
      <point x="238" y="-23" type="curve"/>
      <point x="228" y="4"/>
      <point x="225" y="22"/>
      <point x="223" y="38" type="curve"/>
      <point x="198" y="19"/>
      <point x="157" y="-3"/>
      <point x="125" y="-3" type="curve" smooth="yes"/>
      <point x="82" y="-3"/>
      <point x="9" y="60"/>
      <point x="9" y="142" type="curve" smooth="yes"/>
      <point x="9" y="184"/>
      <point x="16" y="235"/>
      <point x="71" y="259" type="curve" smooth="yes"/>
      <point x="122" y="281"/>
      <point x="186" y="299"/>
      <point x="216" y="307" type="curve"/>
      <point x="217" y="327"/>
      <point x="212" y="339"/>
      <point x="204" y="343" type="curve" smooth="yes"/>
      <point x="184" y="352"/>
      <point x="153" y="355"/>
      <point x="88" y="355" type="curve"/>
      <point x="88" y="355"/>
      <point x="96" y="416"/>
      <point x="94" y="463" type="curve"/>
      <point x="184" y="453"/>
      <point x="233" y="446"/>
      <point x="290" y="424" type="curve" smooth="yes"/>
      <point x="325" y="411"/>
      <point x="344" y="367"/>
      <point x="344" y="325" type="curve" smooth="yes"/>
      <point x="344" y="319"/>
      <point x="345" y="194"/>
      <point x="345" y="110" type="curve" smooth="yes"/>
      <point x="345" y="78"/>
      <point x="349" y="42"/>
    </contour>
    <contour>
      <point x="219" y="215" type="curve"/>
      <point x="204" y="210"/>
      <point x="173" y="202"/>
      <point x="165" y="199" type="curve" smooth="yes"/>
      <point x="140" y="189"/>
      <point x="129" y="167"/>
      <point x="129" y="149" type="curve" smooth="yes"/>
      <point x="129" y="126"/>
      <point x="141" y="105"/>
      <point x="161" y="105" type="curve" smooth="yes"/>
      <point x="179" y="105"/>
      <point x="208" y="119"/>
      <point x="218" y="131" type="curve"/>
      <point x="219" y="140"/>
      <point x="219" y="195"/>
    </contour>
  </outline>
</glyph>
<glyph name="b" format="1">
  <advance width="403"/>
  <unicode hex="0062"/>
  <outline>
    <contour>
      <point x="382" y="240" type="curve" smooth="yes"/>
      <point x="382" y="61"/>
      <point x="292" y="34"/>
      <point x="229" y="34" type="curve" smooth="yes"/>
      <point x="214" y="34"/>
      <point x="172" y="49"/>
      <point x="158" y="61" type="curve"/>
      <point x="159" y="49"/>
      <point x="158" y="11"/>
      <point x="158" y="11" type="curve"/>
      <point x="158" y="11"/>
      <point x="84" y="7"/>
      <point x="27" y="-5" type="curve"/>
      <point x="29" y="71"/>
      <point x="29" y="253"/>
      <point x="29" y="266" type="curve" smooth="yes"/>
      <point x="29" y="322"/>
      <point x="27" y="490"/>
      <point x="27" y="526" type="curve" smooth="yes"/>
      <point x="27" y="534"/>
      <point x="25" y="615"/>
      <point x="20" y="650" type="curve"/>
      <point x="67" y="656"/>
      <point x="102" y="659"/>
      <point x="161" y="667" type="curve"/>
      <point x="157" y="596"/>
      <point x="155" y="510"/>
      <point x="155" y="453" type="curve"/>
      <point x="184" y="465"/>
      <point x="217" y="472"/>
      <point x="233" y="472" type="curve" smooth="yes"/>
      <point x="271" y="472"/>
      <point x="302" y="460"/>
      <point x="336" y="411" type="curve" smooth="yes"/>
      <point x="362" y="374"/>
      <point x="382" y="318"/>
    </contour>
    <contour>
      <point x="251" y="230" type="curve" smooth="yes"/>
      <point x="251" y="294"/>
      <point x="245" y="366"/>
      <point x="212" y="366" type="curve" smooth="yes"/>
      <point x="201" y="366"/>
      <point x="174" y="355"/>
      <point x="163" y="347" type="curve"/>
      <point x="162" y="313"/>
      <point x="160" y="192"/>
      <point x="161" y="156" type="curve"/>
      <point x="177" y="148"/>
      <point x="194" y="142"/>
      <point x="215" y="142" type="curve" smooth="yes"/>
      <point x="240" y="142"/>
      <point x="251" y="157"/>
    </contour>
  </outline>
</glyph>
<glyph name="c" format="1">
  <advance width="347"/>
  <unicode hex="0063"/>
  <outline>
    <contour>
      <point x="328" y="93" type="curve"/>
      <point x="312" y="43"/>
      <point x="305" y="15"/>
      <point x="300" y="-25" type="curve"/>
      <point x="93" y="6"/>
      <point x="17" y="84"/>
      <point x="17" y="231" type="curve" smooth="yes"/>
      <point x="17" y="291"/>
      <point x="33" y="349"/>
      <point x="61" y="382" type="curve" smooth="yes"/>
      <point x="105" y="434"/>
      <point x="150" y="455"/>
      <point x="298" y="473" type="curve"/>
      <point x="313" y="363" type="line"/>
      <point x="271" y="361"/>
      <point x="245" y="359"/>
      <point x="225" y="354" type="curve" smooth="yes"/>
      <point x="179" y="342"/>
      <point x="153" y="307"/>
      <point x="153" y="240" type="curve" smooth="yes"/>
      <point x="153" y="182"/>
      <point x="168" y="119"/>
      <point x="241" y="102" type="curve" smooth="yes"/>
      <point x="271" y="95"/>
      <point x="298" y="93"/>
    </contour>
  </outline>
</glyph>
<glyph name="d" format="1">
  <advance width="395"/>
  <unicode hex="0064"/>
  <outline>
    <contour>
      <point x="371" y="13" type="curve"/>
      <point x="324" y="8"/>
      <point x="307" y="5"/>
      <point x="269" y="-10" type="curve"/>
      <point x="251" y="33" type="line"/>
      <point x="223" y="16"/>
      <point x="180" y="4"/>
      <point x="153" y="4" type="curve" smooth="yes"/>
      <point x="84" y="4"/>
      <point x="16" y="84"/>
      <point x="16" y="216" type="curve" smooth="yes"/>
      <point x="16" y="297"/>
      <point x="38" y="358"/>
      <point x="50" y="380" type="curve" smooth="yes"/>
      <point x="57" y="392"/>
      <point x="125" y="466"/>
      <point x="176" y="466" type="curve" smooth="yes"/>
      <point x="196" y="466"/>
      <point x="226" y="460"/>
      <point x="245" y="453" type="curve"/>
      <point x="243" y="475"/>
      <point x="243" y="501"/>
      <point x="244" y="527" type="curve" smooth="yes"/>
      <point x="245" y="576"/>
      <point x="241" y="652"/>
      <point x="241" y="652" type="curve"/>
      <point x="241" y="652"/>
      <point x="324" y="659"/>
      <point x="370" y="666" type="curve"/>
      <point x="370" y="349" type="line" smooth="yes"/>
      <point x="370" y="332"/>
      <point x="371" y="155"/>
      <point x="371" y="118" type="curve"/>
      <point x="367" y="108"/>
      <point x="364" y="80"/>
    </contour>
    <contour>
      <point x="238" y="127" type="curve"/>
      <point x="239" y="189"/>
      <point x="243" y="302"/>
      <point x="238" y="341" type="curve"/>
      <point x="227" y="349"/>
      <point x="203" y="354"/>
      <point x="189" y="354" type="curve" smooth="yes"/>
      <point x="159" y="354"/>
      <point x="150" y="329"/>
      <point x="150" y="253" type="curve" smooth="yes"/>
      <point x="150" y="181"/>
      <point x="160" y="110"/>
      <point x="198" y="110" type="curve" smooth="yes"/>
      <point x="211" y="110"/>
      <point x="224" y="117"/>
    </contour>
  </outline>
</glyph>
<glyph name="e" format="1">
  <advance width="380"/>
  <unicode hex="0065"/>
  <outline>
    <contour>
      <point x="373" y="65" type="curve"/>
      <point x="345" y="26"/>
      <point x="244" y="-1"/>
      <point x="204" y="-1" type="curve" smooth="yes"/>
      <point x="75" y="-1"/>
      <point x="16" y="97"/>
      <point x="16" y="224" type="curve" smooth="yes"/>
      <point x="16" y="417"/>
      <point x="104" y="453"/>
      <point x="204" y="453" type="curve" smooth="yes"/>
      <point x="300" y="453"/>
      <point x="352" y="354"/>
      <point x="360" y="199" type="curve"/>
      <point x="271" y="192"/>
      <point x="185" y="190"/>
      <point x="143" y="188" type="curve"/>
      <point x="141" y="142"/>
      <point x="175" y="108"/>
      <point x="222" y="108" type="curve" smooth="yes"/>
      <point x="237" y="108"/>
      <point x="279" y="115"/>
      <point x="337" y="142" type="curve"/>
      <point x="347" y="112"/>
      <point x="357" y="93"/>
    </contour>
    <contour>
      <point x="233" y="278" type="curve"/>
      <point x="231" y="315"/>
      <point x="219" y="360"/>
      <point x="189" y="360" type="curve" smooth="yes"/>
      <point x="161" y="360"/>
      <point x="136" y="318"/>
      <point x="140" y="274" type="curve"/>
      <point x="152" y="273"/>
      <point x="172" y="273"/>
      <point x="178" y="274" type="curve" smooth="yes"/>
      <point x="190" y="275"/>
      <point x="219" y="277"/>
    </contour>
  </outline>
</glyph>
<glyph name="f" format="1">
  <advance width="279"/>
  <unicode hex="0066"/>
  <outline>
    <contour>
      <point x="285" y="568" type="curve"/>
      <point x="227" y="563"/>
      <point x="209" y="554"/>
      <point x="197" y="539" type="curve" smooth="yes"/>
      <point x="192" y="532"/>
      <point x="188" y="508"/>
      <point x="189" y="490" type="curve" smooth="yes"/>
      <point x="190" y="474"/>
      <point x="190" y="463"/>
      <point x="190" y="448" type="curve"/>
      <point x="206" y="447"/>
      <point x="229" y="446"/>
      <point x="256" y="449" type="curve"/>
      <point x="258" y="341" type="line"/>
      <point x="258" y="341"/>
      <point x="211" y="348"/>
      <point x="195" y="348" type="curve"/>
      <point x="193" y="252" type="line" smooth="yes"/>
      <point x="192" y="206"/>
      <point x="195" y="-5"/>
      <point x="195" y="-5" type="curve"/>
      <point x="138" y="5"/>
      <point x="102" y="7"/>
      <point x="52" y="13" type="curve"/>
      <point x="55" y="55"/>
      <point x="56" y="114"/>
      <point x="59" y="154" type="curve" smooth="yes"/>
      <point x="61" y="184"/>
      <point x="61" y="222"/>
      <point x="61" y="232" type="curve" smooth="yes"/>
      <point x="61" y="343" type="line"/>
      <point x="17" y="347" type="line"/>
      <point x="-1" y="454" type="line"/>
      <point x="61" y="450" type="line"/>
      <point x="61" y="483"/>
      <point x="58" y="543"/>
      <point x="58" y="552" type="curve" smooth="yes"/>
      <point x="58" y="582"/>
      <point x="69" y="650"/>
      <point x="256" y="674" type="curve"/>
      <point x="263" y="633"/>
      <point x="269" y="612"/>
    </contour>
  </outline>
</glyph>
<glyph name="g" format="1">
  <advance width="392"/>
  <unicode hex="0067"/>
  <outline>
    <contour>
      <point x="364" y="192" type="line" smooth="yes"/>
      <point x="364" y="113"/>
      <point x="365" y="37"/>
      <point x="353" y="-39" type="curve" smooth="yes"/>
      <point x="348" y="-70"/>
      <point x="324" y="-109"/>
      <point x="298" y="-130" type="curve" smooth="yes"/>
      <point x="264" y="-159"/>
      <point x="186" y="-201"/>
      <point x="150" y="-201" type="curve"/>
      <point x="131" y="-163"/>
      <point x="97" y="-116"/>
      <point x="97" y="-116" type="curve"/>
      <point x="170" y="-92"/>
      <point x="200" y="-67"/>
      <point x="220" y="-47" type="curve" smooth="yes"/>
      <point x="229" y="-38"/>
      <point x="240" y="-12"/>
      <point x="238" y="2" type="curve"/>
      <point x="220" y="-13"/>
      <point x="174" y="-22"/>
      <point x="157" y="-23" type="curve" smooth="yes"/>
      <point x="117" y="-26"/>
      <point x="98" y="-17"/>
      <point x="64" y="31" type="curve" smooth="yes"/>
      <point x="35" y="71"/>
      <point x="20" y="118"/>
      <point x="20" y="195" type="curve" smooth="yes"/>
      <point x="20" y="359"/>
      <point x="65" y="444"/>
      <point x="154" y="444" type="curve" smooth="yes"/>
      <point x="170" y="444"/>
      <point x="224" y="434"/>
      <point x="247" y="427" type="curve"/>
      <point x="246" y="442"/>
      <point x="246" y="491"/>
      <point x="246" y="491" type="curve"/>
      <point x="246" y="491"/>
      <point x="321" y="486"/>
      <point x="364" y="487" type="curve"/>
    </contour>
    <contour>
      <point x="239" y="224" type="curve" smooth="yes"/>
      <point x="239" y="252"/>
      <point x="238" y="301"/>
      <point x="237" y="323" type="curve"/>
      <point x="230" y="326"/>
      <point x="210" y="328"/>
      <point x="203" y="328" type="curve" smooth="yes"/>
      <point x="167" y="328"/>
      <point x="153" y="306"/>
      <point x="153" y="243" type="curve" smooth="yes"/>
      <point x="153" y="127"/>
      <point x="162" y="84"/>
      <point x="186" y="84" type="curve" smooth="yes"/>
      <point x="199" y="84"/>
      <point x="224" y="87"/>
      <point x="236" y="101" type="curve"/>
      <point x="239" y="123"/>
      <point x="239" y="187"/>
    </contour>
  </outline>
</glyph>
<glyph name="h" format="1">
  <advance width="393"/>
  <unicode hex="0068"/>
  <outline>
    <contour>
      <point x="370" y="312" type="curve" smooth="yes"/>
      <point x="370" y="305"/>
      <point x="371" y="137"/>
      <point x="368" y="105" type="curve" smooth="yes"/>
      <point x="366" y="87"/>
      <point x="365" y="34"/>
      <point x="366" y="-14" type="curve"/>
      <point x="304" y="-1"/>
      <point x="274" y="2"/>
      <point x="231" y="7" type="curve"/>
      <point x="232" y="48"/>
      <point x="233" y="167"/>
      <point x="235" y="192" type="curve" smooth="yes"/>
      <point x="236" y="200"/>
      <point x="234" y="275"/>
      <point x="231" y="301" type="curve" smooth="yes"/>
      <point x="230" y="310"/>
      <point x="214" y="316"/>
      <point x="198" y="314" type="curve" smooth="yes"/>
      <point x="179" y="312"/>
      <point x="166" y="306"/>
      <point x="157" y="302" type="curve"/>
      <point x="155" y="232"/>
      <point x="151" y="51"/>
      <point x="159" y="-16" type="curve"/>
      <point x="93" y="-8"/>
      <point x="66" y="-8"/>
      <point x="25" y="-7" type="curve"/>
      <point x="27" y="34"/>
      <point x="24" y="117"/>
      <point x="26" y="167" type="curve" smooth="yes"/>
      <point x="28" y="227"/>
      <point x="26" y="366"/>
      <point x="26" y="380" type="curve" smooth="yes"/>
      <point x="26" y="428"/>
      <point x="26" y="558"/>
      <point x="29" y="677" type="curve"/>
      <point x="70" y="672"/>
      <point x="122" y="671"/>
      <point x="161" y="667" type="curve"/>
      <point x="161" y="638"/>
      <point x="157" y="485"/>
      <point x="160" y="406" type="curve"/>
      <point x="183" y="416"/>
      <point x="239" y="425"/>
      <point x="265" y="425" type="curve" smooth="yes"/>
      <point x="281" y="425"/>
      <point x="308" y="418"/>
      <point x="327" y="407" type="curve" smooth="yes"/>
      <point x="341" y="399"/>
      <point x="370" y="363"/>
    </contour>
  </outline>
</glyph>
<glyph name="i" format="1">
  <advance width="183"/>
  <unicode hex="0069"/>
  <outline>
    <contour>
      <point x="174" y="603" type="curve" smooth="yes"/>
      <point x="174" y="569"/>
      <point x="135" y="535"/>
      <point x="93" y="535" type="curve" smooth="yes"/>
      <point x="51" y="535"/>
      <point x="14" y="566"/>
      <point x="14" y="603" type="curve" smooth="yes"/>
      <point x="14" y="633"/>
      <point x="52" y="669"/>
      <point x="93" y="669" type="curve" smooth="yes"/>
      <point x="139" y="669"/>
      <point x="174" y="644"/>
    </contour>
    <contour>
      <point x="161" y="9" type="curve"/>
      <point x="123" y="7"/>
      <point x="73" y="1"/>
      <point x="25" y="-10" type="curve"/>
      <point x="29" y="80"/>
      <point x="27" y="237"/>
      <point x="27" y="247" type="curve" smooth="yes"/>
      <point x="27" y="259"/>
      <point x="21" y="416"/>
      <point x="21" y="464" type="curve"/>
      <point x="63" y="459"/>
      <point x="91" y="459"/>
      <point x="159" y="461" type="curve"/>
      <point x="155" y="430"/>
      <point x="155" y="396"/>
      <point x="154" y="373" type="curve" smooth="yes"/>
      <point x="153" y="358"/>
      <point x="152" y="313"/>
      <point x="152" y="281" type="curve" smooth="yes"/>
      <point x="152" y="259"/>
      <point x="152" y="196"/>
      <point x="154" y="141" type="curve" smooth="yes"/>
      <point x="156" y="90"/>
      <point x="156" y="48"/>
    </contour>
  </outline>
</glyph>
<glyph name="j" format="1">
  <advance width="181"/>
  <unicode hex="006A"/>
  <outline>
    <contour>
      <point x="161" y="619" type="curve" smooth="yes"/>
      <point x="161" y="586"/>
      <point x="126" y="554"/>
      <point x="88" y="554" type="curve" smooth="yes"/>
      <point x="47" y="554"/>
      <point x="14" y="583"/>
      <point x="14" y="618" type="curve" smooth="yes"/>
      <point x="14" y="647"/>
      <point x="48" y="682"/>
      <point x="88" y="682" type="curve" smooth="yes"/>
      <point x="128" y="682"/>
      <point x="161" y="658"/>
    </contour>
    <contour>
      <point x="160" y="484" type="curve"/>
      <point x="154" y="437"/>
      <point x="156" y="371"/>
      <point x="155" y="350" type="curve" smooth="yes"/>
      <point x="154" y="324"/>
      <point x="153" y="106"/>
      <point x="153" y="87" type="curve" smooth="yes"/>
      <point x="153" y="-67"/>
      <point x="95" y="-124"/>
      <point x="23" y="-178" type="curve"/>
      <point x="-11" y="-145"/>
      <point x="-24" y="-131"/>
      <point x="-63" y="-105" type="curve"/>
      <point x="-5" y="-63"/>
      <point x="29" y="5"/>
      <point x="26" y="56" type="curve" smooth="yes"/>
      <point x="25" y="75"/>
      <point x="27" y="150"/>
      <point x="26" y="176" type="curve" smooth="yes"/>
      <point x="23" y="254"/>
      <point x="24" y="431"/>
      <point x="24" y="487" type="curve"/>
      <point x="63" y="482"/>
      <point x="121" y="480"/>
    </contour>
  </outline>
</glyph>
<glyph name="k" format="1">
  <advance width="388"/>
  <unicode hex="006B"/>
  <outline>
    <contour>
      <point x="394" y="49" type="curve"/>
      <point x="369" y="23"/>
      <point x="303" y="-19"/>
      <point x="291" y="-25" type="curve"/>
      <point x="281" y="-13"/>
      <point x="198" y="113"/>
      <point x="156" y="177" type="curve"/>
      <point x="155" y="176"/>
      <point x="155" y="176"/>
      <point x="154" y="176" type="curve"/>
      <point x="155" y="148"/>
      <point x="155" y="86"/>
      <point x="154" y="65" type="curve" smooth="yes"/>
      <point x="154" y="54"/>
      <point x="155" y="35"/>
      <point x="155" y="-4" type="curve"/>
      <point x="100" y="-6"/>
      <point x="80" y="-2"/>
      <point x="24" y="-13" type="curve"/>
      <point x="24" y="51"/>
      <point x="25" y="231"/>
      <point x="25" y="261" type="curve" smooth="yes"/>
      <point x="25" y="267"/>
      <point x="27" y="484"/>
      <point x="31" y="493" type="curve" smooth="yes"/>
      <point x="34" y="499"/>
      <point x="33" y="637"/>
      <point x="33" y="695" type="curve"/>
      <point x="79" y="685"/>
      <point x="120" y="678"/>
      <point x="159" y="674" type="curve"/>
      <point x="159" y="629"/>
      <point x="157" y="374"/>
      <point x="157" y="353" type="curve" smooth="yes"/>
      <point x="157" y="347"/>
      <point x="156" y="322"/>
      <point x="158" y="312" type="curve"/>
      <point x="169" y="329"/>
      <point x="203" y="379"/>
      <point x="215" y="390" type="curve" smooth="yes"/>
      <point x="217" y="392"/>
      <point x="252" y="448"/>
      <point x="272" y="467" type="curve"/>
      <point x="300" y="450"/>
      <point x="338" y="426"/>
      <point x="372" y="408" type="curve"/>
      <point x="334" y="361"/>
      <point x="284" y="293"/>
      <point x="251" y="248" type="curve"/>
      <point x="291" y="195"/>
      <point x="371" y="69"/>
    </contour>
  </outline>
</glyph>
<glyph name="l" format="1">
  <advance width="197"/>
  <unicode hex="006C"/>
  <outline>
    <contour>
      <point x="164" y="643" type="curve"/>
      <point x="164" y="602"/>
      <point x="163" y="444"/>
      <point x="163" y="414" type="curve" smooth="yes"/>
      <point x="163" y="408"/>
      <point x="161" y="206"/>
      <point x="158" y="189" type="curve" smooth="yes"/>
      <point x="156" y="179"/>
      <point x="155" y="52"/>
      <point x="155" y="-24" type="curve"/>
      <point x="99" y="-4"/>
      <point x="63" y="1"/>
      <point x="32" y="9" type="curve"/>
      <point x="32" y="53"/>
      <point x="34" y="335"/>
      <point x="34" y="356" type="curve" smooth="yes"/>
      <point x="34" y="368"/>
      <point x="33" y="489"/>
      <point x="33" y="502" type="curve" smooth="yes"/>
      <point x="33" y="509"/>
      <point x="40" y="588"/>
      <point x="43" y="600" type="curve"/>
      <point x="43" y="606"/>
      <point x="44" y="623"/>
      <point x="44" y="680" type="curve"/>
      <point x="89" y="665"/>
      <point x="133" y="653"/>
    </contour>
  </outline>
</glyph>
<glyph name="m" format="1">
  <advance width="599"/>
  <unicode hex="006D"/>
  <outline>
    <contour>
      <point x="569" y="22" type="line"/>
      <point x="525" y="18"/>
      <point x="480" y="13"/>
      <point x="433" y="7" type="curve"/>
      <point x="433" y="43"/>
      <point x="434" y="122"/>
      <point x="434" y="124" type="curve" smooth="yes"/>
      <point x="434" y="158"/>
      <point x="434" y="278"/>
      <point x="434" y="300" type="curve" smooth="yes"/>
      <point x="434" y="318"/>
      <point x="427" y="326"/>
      <point x="406" y="326" type="curve" smooth="yes"/>
      <point x="391" y="326"/>
      <point x="374" y="323"/>
      <point x="364" y="319" type="curve"/>
      <point x="365" y="262"/>
      <point x="367" y="58"/>
      <point x="371" y="17" type="curve"/>
      <point x="326" y="17"/>
      <point x="278" y="13"/>
      <point x="227" y="8" type="curve"/>
      <point x="231" y="49"/>
      <point x="230" y="100"/>
      <point x="230" y="105" type="curve" smooth="yes"/>
      <point x="230" y="137"/>
      <point x="229" y="297"/>
      <point x="229" y="319" type="curve" smooth="yes"/>
      <point x="229" y="338"/>
      <point x="216" y="348"/>
      <point x="203" y="348" type="curve" smooth="yes"/>
      <point x="189" y="348"/>
      <point x="168" y="346"/>
      <point x="157" y="342" type="curve"/>
      <point x="157" y="342"/>
      <point x="151" y="100"/>
      <point x="157" y="-12" type="curve"/>
      <point x="103" y="1"/>
      <point x="66" y="5"/>
      <point x="21" y="11" type="curve"/>
      <point x="23" y="67"/>
      <point x="25" y="164"/>
      <point x="25" y="170" type="curve" smooth="yes"/>
      <point x="25" y="462" type="line"/>
      <point x="72" y="454"/>
      <point x="100" y="451"/>
      <point x="146" y="448" type="curve"/>
      <point x="147" y="419" type="line"/>
      <point x="169" y="434"/>
      <point x="219" y="452"/>
      <point x="262" y="452" type="curve" smooth="yes"/>
      <point x="298" y="452"/>
      <point x="320" y="436"/>
      <point x="338" y="406" type="curve" smooth="yes"/>
      <point x="340" y="403"/>
      <point x="342" y="397"/>
      <point x="342" y="397" type="curve"/>
      <point x="357" y="410"/>
      <point x="428" y="434"/>
      <point x="478" y="434" type="curve" smooth="yes"/>
      <point x="552" y="434"/>
      <point x="569" y="396"/>
      <point x="569" y="314" type="curve" smooth="yes"/>
    </contour>
  </outline>
</glyph>
<glyph name="n" format="1">
  <advance width="399"/>
  <unicode hex="006E"/>
  <outline>
    <contour>
      <point x="373" y="-2" type="curve"/>
      <point x="314" y="7"/>
      <point x="289" y="10"/>
      <point x="235" y="11" type="curve"/>
      <point x="238" y="75"/>
      <point x="239" y="134"/>
      <point x="239" y="144" type="curve" smooth="yes"/>
      <point x="239" y="183"/>
      <point x="237" y="267"/>
      <point x="238" y="296" type="curve" smooth="yes"/>
      <point x="239" y="327"/>
      <point x="231" y="341"/>
      <point x="213" y="341" type="curve" smooth="yes"/>
      <point x="197" y="341"/>
      <point x="177" y="332"/>
      <point x="159" y="323" type="curve"/>
      <point x="161" y="266"/>
      <point x="168" y="53"/>
      <point x="175" y="2" type="curve"/>
      <point x="125" y="-4"/>
      <point x="87" y="-4"/>
      <point x="33" y="-7" type="curve"/>
      <point x="39" y="67"/>
      <point x="24" y="293"/>
      <point x="24" y="314" type="curve" smooth="yes"/>
      <point x="24" y="318"/>
      <point x="19" y="411"/>
      <point x="11" y="453" type="curve"/>
      <point x="64" y="453"/>
      <point x="99" y="456"/>
      <point x="154" y="464" type="curve"/>
      <point x="154" y="417" type="line"/>
      <point x="184" y="436"/>
      <point x="230" y="448"/>
      <point x="269" y="448" type="curve" smooth="yes"/>
      <point x="334" y="448"/>
      <point x="373" y="417"/>
      <point x="373" y="317" type="curve" smooth="yes"/>
      <point x="373" y="275"/>
      <point x="373" y="96"/>
    </contour>
  </outline>
</glyph>
<glyph name="o" format="1">
  <advance width="416"/>
  <unicode hex="006F"/>
  <outline>
    <contour>
      <point x="401" y="261" type="curve" smooth="yes"/>
      <point x="401" y="101"/>
      <point x="302" y="6"/>
      <point x="205" y="6" type="curve" smooth="yes"/>
      <point x="141" y="6"/>
      <point x="82" y="35"/>
      <point x="50" y="93" type="curve" smooth="yes"/>
      <point x="30" y="129"/>
      <point x="15" y="167"/>
      <point x="15" y="226" type="curve" smooth="yes"/>
      <point x="15" y="393"/>
      <point x="105" y="459"/>
      <point x="206" y="459" type="curve" smooth="yes"/>
      <point x="301" y="459"/>
      <point x="401" y="413"/>
    </contour>
    <contour>
      <point x="266" y="235" type="curve" smooth="yes"/>
      <point x="266" y="315"/>
      <point x="229" y="348"/>
      <point x="195" y="348" type="curve" smooth="yes"/>
      <point x="163" y="348"/>
      <point x="145" y="318"/>
      <point x="145" y="244" type="curve" smooth="yes"/>
      <point x="145" y="173"/>
      <point x="177" y="118"/>
      <point x="212" y="118" type="curve" smooth="yes"/>
      <point x="244" y="118"/>
      <point x="266" y="161"/>
    </contour>
  </outline>
</glyph>
<glyph name="p" format="1">
  <advance width="389"/>
  <unicode hex="0070"/>
  <outline>
    <contour>
      <point x="368" y="190" type="curve" smooth="yes"/>
      <point x="368" y="116"/>
      <point x="352" y="65"/>
      <point x="324" y="27" type="curve" smooth="yes"/>
      <point x="290" y="-19"/>
      <point x="256" y="-26"/>
      <point x="222" y="-26" type="curve" smooth="yes"/>
      <point x="212" y="-26"/>
      <point x="172" y="-13"/>
      <point x="154" y="-2" type="curve"/>
      <point x="154" y="-22"/>
      <point x="154" y="-55"/>
      <point x="154" y="-84" type="curve" smooth="yes"/>
      <point x="154" y="-110"/>
      <point x="156" y="-135"/>
      <point x="162" y="-180" type="curve"/>
      <point x="108" y="-182"/>
      <point x="74" y="-185"/>
      <point x="27" y="-196" type="curve"/>
      <point x="24" y="-135"/>
      <point x="27" y="34"/>
      <point x="26" y="187" type="curve" smooth="yes"/>
      <point x="26" y="287"/>
      <point x="24" y="484"/>
      <point x="24" y="484" type="curve"/>
      <point x="80" y="469"/>
      <point x="116" y="461"/>
      <point x="152" y="456" type="curve"/>
      <point x="151" y="444"/>
      <point x="151" y="433"/>
      <point x="150" y="424" type="curve"/>
      <point x="166" y="428"/>
      <point x="219" y="431"/>
      <point x="234" y="431" type="curve" smooth="yes"/>
      <point x="255" y="431"/>
      <point x="268" y="426"/>
      <point x="287" y="418" type="curve" smooth="yes"/>
      <point x="305" y="410"/>
      <point x="321" y="402"/>
      <point x="330" y="390" type="curve" smooth="yes"/>
      <point x="357" y="355"/>
      <point x="368" y="332"/>
    </contour>
    <contour>
      <point x="232" y="188" type="curve" smooth="yes"/>
      <point x="232" y="277"/>
      <point x="227" y="330"/>
      <point x="192" y="330" type="curve" smooth="yes"/>
      <point x="184" y="330"/>
      <point x="161" y="326"/>
      <point x="153" y="324" type="curve"/>
      <point x="152" y="309"/>
      <point x="151" y="266"/>
      <point x="151" y="244" type="curve" smooth="yes"/>
      <point x="151" y="200"/>
      <point x="152" y="121"/>
      <point x="153" y="98" type="curve"/>
      <point x="165" y="88"/>
      <point x="197" y="82"/>
      <point x="206" y="82" type="curve" smooth="yes"/>
      <point x="224" y="82"/>
      <point x="232" y="96"/>
    </contour>
  </outline>
</glyph>
<glyph name="q" format="1">
  <advance width="393"/>
  <unicode hex="0071"/>
  <outline>
    <contour>
      <point x="365" y="-195" type="curve"/>
      <point x="312" y="-186"/>
      <point x="286" y="-183"/>
      <point x="228" y="-179" type="curve"/>
      <point x="236" y="-105"/>
      <point x="237" y="-41"/>
      <point x="238" y="-2" type="curve"/>
      <point x="222" y="-14"/>
      <point x="190" y="-23"/>
      <point x="174" y="-23" type="curve" smooth="yes"/>
      <point x="137" y="-23"/>
      <point x="94" y="6"/>
      <point x="74" y="26" type="curve" smooth="yes"/>
      <point x="39" y="61"/>
      <point x="16" y="120"/>
      <point x="16" y="199" type="curve" smooth="yes"/>
      <point x="16" y="386"/>
      <point x="61" y="433"/>
      <point x="152" y="433" type="curve" smooth="yes"/>
      <point x="166" y="433"/>
      <point x="219" y="425"/>
      <point x="239" y="410" type="curve"/>
      <point x="239" y="423"/>
      <point x="239" y="453"/>
      <point x="239" y="453" type="curve"/>
      <point x="239" y="453"/>
      <point x="311" y="458"/>
      <point x="365" y="472" type="curve"/>
      <point x="365" y="418"/>
      <point x="361" y="129"/>
      <point x="361" y="70" type="curve" smooth="yes"/>
      <point x="361" y="55"/>
      <point x="362" y="-127"/>
    </contour>
    <contour>
      <point x="235" y="304" type="line"/>
      <point x="215" y="322"/>
      <point x="186" y="328"/>
      <point x="173" y="328" type="curve" smooth="yes"/>
      <point x="154" y="328"/>
      <point x="152" y="298"/>
      <point x="152" y="230" type="curve" smooth="yes"/>
      <point x="152" y="152"/>
      <point x="162" y="88"/>
      <point x="201" y="88" type="curve" smooth="yes"/>
      <point x="210" y="88"/>
      <point x="227" y="90"/>
      <point x="232" y="93" type="curve"/>
    </contour>
  </outline>
</glyph>
<glyph name="r" format="1">
  <advance width="299"/>
  <unicode hex="0072"/>
  <outline>
    <contour>
      <point x="298" y="349" type="curve"/>
      <point x="207" y="346"/>
      <point x="174" y="325"/>
      <point x="156" y="298" type="curve"/>
      <point x="154" y="228"/>
      <point x="152" y="86"/>
      <point x="159" y="-4" type="curve"/>
      <point x="101" y="7"/>
      <point x="78" y="8"/>
      <point x="20" y="11" type="curve"/>
      <point x="24" y="72"/>
      <point x="27" y="191"/>
      <point x="27" y="203" type="curve" smooth="yes"/>
      <point x="27" y="224"/>
      <point x="28" y="309"/>
      <point x="28" y="326" type="curve" smooth="yes"/>
      <point x="28" y="370"/>
      <point x="27" y="429"/>
      <point x="25" y="485" type="curve"/>
      <point x="78" y="470"/>
      <point x="159" y="467"/>
      <point x="159" y="467" type="curve"/>
      <point x="159" y="424" type="line"/>
      <point x="179" y="441"/>
      <point x="216" y="457"/>
      <point x="262" y="464" type="curve"/>
      <point x="271" y="420"/>
      <point x="278" y="400"/>
    </contour>
  </outline>
</glyph>
<glyph name="s" format="1">
  <advance width="310"/>
  <unicode hex="0073"/>
  <outline>
    <contour>
      <point x="293" y="126" type="curve" smooth="yes"/>
      <point x="293" y="48"/>
      <point x="224" y="-17"/>
      <point x="64" y="-26" type="curve"/>
      <point x="62" y="17"/>
      <point x="58" y="37"/>
      <point x="46" y="89" type="curve"/>
      <point x="110" y="91"/>
      <point x="161" y="98"/>
      <point x="161" y="125" type="curve" smooth="yes"/>
      <point x="161" y="149"/>
      <point x="143" y="166"/>
      <point x="104" y="191" type="curve" smooth="yes"/>
      <point x="59" y="220"/>
      <point x="12" y="250"/>
      <point x="12" y="321" type="curve" smooth="yes"/>
      <point x="12" y="421"/>
      <point x="110" y="446"/>
      <point x="270" y="453" type="curve"/>
      <point x="270" y="421"/>
      <point x="273" y="379"/>
      <point x="279" y="348" type="curve"/>
      <point x="195" y="347"/>
      <point x="145" y="336"/>
      <point x="145" y="318" type="curve" smooth="yes"/>
      <point x="145" y="312"/>
      <point x="158" y="304"/>
      <point x="171" y="296" type="curve" smooth="yes"/>
      <point x="222" y="265"/>
      <point x="293" y="230"/>
    </contour>
  </outline>
</glyph>
<glyph name="t" format="1">
  <advance width="294"/>
  <unicode hex="0074"/>
  <outline>
    <contour>
      <point x="274" y="67" type="curve"/>
      <point x="274" y="67"/>
      <point x="207" y="6"/>
      <point x="183" y="-30" type="curve"/>
      <point x="70" y="21"/>
      <point x="57" y="72"/>
      <point x="57" y="130" type="curve" smooth="yes"/>
      <point x="57" y="180"/>
      <point x="57" y="211"/>
      <point x="57" y="263" type="curve" smooth="yes"/>
      <point x="57" y="288"/>
      <point x="56" y="321"/>
      <point x="56" y="341" type="curve"/>
      <point x="47" y="340"/>
      <point x="28" y="339"/>
      <point x="12" y="336" type="curve"/>
      <point x="9" y="373"/>
      <point x="4" y="400"/>
      <point x="4" y="433" type="curve"/>
      <point x="39" y="437"/>
      <point x="48" y="435"/>
      <point x="59" y="437" type="curve"/>
      <point x="60" y="442"/>
      <point x="62" y="452"/>
      <point x="62" y="456" type="curve"/>
      <point x="65" y="483"/>
      <point x="65" y="493"/>
      <point x="71" y="537" type="curve"/>
      <point x="71" y="537"/>
      <point x="137" y="554"/>
      <point x="203" y="578" type="curve"/>
      <point x="203" y="535"/>
      <point x="200" y="476"/>
      <point x="198" y="440" type="curve"/>
      <point x="218" y="442"/>
      <point x="243" y="444"/>
      <point x="273" y="451" type="curve"/>
      <point x="273" y="451"/>
      <point x="267" y="391"/>
      <point x="273" y="342" type="curve"/>
      <point x="228" y="345"/>
      <point x="205" y="343"/>
      <point x="189" y="342" type="curve"/>
      <point x="189" y="326"/>
      <point x="188" y="298"/>
      <point x="188" y="295" type="curve" smooth="yes"/>
      <point x="187" y="271"/>
      <point x="185" y="193"/>
      <point x="188" y="136" type="curve" smooth="yes"/>
      <point x="189" y="111"/>
      <point x="222" y="87"/>
    </contour>
  </outline>
</glyph>
<glyph name="u" format="1">
  <advance width="397"/>
  <unicode hex="0075"/>
  <outline>
    <contour>
      <point x="369" y="-15" type="line"/>
      <point x="324" y="-7"/>
      <point x="284" y="-2"/>
      <point x="241" y="-4" type="curve"/>
      <point x="236" y="29" type="line"/>
      <point x="213" y="20"/>
      <point x="128" y="3"/>
      <point x="106" y="3" type="curve" smooth="yes"/>
      <point x="71" y="3"/>
      <point x="48" y="25"/>
      <point x="40" y="52" type="curve" smooth="yes"/>
      <point x="33" y="76"/>
      <point x="32" y="132"/>
      <point x="32" y="161" type="curve" smooth="yes"/>
      <point x="32" y="203"/>
      <point x="30" y="311"/>
      <point x="29" y="330" type="curve" smooth="yes"/>
      <point x="28" y="351"/>
      <point x="25" y="398"/>
      <point x="24" y="432" type="curve"/>
      <point x="84" y="427"/>
      <point x="116" y="427"/>
      <point x="164" y="430" type="curve"/>
      <point x="164" y="377"/>
      <point x="166" y="152"/>
      <point x="166" y="147" type="curve" smooth="yes"/>
      <point x="166" y="124"/>
      <point x="171" y="111"/>
      <point x="185" y="111" type="curve" smooth="yes"/>
      <point x="199" y="111"/>
      <point x="227" y="121"/>
      <point x="236" y="127" type="curve"/>
      <point x="236" y="172"/>
      <point x="237" y="284"/>
      <point x="234" y="341" type="curve" smooth="yes"/>
      <point x="233" y="366"/>
      <point x="234" y="421"/>
      <point x="231" y="449" type="curve"/>
      <point x="273" y="455"/>
      <point x="310" y="461"/>
      <point x="369" y="477" type="curve"/>
    </contour>
  </outline>
</glyph>
<glyph name="v" format="1">
  <advance width="394"/>
  <unicode hex="0076"/>
  <outline>
    <contour>
      <point x="388" y="434" type="curve"/>
      <point x="364" y="382"/>
      <point x="290" y="154"/>
      <point x="283" y="136" type="curve" smooth="yes"/>
      <point x="278" y="124"/>
      <point x="252" y="32"/>
      <point x="249" y="-1" type="curve"/>
      <point x="215" y="-3"/>
      <point x="180" y="-7"/>
      <point x="139" y="-16" type="curve"/>
      <point x="124" y="44"/>
      <point x="17" y="377"/>
      <point x="1" y="431" type="curve"/>
      <point x="46" y="442"/>
      <point x="77" y="452"/>
      <point x="129" y="472" type="curve"/>
      <point x="141" y="416"/>
      <point x="176" y="228"/>
      <point x="185" y="192" type="curve" smooth="yes"/>
      <point x="186" y="186"/>
      <point x="191" y="171"/>
      <point x="191" y="170" type="curve"/>
      <point x="194" y="179"/>
      <point x="209" y="264"/>
      <point x="210" y="267" type="curve" smooth="yes"/>
      <point x="219" y="300"/>
      <point x="245" y="416"/>
      <point x="250" y="459" type="curve"/>
      <point x="300" y="447"/>
      <point x="327" y="440"/>
    </contour>
  </outline>
</glyph>
<glyph name="w" format="1">
  <advance width="561"/>
  <unicode hex="0077"/>
  <outline>
    <contour>
      <point x="560" y="439" type="curve"/>
      <point x="538" y="389"/>
      <point x="472" y="159"/>
      <point x="467" y="145" type="curve" smooth="yes"/>
      <point x="463" y="133"/>
      <point x="442" y="36"/>
      <point x="436" y="-8" type="curve"/>
      <point x="399" y="-9"/>
      <point x="376" y="-11"/>
      <point x="332" y="-14" type="curve"/>
      <point x="323" y="30"/>
      <point x="290" y="145"/>
      <point x="277" y="200" type="curve"/>
      <point x="264" y="149"/>
      <point x="231" y="37"/>
      <point x="229" y="8" type="curve"/>
      <point x="189" y="3"/>
      <point x="173" y="0"/>
      <point x="126" y="-14" type="curve"/>
      <point x="115" y="51"/>
      <point x="22" y="401"/>
      <point x="1" y="446" type="curve"/>
      <point x="51" y="454"/>
      <point x="78" y="463"/>
      <point x="138" y="482" type="curve"/>
      <point x="143" y="431"/>
      <point x="156" y="351"/>
      <point x="161" y="333" type="curve" smooth="yes"/>
      <point x="164" y="324"/>
      <point x="178" y="232"/>
      <point x="184" y="209" type="curve"/>
      <point x="197" y="270"/>
      <point x="229" y="414"/>
      <point x="224" y="439" type="curve"/>
      <point x="252" y="442"/>
      <point x="279" y="446"/>
      <point x="320" y="457" type="curve"/>
      <point x="333" y="417"/>
      <point x="354" y="274"/>
      <point x="368" y="215" type="curve"/>
      <point x="383" y="282"/>
      <point x="423" y="440"/>
      <point x="423" y="466" type="curve"/>
      <point x="457" y="457"/>
      <point x="508" y="446"/>
    </contour>
  </outline>
</glyph>
<glyph name="x" format="1">
  <advance width="400"/>
  <unicode hex="0078"/>
  <outline>
    <contour>
      <point x="391" y="425" type="curve"/>
      <point x="362" y="384"/>
      <point x="335" y="332"/>
      <point x="328" y="320" type="curve" smooth="yes"/>
      <point x="311" y="290"/>
      <point x="291" y="247"/>
      <point x="274" y="217" type="curve"/>
      <point x="295" y="183"/>
      <point x="354" y="86"/>
      <point x="387" y="40" type="curve"/>
      <point x="329" y="27"/>
      <point x="292" y="16"/>
      <point x="243" y="-6" type="curve"/>
      <point x="228" y="36"/>
      <point x="218" y="63"/>
      <point x="211" y="86" type="curve" smooth="yes"/>
      <point x="197" y="131" type="line"/>
      <point x="197" y="131"/>
      <point x="150" y="21"/>
      <point x="137" y="-26" type="curve"/>
      <point x="91" y="-12"/>
      <point x="60" y="-4"/>
      <point x="3" y="5" type="curve"/>
      <point x="36" y="60"/>
      <point x="112" y="181"/>
      <point x="135" y="223" type="curve"/>
      <point x="112" y="262"/>
      <point x="40" y="373"/>
      <point x="15" y="411" type="curve"/>
      <point x="58" y="424"/>
      <point x="110" y="445"/>
      <point x="157" y="463" type="curve"/>
      <point x="166" y="426"/>
      <point x="191" y="359"/>
      <point x="212" y="317" type="curve"/>
      <point x="233" y="362"/>
      <point x="259" y="439"/>
      <point x="269" y="469" type="curve"/>
      <point x="311" y="449"/>
      <point x="338" y="437"/>
    </contour>
  </outline>
</glyph>
<glyph name="y" format="1">
  <advance width="412"/>
  <unicode hex="0079"/>
  <outline>
    <contour>
      <point x="411" y="429" type="curve"/>
      <point x="384" y="360"/>
      <point x="218" y="-122"/>
      <point x="198" y="-190" type="curve"/>
      <point x="146" y="-176"/>
      <point x="136" y="-170"/>
      <point x="70" y="-165" type="curve"/>
      <point x="101" y="-100"/>
      <point x="142" y="20"/>
      <point x="153" y="53" type="curve"/>
      <point x="148" y="70"/>
      <point x="129" y="110"/>
      <point x="123" y="128" type="curve" smooth="yes"/>
      <point x="111" y="164"/>
      <point x="23" y="378"/>
      <point x="1" y="429" type="curve"/>
      <point x="58" y="442"/>
      <point x="83" y="448"/>
      <point x="130" y="471" type="curve"/>
      <point x="157" y="402"/>
      <point x="190" y="252"/>
      <point x="214" y="184" type="curve"/>
      <point x="238" y="261"/>
      <point x="270" y="427"/>
      <point x="277" y="469" type="curve"/>
      <point x="328" y="447"/>
      <point x="359" y="438"/>
    </contour>
  </outline>
</glyph>
<glyph name="z" format="1">
  <advance width="373"/>
  <unicode hex="007A"/>
  <outline>
    <contour>
      <point x="363" y="440" type="curve"/>
      <point x="323" y="385"/>
      <point x="282" y="293"/>
      <point x="276" y="285" type="curve" smooth="yes"/>
      <point x="269" y="274"/>
      <point x="215" y="165"/>
      <point x="185" y="106" type="curve"/>
      <point x="233" y="100"/>
      <point x="310" y="91"/>
      <point x="356" y="91" type="curve"/>
      <point x="341" y="41"/>
      <point x="336" y="15"/>
      <point x="331" y="-20" type="curve"/>
      <point x="280" y="-15"/>
      <point x="188" y="-1"/>
      <point x="142" y="4" type="curve" smooth="yes"/>
      <point x="104" y="8"/>
      <point x="68" y="12"/>
      <point x="2" y="12" type="curve"/>
      <point x="41" y="83"/>
      <point x="133" y="263"/>
      <point x="142" y="280" type="curve" smooth="yes"/>
      <point x="150" y="294"/>
      <point x="164" y="325"/>
      <point x="168" y="340" type="curve"/>
      <point x="148" y="341"/>
      <point x="109" y="342"/>
      <point x="109" y="342" type="curve"/>
      <point x="35" y="349" type="line"/>
      <point x="46" y="393"/>
      <point x="49" y="418"/>
      <point x="49" y="461" type="curve"/>
      <point x="118" y="454"/>
      <point x="266" y="443"/>
    </contour>
  </outline>
</glyph>
<glyph name="braceleft" format="1">
  <advance width="333"/>
  <unicode hex="007B"/>
  <outline>
    <contour>
      <point x="327" y="672" type="curve"/>
      <point x="252" y="635"/>
      <point x="224" y="587"/>
      <point x="224" y="524" type="curve" smooth="yes"/>
      <point x="224" y="497"/>
      <point x="230" y="459"/>
      <point x="242" y="426" type="curve" smooth="yes"/>
      <point x="246" y="414"/>
      <point x="247" y="403"/>
      <point x="247" y="394" type="curve" smooth="yes"/>
      <point x="247" y="361"/>
      <point x="224" y="323"/>
      <point x="177" y="312" type="curve"/>
      <point x="210" y="301"/>
      <point x="220" y="274"/>
      <point x="220" y="250" type="curve" smooth="yes"/>
      <point x="220" y="242"/>
      <point x="219" y="234"/>
      <point x="216" y="225" type="curve" smooth="yes"/>
      <point x="196" y="164"/>
      <point x="187" y="116"/>
      <point x="187" y="79" type="curve" smooth="yes"/>
      <point x="187" y="4"/>
      <point x="225" y="-40"/>
      <point x="320" y="-74" type="curve"/>
      <point x="302" y="-108"/>
      <point x="291" y="-138"/>
      <point x="279" y="-170" type="curve"/>
      <point x="152" y="-133"/>
      <point x="66" y="-65"/>
      <point x="66" y="76" type="curve" smooth="yes"/>
      <point x="66" y="118"/>
      <point x="73" y="159"/>
      <point x="92" y="218" type="curve"/>
      <point x="93" y="220"/>
      <point x="97" y="233"/>
      <point x="97" y="238" type="curve" smooth="yes"/>
      <point x="97" y="258"/>
      <point x="77" y="275"/>
      <point x="8" y="283" type="curve"/>
      <point x="18" y="317"/>
      <point x="21" y="338"/>
      <point x="23" y="373" type="curve"/>
      <point x="87" y="366"/>
      <point x="123" y="371"/>
      <point x="123" y="391" type="curve" smooth="yes"/>
      <point x="123" y="395"/>
      <point x="121" y="401"/>
      <point x="120" y="405" type="curve"/>
      <point x="105" y="448"/>
      <point x="98" y="480"/>
      <point x="98" y="517" type="curve" smooth="yes"/>
      <point x="98" y="646"/>
      <point x="180" y="734"/>
      <point x="299" y="768" type="curve"/>
      <point x="305" y="731"/>
      <point x="316" y="698"/>
    </contour>
  </outline>
</glyph>
<glyph name="bar" format="1">
  <advance width="229"/>
  <unicode hex="007C"/>
  <outline>
    <contour>
      <point x="180" y="702" type="curve"/>
      <point x="166" y="525"/>
      <point x="157" y="31"/>
      <point x="155" y="-169" type="curve"/>
      <point x="115" y="-165"/>
      <point x="83" y="-166"/>
      <point x="48" y="-170" type="curve"/>
      <point x="57" y="22"/>
      <point x="70" y="534"/>
      <point x="65" y="701" type="curve"/>
      <point x="106" y="695"/>
      <point x="137" y="698"/>
    </contour>
  </outline>
</glyph>
<glyph name="braceright" format="1">
  <advance width="333"/>
  <unicode hex="007D"/>
  <outline>
    <contour>
      <point x="318" y="262" type="curve"/>
      <point x="270" y="255"/>
      <point x="245" y="233"/>
      <point x="245" y="217" type="curve" smooth="yes"/>
      <point x="245" y="212"/>
      <point x="249" y="201"/>
      <point x="251" y="196" type="curve" smooth="yes"/>
      <point x="263" y="171"/>
      <point x="270" y="145"/>
      <point x="270" y="120" type="curve" smooth="yes"/>
      <point x="270" y="-1"/>
      <point x="186" y="-118"/>
      <point x="57" y="-168" type="curve"/>
      <point x="37" y="-134"/>
      <point x="24" y="-114"/>
      <point x="-6" y="-78" type="curve"/>
      <point x="101" y="-31"/>
      <point x="150" y="44"/>
      <point x="150" y="112" type="curve" smooth="yes"/>
      <point x="150" y="126"/>
      <point x="146" y="139"/>
      <point x="139" y="153" type="curve" smooth="yes"/>
      <point x="132" y="167"/>
      <point x="122" y="192"/>
      <point x="122" y="215" type="curve" smooth="yes"/>
      <point x="122" y="245"/>
      <point x="136" y="280"/>
      <point x="170" y="294" type="curve"/>
      <point x="124" y="307"/>
      <point x="96" y="341"/>
      <point x="96" y="377" type="curve" smooth="yes"/>
      <point x="96" y="387"/>
      <point x="99" y="400"/>
      <point x="101" y="407" type="curve" smooth="yes"/>
      <point x="111" y="437"/>
      <point x="116" y="464"/>
      <point x="116" y="493" type="curve" smooth="yes"/>
      <point x="116" y="565"/>
      <point x="114" y="641"/>
      <point x="-1" y="660" type="curve"/>
      <point x="22" y="698"/>
      <point x="31" y="719"/>
      <point x="45" y="753" type="curve"/>
      <point x="207" y="722"/>
      <point x="235" y="609"/>
      <point x="235" y="497" type="curve" smooth="yes"/>
      <point x="235" y="456"/>
      <point x="229" y="432"/>
      <point x="224" y="412" type="curve" smooth="yes"/>
      <point x="223" y="407"/>
      <point x="216" y="389"/>
      <point x="216" y="381" type="curve" smooth="yes"/>
      <point x="216" y="366"/>
      <point x="257" y="358"/>
      <point x="318" y="365" type="curve"/>
      <point x="315" y="318"/>
      <point x="315" y="297"/>
    </contour>
  </outline>
</glyph>
<glyph name="asciitilde" format="1">
  <advance width="563"/>
  <unicode hex="007E"/>
  <outline>
    <contour>
      <point x="543" y="379" type="line"/>
      <point x="484" y="269"/>
      <point x="409" y="211"/>
      <point x="333" y="211" type="curve" smooth="yes"/>
      <point x="298" y="211"/>
      <point x="267" y="228"/>
      <point x="241" y="248" type="curve" smooth="yes"/>
      <point x="218" y="265"/>
      <point x="201" y="285"/>
      <point x="183" y="285" type="curve" smooth="yes"/>
      <point x="163" y="285"/>
      <point x="140" y="258"/>
      <point x="112" y="212" type="curve"/>
      <point x="20" y="285" type="line"/>
      <point x="85" y="383"/>
      <point x="142" y="423"/>
      <point x="189" y="423" type="curve" smooth="yes"/>
      <point x="224" y="423"/>
      <point x="255" y="400"/>
      <point x="285" y="375" type="curve" smooth="yes"/>
      <point x="303" y="360"/>
      <point x="321" y="344"/>
      <point x="341" y="344" type="curve" smooth="yes"/>
      <point x="377" y="344"/>
      <point x="416" y="383"/>
      <point x="450" y="450" type="curve"/>
    </contour>
  </outline>
</glyph>
<glyph name="exclamdown" format="1">
  <advance width="203"/>
  <unicode hex="00A1"/>
  <outline>
    <contour>
      <point x="180" y="420" type="curve" smooth="yes"/>
      <point x="180" y="377"/>
      <point x="145" y="349"/>
      <point x="97" y="349" type="curve" smooth="yes"/>
      <point x="52" y="349"/>
      <point x="18" y="379"/>
      <point x="18" y="421" type="curve" smooth="yes"/>
      <point x="18" y="459"/>
      <point x="46" y="493"/>
      <point x="96" y="493" type="curve" smooth="yes"/>
      <point x="140" y="493"/>
      <point x="180" y="462"/>
    </contour>
    <contour>
      <point x="182" y="-162" type="curve"/>
      <point x="140" y="-174"/>
      <point x="105" y="-182"/>
      <point x="30" y="-212" type="curve"/>
      <point x="39" y="-74"/>
      <point x="36" y="200"/>
      <point x="43" y="303" type="curve"/>
      <point x="97" y="285"/>
      <point x="116" y="282"/>
      <point x="161" y="277" type="curve"/>
      <point x="163" y="167"/>
      <point x="170" y="-21"/>
    </contour>
  </outline>
</glyph>
<glyph name="cent" format="1">
  <advance width="347"/>
  <unicode hex="00A2"/>
  <outline>
    <contour>
      <point x="328" y="93" type="curve"/>
      <point x="312" y="43"/>
      <point x="305" y="15"/>
      <point x="300" y="-25" type="curve"/>
      <point x="277" y="-22"/>
      <point x="256" y="-18"/>
      <point x="237" y="-13" type="curve"/>
      <point x="235" y="-108" type="line"/>
      <point x="120" y="-98" type="line"/>
      <point x="125" y="27" type="line"/>
      <point x="48" y="71"/>
      <point x="17" y="137"/>
      <point x="17" y="231" type="curve" smooth="yes"/>
      <point x="17" y="291"/>
      <point x="33" y="349"/>
      <point x="61" y="382" type="curve" smooth="yes"/>
      <point x="79" y="403"/>
      <point x="97" y="419"/>
      <point x="122" y="432" type="curve"/>
      <point x="121" y="556" type="line"/>
      <point x="235" y="553" type="line"/>
      <point x="241" y="465" type="line"/>
      <point x="258" y="468"/>
      <point x="277" y="470"/>
      <point x="298" y="473" type="curve"/>
      <point x="313" y="363" type="line"/>
      <point x="262" y="361"/>
      <point x="231" y="355"/>
      <point x="225" y="354" type="curve"/>
      <point x="179" y="341"/>
      <point x="153" y="307"/>
      <point x="153" y="240" type="curve" smooth="yes"/>
      <point x="153" y="182"/>
      <point x="166" y="119"/>
      <point x="241" y="102" type="curve" smooth="yes"/>
      <point x="254" y="99"/>
      <point x="272" y="93"/>
    </contour>
  </outline>
</glyph>
<glyph name="sterling" format="1">
  <advance width="393"/>
  <unicode hex="00A3"/>
  <outline>
    <contour>
      <point x="405" y="81" type="line"/>
      <point x="344" y="10"/>
      <point x="252" y="-12"/>
      <point x="161" y="-12" type="curve" smooth="yes"/>
      <point x="117" y="-12"/>
      <point x="72" y="-5"/>
      <point x="32" y="3" type="curve"/>
      <point x="17" y="85" type="line"/>
      <point x="79" y="97"/>
      <point x="107" y="140"/>
      <point x="107" y="176" type="curve" smooth="yes"/>
      <point x="107" y="209"/>
      <point x="101" y="247"/>
      <point x="94" y="276" type="curve"/>
      <point x="71" y="276"/>
      <point x="46" y="277"/>
      <point x="3" y="272" type="curve"/>
      <point x="13" y="311"/>
      <point x="19" y="360"/>
      <point x="20" y="370" type="curve"/>
      <point x="72" y="373" type="line"/>
      <point x="64" y="396"/>
      <point x="57" y="424"/>
      <point x="57" y="452" type="curve" smooth="yes"/>
      <point x="57" y="545"/>
      <point x="121" y="670"/>
      <point x="228" y="670" type="curve" smooth="yes"/>
      <point x="268" y="670"/>
      <point x="301" y="657"/>
      <point x="363" y="634" type="curve"/>
      <point x="325" y="525" type="line"/>
      <point x="282" y="545"/>
      <point x="263" y="552"/>
      <point x="242" y="552" type="curve" smooth="yes"/>
      <point x="201" y="552"/>
      <point x="184" y="503"/>
      <point x="184" y="442" type="curve" smooth="yes"/>
      <point x="184" y="421"/>
      <point x="188" y="389"/>
      <point x="193" y="373" type="curve"/>
      <point x="240" y="372"/>
      <point x="291" y="374"/>
      <point x="337" y="377" type="curve"/>
      <point x="322" y="326"/>
      <point x="319" y="306"/>
      <point x="314" y="270" type="curve"/>
      <point x="279" y="275"/>
      <point x="250" y="275"/>
      <point x="225" y="276" type="curve"/>
      <point x="230" y="259"/>
      <point x="235" y="225"/>
      <point x="235" y="203" type="curve" smooth="yes"/>
      <point x="235" y="172"/>
      <point x="224" y="116"/>
      <point x="195" y="92" type="curve"/>
      <point x="230" y="94"/>
      <point x="298" y="115"/>
      <point x="333" y="160" type="curve"/>
    </contour>
  </outline>
</glyph>
<glyph name="yen" format="1">
  <advance width="462"/>
  <unicode hex="00A5"/>
  <outline>
    <contour>
      <point x="460" y="627" type="curve"/>
      <point x="412" y="518"/>
      <point x="336" y="346"/>
      <point x="313" y="287" type="curve"/>
      <point x="313" y="282"/>
      <point x="314" y="244"/>
      <point x="314" y="235" type="curve"/>
      <point x="350" y="235"/>
      <point x="385" y="236"/>
      <point x="426" y="241" type="curve"/>
      <point x="412" y="197"/>
      <point x="406" y="162"/>
      <point x="402" y="122" type="curve"/>
      <point x="363" y="126"/>
      <point x="326" y="128"/>
      <point x="315" y="128" type="curve"/>
      <point x="313" y="78"/>
      <point x="314" y="48"/>
      <point x="315" y="3" type="curve"/>
      <point x="265" y="6"/>
      <point x="220" y="7"/>
      <point x="164" y="7" type="curve"/>
      <point x="169" y="51"/>
      <point x="174" y="87"/>
      <point x="175" y="132" type="curve"/>
      <point x="140" y="133"/>
      <point x="105" y="133"/>
      <point x="61" y="130" type="curve"/>
      <point x="80" y="184"/>
      <point x="86" y="206"/>
      <point x="91" y="244" type="curve"/>
      <point x="127" y="238"/>
      <point x="150" y="238"/>
      <point x="177" y="237" type="curve"/>
      <point x="177" y="274" type="line"/>
      <point x="145" y="349"/>
      <point x="46" y="541"/>
      <point x="1" y="627" type="curve"/>
      <point x="66" y="636"/>
      <point x="100" y="647"/>
      <point x="155" y="673" type="curve"/>
      <point x="170" y="617"/>
      <point x="215" y="486"/>
      <point x="241" y="425" type="curve"/>
      <point x="259" y="481"/>
      <point x="295" y="601"/>
      <point x="309" y="677" type="curve"/>
      <point x="372" y="649"/>
      <point x="401" y="640"/>
    </contour>
  </outline>
</glyph>
<glyph name="section" format="1">
  <advance width="438"/>
  <unicode hex="00A7"/>
  <outline>
    <contour>
      <point x="427" y="286" type="curve" smooth="yes"/>
      <point x="427" y="206"/>
      <point x="386" y="149"/>
      <point x="327" y="102" type="curve"/>
      <point x="350" y="76"/>
      <point x="375" y="49"/>
      <point x="375" y="14" type="curve" smooth="yes"/>
      <point x="375" y="-104"/>
      <point x="298" y="-164"/>
      <point x="73" y="-178" type="curve"/>
      <point x="75" y="-136"/>
      <point x="76" y="-118"/>
      <point x="72" y="-65" type="curve"/>
      <point x="178" y="-64"/>
      <point x="248" y="-40"/>
      <point x="248" y="0" type="curve" smooth="yes"/>
      <point x="248" y="30"/>
      <point x="175" y="48"/>
      <point x="129" y="77" type="curve" smooth="yes"/>
      <point x="67" y="116"/>
      <point x="9" y="164"/>
      <point x="9" y="235" type="curve" smooth="yes"/>
      <point x="9" y="309"/>
      <point x="45" y="357"/>
      <point x="110" y="399" type="curve"/>
      <point x="80" y="429"/>
      <point x="60" y="458"/>
      <point x="60" y="499" type="curve" smooth="yes"/>
      <point x="60" y="603"/>
      <point x="173" y="683"/>
      <point x="372" y="676" type="curve"/>
      <point x="369" y="634"/>
      <point x="368" y="610"/>
      <point x="372" y="567" type="curve"/>
      <point x="266" y="564"/>
      <point x="193" y="550"/>
      <point x="193" y="509" type="curve" smooth="yes"/>
      <point x="193" y="470"/>
      <point x="260" y="454"/>
      <point x="302" y="432" type="curve" smooth="yes"/>
      <point x="365" y="399"/>
      <point x="427" y="360"/>
    </contour>
    <contour>
      <point x="299" y="272" type="curve" smooth="yes"/>
      <point x="299" y="296"/>
      <point x="248" y="328"/>
      <point x="208" y="338" type="curve"/>
      <point x="169" y="321"/>
      <point x="142" y="291"/>
      <point x="142" y="246" type="curve" smooth="yes"/>
      <point x="142" y="211"/>
      <point x="190" y="178"/>
      <point x="232" y="161" type="curve"/>
      <point x="266" y="183"/>
      <point x="299" y="212"/>
    </contour>
  </outline>
</glyph>
<glyph name="dieresis" format="1">
  <advance width="350"/>
  <unicode hex="00A8"/>
  <outline>
    <contour>
      <point x="328" y="584" type="curve" smooth="yes"/>
      <point x="328" y="557"/>
      <point x="303" y="522"/>
      <point x="264" y="522" type="curve" smooth="yes"/>
      <point x="219" y="522"/>
      <point x="191" y="552"/>
      <point x="191" y="581" type="curve" smooth="yes"/>
      <point x="191" y="603"/>
      <point x="213" y="641"/>
      <point x="263" y="641" type="curve" smooth="yes"/>
      <point x="304" y="641"/>
      <point x="328" y="619"/>
    </contour>
    <contour>
      <point x="164" y="597" type="curve" smooth="yes"/>
      <point x="164" y="555"/>
      <point x="129" y="526"/>
      <point x="93" y="526" type="curve" smooth="yes"/>
      <point x="57" y="526"/>
      <point x="28" y="556"/>
      <point x="28" y="592" type="curve" smooth="yes"/>
      <point x="28" y="632"/>
      <point x="63" y="653"/>
      <point x="93" y="653" type="curve" smooth="yes"/>
      <point x="130" y="653"/>
      <point x="164" y="624"/>
    </contour>
  </outline>
</glyph>
<glyph name="copyright" format="1">
  <advance width="653"/>
  <unicode hex="00A9"/>
  <outline>
    <contour>
      <point x="633" y="319" type="curve" smooth="yes"/>
      <point x="633" y="171"/>
      <point x="506" y="-4"/>
      <point x="335" y="-4" type="curve" smooth="yes"/>
      <point x="174" y="-4"/>
      <point x="20" y="152"/>
      <point x="20" y="344" type="curve" smooth="yes"/>
      <point x="20" y="535"/>
      <point x="150" y="681"/>
      <point x="351" y="681" type="curve" smooth="yes"/>
      <point x="499" y="681"/>
      <point x="633" y="539"/>
    </contour>
    <contour>
      <point x="544" y="311" type="curve" smooth="yes"/>
      <point x="544" y="503"/>
      <point x="451" y="607"/>
      <point x="338" y="607" type="curve" smooth="yes"/>
      <point x="188" y="607"/>
      <point x="112" y="478"/>
      <point x="112" y="342" type="curve" smooth="yes"/>
      <point x="112" y="186"/>
      <point x="216" y="71"/>
      <point x="324" y="71" type="curve" smooth="yes"/>
      <point x="445" y="71"/>
      <point x="544" y="145"/>
    </contour>
    <contour>
      <point x="432" y="213" type="curve"/>
      <point x="423" y="183"/>
      <point x="418" y="164"/>
      <point x="414" y="129" type="curve"/>
      <point x="226" y="158"/>
      <point x="178" y="219"/>
      <point x="178" y="341" type="curve" smooth="yes"/>
      <point x="178" y="452"/>
      <point x="217" y="547"/>
      <point x="355" y="547" type="curve" smooth="yes"/>
      <point x="373" y="547"/>
      <point x="393" y="545"/>
      <point x="415" y="541" type="curve"/>
      <point x="411" y="508"/>
      <point x="411" y="489"/>
      <point x="415" y="463" type="curve"/>
      <point x="317" y="465"/>
      <point x="286" y="434"/>
      <point x="286" y="339" type="curve" smooth="yes"/>
      <point x="286" y="270"/>
      <point x="313" y="227"/>
    </contour>
  </outline>
</glyph>
<glyph name="ordfeminine" format="1">
  <advance width="281"/>
  <unicode hex="00AA"/>
  <outline>
    <contour>
      <point x="267" y="345" type="curve"/>
      <point x="231" y="337"/>
      <point x="215" y="333"/>
      <point x="181" y="317" type="curve"/>
      <point x="173" y="339"/>
      <point x="171" y="351"/>
      <point x="170" y="363" type="curve"/>
      <point x="151" y="349"/>
      <point x="119" y="332"/>
      <point x="95" y="332" type="curve" smooth="yes"/>
      <point x="53" y="332"/>
      <point x="8" y="381"/>
      <point x="8" y="441" type="curve" smooth="yes"/>
      <point x="8" y="474"/>
      <point x="13" y="511"/>
      <point x="55" y="529" type="curve" smooth="yes"/>
      <point x="93" y="545"/>
      <point x="142" y="559"/>
      <point x="164" y="565" type="curve"/>
      <point x="165" y="583"/>
      <point x="161" y="589"/>
      <point x="155" y="592" type="curve" smooth="yes"/>
      <point x="140" y="600"/>
      <point x="116" y="601"/>
      <point x="68" y="601" type="curve"/>
      <point x="68" y="601"/>
      <point x="74" y="648"/>
      <point x="72" y="682" type="curve"/>
      <point x="140" y="674"/>
      <point x="191" y="666"/>
      <point x="219" y="654" type="curve" smooth="yes"/>
      <point x="244" y="643"/>
      <point x="260" y="619"/>
      <point x="260" y="578" type="curve" smooth="yes"/>
      <point x="260" y="574"/>
      <point x="260" y="480"/>
      <point x="260" y="417" type="curve" smooth="yes"/>
      <point x="260" y="393"/>
      <point x="263" y="366"/>
    </contour>
    <contour>
      <point x="167" y="498" type="curve"/>
      <point x="156" y="494"/>
      <point x="131" y="486"/>
      <point x="125" y="484" type="curve"/>
      <point x="107" y="476"/>
      <point x="98" y="460"/>
      <point x="98" y="446" type="curve" smooth="yes"/>
      <point x="98" y="429"/>
      <point x="107" y="413"/>
      <point x="122" y="413" type="curve" smooth="yes"/>
      <point x="136" y="413"/>
      <point x="157" y="424"/>
      <point x="165" y="433" type="curve"/>
      <point x="166" y="441"/>
      <point x="167" y="483"/>
    </contour>
  </outline>
</glyph>
<glyph name="guillemotleft" format="1">
  <advance width="472"/>
  <unicode hex="00AB"/>
  <outline>
    <contour>
      <point x="466" y="116" type="curve"/>
      <point x="419" y="100"/>
      <point x="387" y="84"/>
      <point x="350" y="61" type="curve"/>
      <point x="318" y="104"/>
      <point x="255" y="177"/>
      <point x="226" y="200" type="curve"/>
      <point x="226" y="268" type="line"/>
      <point x="244" y="279"/>
      <point x="324" y="364"/>
      <point x="356" y="409" type="curve"/>
      <point x="390" y="378"/>
      <point x="422" y="359"/>
      <point x="466" y="339" type="curve"/>
      <point x="430" y="312"/>
      <point x="382" y="256"/>
      <point x="365" y="233" type="curve"/>
      <point x="381" y="211"/>
      <point x="421" y="160"/>
    </contour>
    <contour>
      <point x="248" y="346" type="curve"/>
      <point x="203" y="301"/>
      <point x="163" y="251"/>
      <point x="147" y="228" type="curve"/>
      <point x="164" y="205"/>
      <point x="216" y="147"/>
      <point x="246" y="122" type="curve"/>
      <point x="204" y="102"/>
      <point x="172" y="83"/>
      <point x="138" y="53" type="curve"/>
      <point x="106" y="97"/>
      <point x="26" y="182"/>
      <point x="8" y="192" type="curve"/>
      <point x="8" y="262" type="line"/>
      <point x="37" y="284"/>
      <point x="100" y="357"/>
      <point x="132" y="401" type="curve"/>
      <point x="169" y="377"/>
      <point x="201" y="361"/>
    </contour>
  </outline>
</glyph>
<glyph name="macron" format="1">
  <advance width="350"/>
  <unicode hex="00AF"/>
  <unicode hex="02C9"/>
  <outline>
    <contour>
      <point x="306" y="611" type="line"/>
      <point x="294" y="506" type="line"/>
      <point x="48" y="499" type="line"/>
      <point x="46" y="602" type="line"/>
    </contour>
  </outline>
</glyph>
<glyph name="degree" format="1">
  <advance width="375"/>
  <unicode hex="00B0"/>
  <outline>
    <contour>
      <point x="361" y="507" type="curve" smooth="yes"/>
      <point x="361" y="417"/>
      <point x="294" y="345"/>
      <point x="195" y="345" type="curve" smooth="yes"/>
      <point x="113" y="345"/>
      <point x="23" y="421"/>
      <point x="23" y="503" type="curve" smooth="yes"/>
      <point x="23" y="604"/>
      <point x="88" y="675"/>
      <point x="162" y="675" type="curve" smooth="yes"/>
      <point x="274" y="675"/>
      <point x="361" y="586"/>
    </contour>
    <contour>
      <point x="261" y="493" type="curve" smooth="yes"/>
      <point x="261" y="541"/>
      <point x="233" y="590"/>
      <point x="179" y="590" type="curve" smooth="yes"/>
      <point x="151" y="590"/>
      <point x="124" y="560"/>
      <point x="124" y="520" type="curve" smooth="yes"/>
      <point x="124" y="474"/>
      <point x="161" y="432"/>
      <point x="203" y="432" type="curve" smooth="yes"/>
      <point x="248" y="432"/>
      <point x="261" y="464"/>
    </contour>
  </outline>
</glyph>
<glyph name="acute" format="1">
  <advance width="350"/>
  <unicode hex="00B4"/>
  <outline>
    <contour>
      <point x="295" y="578" type="line"/>
      <point x="115" y="488" type="line"/>
      <point x="51" y="553" type="line"/>
      <point x="201" y="667" type="line"/>
    </contour>
  </outline>
</glyph>
<glyph name="paragraph" format="1">
  <advance width="460"/>
  <unicode hex="00B6"/>
  <outline>
    <contour>
      <point x="433" y="13" type="curve"/>
      <point x="398" y="20"/>
      <point x="367" y="26"/>
      <point x="331" y="28" type="curve"/>
      <point x="331" y="169"/>
      <point x="329" y="447"/>
      <point x="323" y="578" type="curve"/>
      <point x="221" y="578"/>
      <point x="130" y="552"/>
      <point x="130" y="477" type="curve" smooth="yes"/>
      <point x="130" y="444"/>
      <point x="166" y="412"/>
      <point x="195" y="400" type="curve"/>
      <point x="193" y="440"/>
      <point x="194" y="480"/>
      <point x="193" y="517" type="curve"/>
      <point x="226" y="513"/>
      <point x="262" y="513"/>
      <point x="300" y="513" type="curve"/>
      <point x="293" y="408"/>
      <point x="290" y="75"/>
      <point x="291" y="-38" type="curve"/>
      <point x="255" y="-35"/>
      <point x="232" y="-35"/>
      <point x="200" y="-36" type="curve"/>
      <point x="202" y="33"/>
      <point x="196" y="166"/>
      <point x="196" y="288" type="curve"/>
      <point x="94" y="316"/>
      <point x="9" y="393"/>
      <point x="9" y="494" type="curve" smooth="yes"/>
      <point x="9" y="612"/>
      <point x="189" y="680"/>
      <point x="366" y="680" type="curve" smooth="yes"/>
      <point x="384" y="680"/>
      <point x="406" y="674"/>
      <point x="426" y="671" type="curve"/>
      <point x="425" y="530"/>
      <point x="423" y="154"/>
    </contour>
  </outline>
</glyph>
<glyph name="periodcentered" format="1">
  <advance width="194"/>
  <unicode hex="00B7"/>
  <unicode hex="2219"/>
  <outline>
    <contour>
      <point x="178" y="327" type="curve" smooth="yes"/>
      <point x="178" y="280"/>
      <point x="147" y="256"/>
      <point x="108" y="256" type="curve" smooth="yes"/>
      <point x="41" y="256"/>
      <point x="16" y="294"/>
      <point x="16" y="327" type="curve" smooth="yes"/>
      <point x="16" y="366"/>
      <point x="46" y="397"/>
      <point x="107" y="397" type="curve" smooth="yes"/>
      <point x="157" y="397"/>
      <point x="178" y="381"/>
    </contour>
  </outline>
</glyph>
<glyph name="cedilla" format="1">
  <advance width="350"/>
  <unicode hex="00B8"/>
  <outline>
    <contour>
      <point x="260" y="-88" type="curve" smooth="yes"/>
      <point x="260" y="-123"/>
      <point x="235" y="-170"/>
      <point x="126" y="-185" type="curve"/>
      <point x="96" y="-127" type="line"/>
      <point x="133" y="-118"/>
      <point x="168" y="-110"/>
      <point x="168" y="-92" type="curve" smooth="yes"/>
      <point x="168" y="-77"/>
      <point x="152" y="-63"/>
      <point x="89" y="-57" type="curve"/>
      <point x="149" y="39" type="line"/>
      <point x="228" y="17" type="line"/>
      <point x="202" y="-32" type="line"/>
      <point x="230" y="-40"/>
      <point x="260" y="-57"/>
    </contour>
  </outline>
</glyph>
<glyph name="ordmasculine" format="1">
  <advance width="312"/>
  <unicode hex="00BA"/>
  <outline>
    <contour>
      <point x="301" y="525" type="curve" smooth="yes"/>
      <point x="301" y="405"/>
      <point x="227" y="334"/>
      <point x="154" y="334" type="curve" smooth="yes"/>
      <point x="106" y="334"/>
      <point x="63" y="355"/>
      <point x="38" y="399" type="curve" smooth="yes"/>
      <point x="28" y="416"/>
      <point x="11" y="454"/>
      <point x="11" y="499" type="curve" smooth="yes"/>
      <point x="11" y="624"/>
      <point x="79" y="673"/>
      <point x="155" y="673" type="curve" smooth="yes"/>
      <point x="226" y="673"/>
      <point x="301" y="639"/>
    </contour>
    <contour>
      <point x="200" y="505" type="curve" smooth="yes"/>
      <point x="200" y="565"/>
      <point x="172" y="590"/>
      <point x="146" y="590" type="curve" smooth="yes"/>
      <point x="122" y="590"/>
      <point x="106" y="568"/>
      <point x="106" y="512" type="curve" smooth="yes"/>
      <point x="106" y="459"/>
      <point x="133" y="418"/>
      <point x="159" y="418" type="curve" smooth="yes"/>
      <point x="183" y="418"/>
      <point x="200" y="450"/>
    </contour>
  </outline>
</glyph>
<glyph name="guillemotright" format="1">
  <advance width="472"/>
  <unicode hex="00BB"/>
  <outline>
    <contour>
      <point x="463" y="200" type="line"/>
      <point x="434" y="177"/>
      <point x="371" y="104"/>
      <point x="340" y="61" type="curve"/>
      <point x="302" y="84"/>
      <point x="270" y="100"/>
      <point x="224" y="116" type="curve"/>
      <point x="268" y="160"/>
      <point x="308" y="211"/>
      <point x="324" y="233" type="curve"/>
      <point x="307" y="256"/>
      <point x="255" y="314"/>
      <point x="226" y="340" type="curve"/>
      <point x="267" y="359"/>
      <point x="299" y="378"/>
      <point x="334" y="409" type="curve"/>
      <point x="365" y="364"/>
      <point x="445" y="279"/>
      <point x="463" y="268" type="curve"/>
    </contour>
    <contour>
      <point x="245" y="192" type="line"/>
      <point x="227" y="182"/>
      <point x="147" y="97"/>
      <point x="116" y="53" type="curve"/>
      <point x="81" y="83"/>
      <point x="49" y="102"/>
      <point x="5" y="123" type="curve"/>
      <point x="41" y="150"/>
      <point x="89" y="205"/>
      <point x="106" y="228" type="curve"/>
      <point x="90" y="251"/>
      <point x="47" y="305"/>
      <point x="4" y="346" type="curve"/>
      <point x="52" y="361"/>
      <point x="84" y="377"/>
      <point x="122" y="401" type="curve"/>
      <point x="153" y="357"/>
      <point x="216" y="284"/>
      <point x="245" y="262" type="curve"/>
    </contour>
  </outline>
</glyph>
<glyph name="questiondown" format="1">
  <advance width="295"/>
  <unicode hex="00BF"/>
  <outline>
    <contour>
      <point x="249" y="392" type="curve" smooth="yes"/>
      <point x="249" y="348"/>
      <point x="213" y="320"/>
      <point x="167" y="320" type="curve" smooth="yes"/>
      <point x="122" y="320"/>
      <point x="88" y="350"/>
      <point x="88" y="393" type="curve" smooth="yes"/>
      <point x="88" y="431"/>
      <point x="115" y="466"/>
      <point x="165" y="466" type="curve" smooth="yes"/>
      <point x="211" y="466"/>
      <point x="249" y="435"/>
    </contour>
    <contour>
      <point x="306" y="-94" type="curve"/>
      <point x="281" y="-138"/>
      <point x="270" y="-171"/>
      <point x="254" y="-209" type="curve"/>
      <point x="83" y="-178"/>
      <point x="3" y="-128"/>
      <point x="3" y="-51" type="curve" smooth="yes"/>
      <point x="3" y="8"/>
      <point x="43" y="82"/>
      <point x="122" y="182" type="curve"/>
      <point x="99" y="255" type="line"/>
      <point x="221" y="285" type="line"/>
      <point x="258" y="170" type="line"/>
      <point x="194" y="91"/>
      <point x="151" y="36"/>
      <point x="151" y="-2" type="curve" smooth="yes"/>
      <point x="151" y="-48"/>
      <point x="206" y="-77"/>
    </contour>
  </outline>
</glyph>
<glyph name="Aring" format="1">
  <advance width="452"/>
  <unicode hex="00C5"/>
  <outline>
    <contour>
      <point x="452" y="15" type="curve"/>
      <point x="410" y="8"/>
      <point x="362" y="-3"/>
      <point x="314" y="-16" type="curve"/>
      <point x="306" y="36"/>
      <point x="294" y="93"/>
      <point x="287" y="128" type="curve"/>
      <point x="286" y="131"/>
      <point x="284" y="137"/>
      <point x="284" y="140" type="curve"/>
      <point x="259" y="138"/>
      <point x="184" y="136"/>
      <point x="160" y="135" type="curve"/>
      <point x="153" y="98"/>
      <point x="139" y="26"/>
      <point x="134" y="-17" type="curve"/>
      <point x="80" y="5"/>
      <point x="42" y="20"/>
      <point x="0" y="30" type="curve"/>
      <point x="14" y="83"/>
      <point x="93" y="362"/>
      <point x="125" y="560" type="curve" smooth="yes"/>
      <point x="130" y="591"/>
      <point x="138" y="634"/>
      <point x="138" y="663" type="curve"/>
      <point x="175" y="667"/>
      <point x="233" y="670"/>
      <point x="272" y="676" type="curve"/>
      <point x="282" y="629"/>
      <point x="437" y="74"/>
    </contour>
    <contour>
      <point x="262" y="247" type="curve"/>
      <point x="257" y="270"/>
      <point x="221" y="435"/>
      <point x="214" y="466" type="curve"/>
      <point x="208" y="435"/>
      <point x="184" y="268"/>
      <point x="180" y="246" type="curve"/>
      <point x="191" y="247"/>
      <point x="251" y="247"/>
    </contour>
    <contour>
      <point x="319" y="801" type="curve" smooth="yes"/>
      <point x="319" y="749"/>
      <point x="265" y="702"/>
      <point x="208" y="702" type="curve" smooth="yes"/>
      <point x="149" y="702"/>
      <point x="96" y="752"/>
      <point x="96" y="811" type="curve" smooth="yes"/>
      <point x="96" y="884"/>
      <point x="161" y="907"/>
      <point x="211" y="907" type="curve" smooth="yes"/>
      <point x="280" y="907"/>
      <point x="319" y="861"/>
    </contour>
    <contour>
      <point x="252" y="813" type="curve" smooth="yes"/>
      <point x="252" y="828"/>
      <point x="234" y="847"/>
      <point x="217" y="847" type="curve" smooth="yes"/>
      <point x="174" y="847"/>
      <point x="161" y="833"/>
      <point x="161" y="806" type="curve" smooth="yes"/>
      <point x="161" y="783"/>
      <point x="181" y="762"/>
      <point x="200" y="762" type="curve" smooth="yes"/>
      <point x="233" y="762"/>
      <point x="252" y="773"/>
    </contour>
  </outline>
</glyph>
<glyph name="AE" format="1">
  <advance width="625"/>
  <unicode hex="00C6"/>
  <outline>
    <contour>
      <point x="611" y="120" type="curve"/>
      <point x="606" y="79"/>
      <point x="599" y="43"/>
      <point x="591" y="-6" type="curve"/>
      <point x="550" y="-1"/>
      <point x="499" y="0"/>
      <point x="461" y="1" type="curve" smooth="yes"/>
      <point x="394" y="4"/>
      <point x="331" y="5"/>
      <point x="268" y="6" type="curve"/>
      <point x="270" y="50"/>
      <point x="271" y="84"/>
      <point x="273" y="126" type="curve"/>
      <point x="249" y="125"/>
      <point x="183" y="134"/>
      <point x="165" y="134" type="curve"/>
      <point x="151" y="96"/>
      <point x="129" y="23"/>
      <point x="120" y="-19" type="curve"/>
      <point x="66" y="5"/>
      <point x="38" y="18"/>
      <point x="-4" y="28" type="curve"/>
      <point x="10" y="81"/>
      <point x="113" y="370"/>
      <point x="167" y="561" type="curve" smooth="yes"/>
      <point x="175" y="590"/>
      <point x="185" y="632"/>
      <point x="185" y="662" type="curve"/>
      <point x="223" y="665"/>
      <point x="322" y="666"/>
      <point x="406" y="666" type="curve" smooth="yes"/>
      <point x="439" y="666"/>
      <point x="550" y="662"/>
      <point x="610" y="662" type="curve"/>
      <point x="596" y="616"/>
      <point x="592" y="584"/>
      <point x="587" y="536" type="curve"/>
      <point x="537" y="543"/>
      <point x="470" y="547"/>
      <point x="435" y="549" type="curve" smooth="yes"/>
      <point x="427" y="550"/>
      <point x="413" y="550"/>
      <point x="405" y="550" type="curve"/>
      <point x="405" y="501"/>
      <point x="406" y="465"/>
      <point x="406" y="416" type="curve"/>
      <point x="418" y="415"/>
      <point x="436" y="415"/>
      <point x="452" y="415" type="curve" smooth="yes"/>
      <point x="460" y="415"/>
      <point x="523" y="416"/>
      <point x="573" y="416" type="curve"/>
      <point x="573" y="375"/>
      <point x="571" y="346"/>
      <point x="571" y="300" type="curve"/>
      <point x="515" y="298"/>
      <point x="478" y="305"/>
      <point x="463" y="306" type="curve" smooth="yes"/>
      <point x="446" y="307"/>
      <point x="421" y="309"/>
      <point x="406" y="312" type="curve"/>
      <point x="403" y="261"/>
      <point x="406" y="180"/>
      <point x="407" y="122" type="curve"/>
      <point x="420" y="122"/>
      <point x="428" y="121"/>
      <point x="442" y="121" type="curve" smooth="yes"/>
      <point x="508" y="119"/>
      <point x="549" y="117"/>
    </contour>
    <contour>
      <point x="280" y="309" type="curve" smooth="yes"/>
      <point x="282" y="411"/>
      <point x="281" y="495"/>
      <point x="280" y="560" type="curve"/>
      <point x="276" y="547"/>
      <point x="258" y="482"/>
      <point x="253" y="461" type="curve" smooth="yes"/>
      <point x="240" y="405"/>
      <point x="216" y="312"/>
      <point x="203" y="244" type="curve"/>
      <point x="214" y="245"/>
      <point x="267" y="245"/>
      <point x="279" y="246" type="curve"/>
      <point x="279" y="262"/>
      <point x="279" y="288"/>
    </contour>
  </outline>
</glyph>
<glyph name="Ccedilla" format="1">
  <advance width="364"/>
  <unicode hex="00C7"/>
  <outline>
    <contour>
      <point x="345" y="113" type="curve"/>
      <point x="334" y="65"/>
      <point x="329" y="40"/>
      <point x="324" y="-7" type="curve"/>
      <point x="296" y="0"/>
      <point x="270" y="8"/>
      <point x="247" y="16" type="curve"/>
      <point x="232" y="-12" type="line"/>
      <point x="260" y="-20"/>
      <point x="290" y="-37"/>
      <point x="290" y="-68" type="curve" smooth="yes"/>
      <point x="290" y="-103"/>
      <point x="265" y="-150"/>
      <point x="156" y="-165" type="curve"/>
      <point x="126" y="-107" type="line"/>
      <point x="163" y="-98"/>
      <point x="198" y="-91"/>
      <point x="198" y="-72" type="curve" smooth="yes"/>
      <point x="198" y="-57"/>
      <point x="182" y="-43"/>
      <point x="119" y="-37" type="curve"/>
      <point x="172" y="47" type="line"/>
      <point x="54" y="107"/>
      <point x="20" y="195"/>
      <point x="20" y="348" type="curve" smooth="yes"/>
      <point x="20" y="539"/>
      <point x="144" y="695"/>
      <point x="335" y="668" type="curve"/>
      <point x="333" y="629"/>
      <point x="333" y="599"/>
      <point x="336" y="564" type="curve"/>
      <point x="244" y="557"/>
      <point x="163" y="520"/>
      <point x="163" y="347" type="curve" smooth="yes"/>
      <point x="163" y="200"/>
      <point x="205" y="146"/>
    </contour>
  </outline>
</glyph>
<glyph name="Eth" format="1">
  <advance width="488"/>
  <unicode hex="00D0"/>
  <outline>
    <contour>
      <point x="468" y="379" type="curve" smooth="yes"/>
      <point x="468" y="139"/>
      <point x="319" y="-2"/>
      <point x="180" y="-2" type="curve" smooth="yes"/>
      <point x="140" y="-2"/>
      <point x="91" y="6"/>
      <point x="49" y="17" type="curve"/>
      <point x="56" y="56"/>
      <point x="59" y="178"/>
      <point x="60" y="274" type="curve"/>
      <point x="46" y="275"/>
      <point x="32" y="275"/>
      <point x="19" y="275" type="curve"/>
      <point x="19" y="301"/>
      <point x="16" y="353"/>
      <point x="11" y="387" type="curve"/>
      <point x="26" y="386"/>
      <point x="43" y="386"/>
      <point x="61" y="386" type="curve"/>
      <point x="61" y="388"/>
      <point x="61" y="390"/>
      <point x="61" y="392" type="curve" smooth="yes"/>
      <point x="61" y="489"/>
      <point x="58" y="607"/>
      <point x="53" y="661" type="curve"/>
      <point x="105" y="674"/>
      <point x="143" y="675"/>
      <point x="173" y="675" type="curve" smooth="yes"/>
      <point x="345" y="675"/>
      <point x="468" y="596"/>
    </contour>
    <contour>
      <point x="325" y="376" type="curve" smooth="yes"/>
      <point x="325" y="528"/>
      <point x="266" y="551"/>
      <point x="197" y="557" type="curve"/>
      <point x="197" y="505"/>
      <point x="197" y="446"/>
      <point x="196" y="387" type="curve"/>
      <point x="219" y="388"/>
      <point x="240" y="389"/>
      <point x="258" y="391" type="curve"/>
      <point x="246" y="355"/>
      <point x="248" y="303"/>
      <point x="248" y="269" type="curve"/>
      <point x="233" y="270"/>
      <point x="216" y="271"/>
      <point x="196" y="271" type="curve"/>
      <point x="196" y="212"/>
      <point x="197" y="157"/>
      <point x="198" y="115" type="curve"/>
      <point x="279" y="118"/>
      <point x="325" y="252"/>
    </contour>
  </outline>
</glyph>
<glyph name="Oslash" format="1">
  <advance width="492"/>
  <unicode hex="00D8"/>
  <outline>
    <contour>
      <point x="491" y="654" type="curve"/>
      <point x="474" y="624"/>
      <point x="450" y="576"/>
      <point x="435" y="545" type="curve"/>
      <point x="458" y="497"/>
      <point x="472" y="432"/>
      <point x="472" y="346" type="curve" smooth="yes"/>
      <point x="472" y="100"/>
      <point x="326" y="-6"/>
      <point x="236" y="-6" type="curve" smooth="yes"/>
      <point x="212" y="-6"/>
      <point x="188" y="0"/>
      <point x="165" y="12" type="curve"/>
      <point x="149" y="-16"/>
      <point x="130" y="-51"/>
      <point x="123" y="-68" type="curve"/>
      <point x="97" y="-49"/>
      <point x="39" y="-16"/>
      <point x="11" y="-6" type="curve"/>
      <point x="30" y="26"/>
      <point x="56" y="80"/>
      <point x="71" y="109" type="curve"/>
      <point x="40" y="166"/>
      <point x="20" y="244"/>
      <point x="20" y="344" type="curve" smooth="yes"/>
      <point x="20" y="596"/>
      <point x="92" y="670"/>
      <point x="239" y="670" type="curve" smooth="yes"/>
      <point x="274" y="670"/>
      <point x="310" y="663"/>
      <point x="343" y="645" type="curve"/>
      <point x="357" y="672"/>
      <point x="372" y="701"/>
      <point x="379" y="716" type="curve"/>
      <point x="405" y="697"/>
      <point x="463" y="664"/>
    </contour>
    <contour>
      <point x="329" y="343" type="curve" smooth="yes"/>
      <point x="329" y="518"/>
      <point x="280" y="552"/>
      <point x="229" y="552" type="curve" smooth="yes"/>
      <point x="186" y="552"/>
      <point x="164" y="504"/>
      <point x="164" y="349" type="curve" smooth="yes"/>
      <point x="164" y="202"/>
      <point x="196" y="116"/>
      <point x="249" y="116" type="curve" smooth="yes"/>
      <point x="291" y="116"/>
      <point x="329" y="226"/>
    </contour>
  </outline>
</glyph>
<glyph name="Thorn" format="1">
  <advance width="401"/>
  <unicode hex="00DE"/>
  <outline>
    <contour>
      <point x="391" y="345" type="curve" smooth="yes"/>
      <point x="391" y="260"/>
      <point x="300" y="146"/>
      <point x="174" y="129" type="curve"/>
      <point x="174" y="105"/>
      <point x="178" y="67"/>
      <point x="182" y="34" type="curve"/>
      <point x="126" y="14"/>
      <point x="32" y="-2"/>
      <point x="32" y="-2" type="curve"/>
      <point x="32" y="92"/>
      <point x="34" y="184"/>
      <point x="32" y="304" type="curve" smooth="yes"/>
      <point x="30" y="396"/>
      <point x="26" y="523"/>
      <point x="23" y="654" type="curve"/>
      <point x="80" y="658"/>
      <point x="114" y="661"/>
      <point x="173" y="672" type="curve"/>
      <point x="172" y="622"/>
      <point x="171" y="584"/>
      <point x="170" y="553" type="curve"/>
      <point x="306" y="551"/>
      <point x="391" y="509"/>
    </contour>
    <contour>
      <point x="251" y="351" type="curve" smooth="yes"/>
      <point x="251" y="410"/>
      <point x="241" y="439"/>
      <point x="168" y="440" type="curve"/>
      <point x="169" y="415"/>
      <point x="169" y="372"/>
      <point x="170" y="343" type="curve" smooth="yes"/>
      <point x="171" y="320"/>
      <point x="172" y="276"/>
      <point x="174" y="250" type="curve"/>
      <point x="231" y="257"/>
      <point x="251" y="294"/>
    </contour>
  </outline>
</glyph>
<glyph name="germandbls" format="1">
  <advance width="474"/>
  <unicode hex="00DF"/>
  <outline>
    <contour>
      <point x="464" y="138" type="curve" smooth="yes"/>
      <point x="464" y="36"/>
      <point x="388" y="-11"/>
      <point x="246" y="-19" type="curve"/>
      <point x="246" y="26"/>
      <point x="245" y="37"/>
      <point x="229" y="91" type="curve"/>
      <point x="309" y="94"/>
      <point x="335" y="114"/>
      <point x="335" y="138" type="curve" smooth="yes"/>
      <point x="335" y="176"/>
      <point x="321" y="198"/>
      <point x="300" y="219" type="curve" smooth="yes"/>
      <point x="262" y="257"/>
      <point x="233" y="292"/>
      <point x="233" y="358" type="curve" smooth="yes"/>
      <point x="233" y="397"/>
      <point x="248" y="436"/>
      <point x="259" y="465" type="curve" smooth="yes"/>
      <point x="266" y="484"/>
      <point x="268" y="499"/>
      <point x="268" y="530" type="curve" smooth="yes"/>
      <point x="268" y="552"/>
      <point x="257" y="568"/>
      <point x="222" y="568" type="curve" smooth="yes"/>
      <point x="206" y="568"/>
      <point x="193" y="562"/>
      <point x="188" y="544" type="curve" smooth="yes"/>
      <point x="185" y="535"/>
      <point x="187" y="497"/>
      <point x="188" y="487" type="curve" smooth="yes"/>
      <point x="189" y="474"/>
      <point x="192" y="251"/>
      <point x="192" y="251" type="curve" smooth="yes"/>
      <point x="193" y="205"/>
      <point x="196" y="-18"/>
      <point x="196" y="-18" type="curve"/>
      <point x="136" y="2"/>
      <point x="102" y="8"/>
      <point x="52" y="13" type="curve"/>
      <point x="58" y="55"/>
      <point x="60" y="109"/>
      <point x="61" y="151" type="curve" smooth="yes"/>
      <point x="62" y="182"/>
      <point x="63" y="221"/>
      <point x="63" y="231" type="curve" smooth="yes"/>
      <point x="63" y="336" type="line"/>
      <point x="18" y="343" type="line"/>
      <point x="1" y="451" type="line"/>
      <point x="63" y="451" type="line"/>
      <point x="63" y="503"/>
      <point x="59" y="546"/>
      <point x="59" y="555" type="curve" smooth="yes"/>
      <point x="59" y="623"/>
      <point x="126" y="672"/>
      <point x="219" y="672" type="curve" smooth="yes"/>
      <point x="307" y="672"/>
      <point x="390" y="632"/>
      <point x="390" y="524" type="curve" smooth="yes"/>
      <point x="390" y="488"/>
      <point x="380" y="457"/>
      <point x="368" y="429" type="curve" smooth="yes"/>
      <point x="360" y="409"/>
      <point x="353" y="394"/>
      <point x="353" y="373" type="curve" smooth="yes"/>
      <point x="353" y="347"/>
      <point x="376" y="314"/>
      <point x="402" y="288" type="curve" smooth="yes"/>
      <point x="433" y="257"/>
      <point x="464" y="223"/>
    </contour>
  </outline>
</glyph>
<glyph name="ae" format="1">
  <advance width="579"/>
  <unicode hex="00E6"/>
  <outline>
    <contour>
      <point x="572" y="66" type="curve"/>
      <point x="543" y="26"/>
      <point x="439" y="-1"/>
      <point x="399" y="-1" type="curve" smooth="yes"/>
      <point x="350" y="-1"/>
      <point x="302" y="27"/>
      <point x="279" y="60" type="curve"/>
      <point x="248" y="26"/>
      <point x="182" y="-3"/>
      <point x="129" y="-3" type="curve" smooth="yes"/>
      <point x="85" y="-3"/>
      <point x="10" y="56"/>
      <point x="10" y="137" type="curve" smooth="yes"/>
      <point x="10" y="213"/>
      <point x="25" y="240"/>
      <point x="81" y="265" type="curve" smooth="yes"/>
      <point x="132" y="287"/>
      <point x="195" y="301"/>
      <point x="224" y="309" type="curve"/>
      <point x="224" y="322"/>
      <point x="222" y="338"/>
      <point x="214" y="341" type="curve"/>
      <point x="195" y="351"/>
      <point x="154" y="354"/>
      <point x="89" y="354" type="curve"/>
      <point x="89" y="354"/>
      <point x="97" y="415"/>
      <point x="95" y="463" type="curve"/>
      <point x="185" y="452"/>
      <point x="233" y="447"/>
      <point x="261" y="434" type="curve" smooth="yes"/>
      <point x="269" y="430"/>
      <point x="283" y="423"/>
      <point x="294" y="406" type="curve"/>
      <point x="313" y="432"/>
      <point x="360" y="455"/>
      <point x="401" y="455" type="curve" smooth="yes"/>
      <point x="497" y="455"/>
      <point x="550" y="353"/>
      <point x="558" y="199" type="curve"/>
      <point x="471" y="192"/>
      <point x="381" y="189"/>
      <point x="339" y="187" type="curve"/>
      <point x="341" y="149"/>
      <point x="378" y="110"/>
      <point x="414" y="110" type="curve" smooth="yes"/>
      <point x="432" y="110"/>
      <point x="478" y="120"/>
      <point x="534" y="147" type="curve"/>
      <point x="543" y="117"/>
      <point x="556" y="91"/>
    </contour>
    <contour>
      <point x="428" y="281" type="curve"/>
      <point x="425" y="328"/>
      <point x="407" y="358"/>
      <point x="386" y="358" type="curve" smooth="yes"/>
      <point x="361" y="358"/>
      <point x="334" y="325"/>
      <point x="336" y="275" type="curve"/>
      <point x="349" y="275"/>
      <point x="382" y="276"/>
      <point x="388" y="276" type="curve"/>
      <point x="399" y="277"/>
      <point x="414" y="279"/>
    </contour>
    <contour>
      <point x="237" y="143" type="curve"/>
      <point x="233" y="158"/>
      <point x="228" y="194"/>
      <point x="225" y="214" type="curve"/>
      <point x="209" y="209"/>
      <point x="173" y="200"/>
      <point x="164" y="197" type="curve" smooth="yes"/>
      <point x="145" y="191"/>
      <point x="129" y="175"/>
      <point x="129" y="151" type="curve" smooth="yes"/>
      <point x="129" y="125"/>
      <point x="145" y="108"/>
      <point x="159" y="108" type="curve" smooth="yes"/>
      <point x="179" y="108"/>
      <point x="221" y="125"/>
    </contour>
  </outline>
</glyph>
<glyph name="ccedilla" format="1">
  <advance width="347"/>
  <unicode hex="00E7"/>
  <outline>
    <contour>
      <point x="328" y="93" type="curve"/>
      <point x="312" y="43"/>
      <point x="305" y="15"/>
      <point x="300" y="-25" type="curve"/>
      <point x="269" y="-20"/>
      <point x="241" y="-15"/>
      <point x="215" y="-8" type="curve"/>
      <point x="202" y="-32" type="line"/>
      <point x="230" y="-40"/>
      <point x="260" y="-57"/>
      <point x="260" y="-88" type="curve" smooth="yes"/>
      <point x="260" y="-123"/>
      <point x="235" y="-170"/>
      <point x="126" y="-185" type="curve"/>
      <point x="96" y="-127" type="line"/>
      <point x="133" y="-118"/>
      <point x="168" y="-111"/>
      <point x="168" y="-92" type="curve" smooth="yes"/>
      <point x="168" y="-77"/>
      <point x="152" y="-63"/>
      <point x="89" y="-57" type="curve"/>
      <point x="138" y="21" type="line"/>
      <point x="52" y="64"/>
      <point x="17" y="132"/>
      <point x="17" y="231" type="curve" smooth="yes"/>
      <point x="17" y="291"/>
      <point x="33" y="349"/>
      <point x="61" y="382" type="curve" smooth="yes"/>
      <point x="105" y="434"/>
      <point x="150" y="455"/>
      <point x="298" y="473" type="curve"/>
      <point x="313" y="363" type="line"/>
      <point x="262" y="361"/>
      <point x="231" y="355"/>
      <point x="225" y="354" type="curve"/>
      <point x="179" y="341"/>
      <point x="153" y="307"/>
      <point x="153" y="240" type="curve" smooth="yes"/>
      <point x="153" y="182"/>
      <point x="166" y="119"/>
      <point x="241" y="102" type="curve" smooth="yes"/>
      <point x="254" y="99"/>
      <point x="272" y="93"/>
    </contour>
  </outline>
</glyph>
<glyph name="eth" format="1">
  <advance width="416"/>
  <unicode hex="00F0"/>
  <outline>
    <contour>
      <point x="401" y="265" type="curve" smooth="yes"/>
      <point x="401" y="99"/>
      <point x="302" y="6"/>
      <point x="205" y="6" type="curve" smooth="yes"/>
      <point x="141" y="6"/>
      <point x="75" y="33"/>
      <point x="50" y="93" type="curve" smooth="yes"/>
      <point x="34" y="131"/>
      <point x="15" y="167"/>
      <point x="15" y="226" type="curve" smooth="yes"/>
      <point x="15" y="393"/>
      <point x="106" y="439"/>
      <point x="189" y="439" type="curve" smooth="yes"/>
      <point x="199" y="439"/>
      <point x="229" y="432"/>
      <point x="240" y="425" type="curve"/>
      <point x="231" y="446"/>
      <point x="197" y="486"/>
      <point x="177" y="500" type="curve"/>
      <point x="161" y="487"/>
      <point x="138" y="470"/>
      <point x="120" y="449" type="curve"/>
      <point x="90" y="478"/>
      <point x="77" y="491"/>
      <point x="34" y="512" type="curve"/>
      <point x="70" y="545"/>
      <point x="77" y="552"/>
      <point x="89" y="564" type="curve"/>
      <point x="73" y="573"/>
      <point x="67" y="575"/>
      <point x="28" y="587" type="curve"/>
      <point x="52" y="611"/>
      <point x="79" y="639"/>
      <point x="103" y="672" type="curve"/>
      <point x="145" y="654"/>
      <point x="148" y="652"/>
      <point x="167" y="641" type="curve"/>
      <point x="178" y="652"/>
      <point x="190" y="666"/>
      <point x="206" y="689" type="curve"/>
      <point x="242" y="660"/>
      <point x="268" y="636"/>
      <point x="310" y="606" type="curve"/>
      <point x="286" y="587"/>
      <point x="271" y="577"/>
      <point x="262" y="570" type="curve"/>
      <point x="342" y="498"/>
      <point x="401" y="396"/>
    </contour>
    <contour>
      <point x="266" y="235" type="curve" smooth="yes"/>
      <point x="266" y="311"/>
      <point x="234" y="337"/>
      <point x="198" y="337" type="curve" smooth="yes"/>
      <point x="166" y="337"/>
      <point x="151" y="311"/>
      <point x="151" y="244" type="curve" smooth="yes"/>
      <point x="151" y="173"/>
      <point x="177" y="118"/>
      <point x="212" y="118" type="curve" smooth="yes"/>
      <point x="244" y="118"/>
      <point x="266" y="161"/>
    </contour>
  </outline>
</glyph>
<glyph name="oslash" format="1">
  <advance width="416"/>
  <unicode hex="00F8"/>
  <outline>
    <contour>
      <point x="401" y="261" type="curve" smooth="yes"/>
      <point x="401" y="101"/>
      <point x="302" y="6"/>
      <point x="205" y="6" type="curve" smooth="yes"/>
      <point x="190" y="6"/>
      <point x="174" y="8"/>
      <point x="159" y="11" type="curve"/>
      <point x="143" y="-19"/>
      <point x="123" y="-56"/>
      <point x="115" y="-74" type="curve"/>
      <point x="89" y="-55"/>
      <point x="43" y="-30"/>
      <point x="15" y="-20" type="curve"/>
      <point x="29" y="4"/>
      <point x="48" y="41"/>
      <point x="62" y="70" type="curve"/>
      <point x="58" y="77"/>
      <point x="53" y="85"/>
      <point x="50" y="93" type="curve" smooth="yes"/>
      <point x="34" y="131"/>
      <point x="15" y="167"/>
      <point x="15" y="226" type="curve" smooth="yes"/>
      <point x="15" y="393"/>
      <point x="105" y="459"/>
      <point x="206" y="459" type="curve" smooth="yes"/>
      <point x="225" y="459"/>
      <point x="244" y="457"/>
      <point x="262" y="453" type="curve"/>
      <point x="277" y="481"/>
      <point x="294" y="512"/>
      <point x="301" y="528" type="curve"/>
      <point x="327" y="509"/>
      <point x="373" y="484"/>
      <point x="401" y="474" type="curve"/>
      <point x="389" y="453"/>
      <point x="373" y="423"/>
      <point x="360" y="396" type="curve"/>
      <point x="385" y="366"/>
      <point x="401" y="322"/>
    </contour>
    <contour>
      <point x="266" y="235" type="curve" smooth="yes"/>
      <point x="266" y="315"/>
      <point x="229" y="348"/>
      <point x="195" y="348" type="curve" smooth="yes"/>
      <point x="163" y="348"/>
      <point x="151" y="318"/>
      <point x="151" y="244" type="curve" smooth="yes"/>
      <point x="151" y="173"/>
      <point x="177" y="118"/>
      <point x="212" y="118" type="curve" smooth="yes"/>
      <point x="244" y="118"/>
      <point x="266" y="161"/>
    </contour>
  </outline>
</glyph>
<glyph name="Lslash" format="1">
  <advance width="398"/>
  <unicode hex="0141"/>
  <outline>
    <contour>
      <point x="393" y="122" type="curve"/>
      <point x="379" y="66"/>
      <point x="375" y="46"/>
      <point x="364" y="-8" type="curve"/>
      <point x="323" y="-2"/>
      <point x="282" y="0"/>
      <point x="248" y="2" type="curve" smooth="yes"/>
      <point x="184" y="6"/>
      <point x="116" y="7"/>
      <point x="64" y="10" type="curve"/>
      <point x="69" y="60"/>
      <point x="73" y="151"/>
      <point x="74" y="252" type="curve"/>
      <point x="47" y="242" type="line"/>
      <point x="-6" y="324" type="line"/>
      <point x="75" y="363" type="line"/>
      <point x="74" y="406"/>
      <point x="74" y="450"/>
      <point x="72" y="491" type="curve" smooth="yes"/>
      <point x="70" y="544"/>
      <point x="72" y="603"/>
      <point x="65" y="658" type="curve"/>
      <point x="122" y="658"/>
      <point x="162" y="666"/>
      <point x="215" y="673" type="curve"/>
      <point x="216" y="636"/>
      <point x="217" y="537"/>
      <point x="217" y="430" type="curve"/>
      <point x="268" y="455" type="line"/>
      <point x="310" y="340" type="line"/>
      <point x="216" y="305" type="line"/>
      <point x="216" y="227"/>
      <point x="216" y="157"/>
      <point x="215" y="117" type="curve"/>
      <point x="264" y="117"/>
      <point x="317" y="116"/>
    </contour>
  </outline>
</glyph>
<glyph name="lslash" format="1">
  <advance width="270"/>
  <unicode hex="0142"/>
  <outline>
    <contour>
      <point x="278" y="326" type="line"/>
      <point x="204" y="299" type="line"/>
      <point x="204" y="245"/>
      <point x="203" y="195"/>
      <point x="200" y="189" type="curve"/>
      <point x="198" y="179"/>
      <point x="197" y="52"/>
      <point x="197" y="-24" type="curve"/>
      <point x="141" y="-4"/>
      <point x="105" y="1"/>
      <point x="74" y="9" type="curve"/>
      <point x="74" y="37"/>
      <point x="75" y="160"/>
      <point x="75" y="252" type="curve"/>
      <point x="47" y="242" type="line"/>
      <point x="-6" y="324" type="line"/>
      <point x="76" y="363" type="line"/>
      <point x="76" y="393"/>
      <point x="75" y="490"/>
      <point x="75" y="502" type="curve" smooth="yes"/>
      <point x="75" y="509"/>
      <point x="82" y="597"/>
      <point x="85" y="600" type="curve"/>
      <point x="85" y="606"/>
      <point x="86" y="623"/>
      <point x="86" y="680" type="curve"/>
      <point x="131" y="665"/>
      <point x="178" y="657"/>
      <point x="206" y="643" type="curve"/>
      <point x="206" y="602"/>
      <point x="205" y="478"/>
      <point x="205" y="448" type="curve" smooth="yes"/>
      <point x="205" y="441"/>
      <point x="205" y="431"/>
      <point x="205" y="426" type="curve"/>
      <point x="236" y="441" type="line"/>
    </contour>
  </outline>
</glyph>
<glyph name="OE" format="1">
  <advance width="666"/>
  <unicode hex="0152"/>
  <outline>
    <contour>
      <point x="654" y="121" type="curve"/>
      <point x="649" y="79"/>
      <point x="642" y="44"/>
      <point x="634" y="-5" type="curve"/>
      <point x="593" y="0"/>
      <point x="542" y="1"/>
      <point x="504" y="2" type="curve" smooth="yes"/>
      <point x="437" y="4"/>
      <point x="405" y="11"/>
      <point x="343" y="13" type="curve"/>
      <point x="343" y="47"/>
      <point x="342" y="48"/>
      <point x="341" y="65" type="curve"/>
      <point x="323" y="31"/>
      <point x="272" y="-6"/>
      <point x="226" y="-6" type="curve" smooth="yes"/>
      <point x="133" y="-6"/>
      <point x="20" y="113"/>
      <point x="20" y="348" type="curve" smooth="yes"/>
      <point x="20" y="560"/>
      <point x="82" y="670"/>
      <point x="229" y="670" type="curve" smooth="yes"/>
      <point x="278" y="670"/>
      <point x="323" y="642"/>
      <point x="338" y="616" type="curve"/>
      <point x="338" y="619"/>
      <point x="338" y="648"/>
      <point x="338" y="661" type="curve"/>
      <point x="387" y="665"/>
      <point x="425" y="666"/>
      <point x="449" y="666" type="curve" smooth="yes"/>
      <point x="482" y="666"/>
      <point x="593" y="663"/>
      <point x="653" y="663" type="curve"/>
      <point x="639" y="616"/>
      <point x="633" y="587"/>
      <point x="628" y="539" type="curve"/>
      <point x="578" y="547"/>
      <point x="513" y="547"/>
      <point x="478" y="550" type="curve" smooth="yes"/>
      <point x="470" y="551"/>
      <point x="451" y="551"/>
      <point x="443" y="551" type="curve"/>
      <point x="443" y="501"/>
      <point x="444" y="460"/>
      <point x="444" y="410" type="curve"/>
      <point x="465" y="410"/>
      <point x="500" y="411"/>
      <point x="509" y="412" type="curve" smooth="yes"/>
      <point x="518" y="413"/>
      <point x="566" y="416"/>
      <point x="616" y="419" type="curve"/>
      <point x="616" y="379"/>
      <point x="614" y="345"/>
      <point x="614" y="298" type="curve"/>
      <point x="581" y="299"/>
      <point x="555" y="301"/>
      <point x="517" y="305" type="curve" smooth="yes"/>
      <point x="489" y="308"/>
      <point x="460" y="311"/>
      <point x="444" y="311" type="curve"/>
      <point x="441" y="260"/>
      <point x="444" y="182"/>
      <point x="445" y="123" type="curve"/>
      <point x="458" y="123"/>
      <point x="472" y="122"/>
      <point x="489" y="122" type="curve" smooth="yes"/>
      <point x="553" y="121"/>
      <point x="592" y="118"/>
    </contour>
    <contour>
      <point x="329" y="343" type="curve" smooth="yes"/>
      <point x="329" y="518"/>
      <point x="280" y="552"/>
      <point x="229" y="552" type="curve" smooth="yes"/>
      <point x="186" y="552"/>
      <point x="164" y="504"/>
      <point x="164" y="349" type="curve" smooth="yes"/>
      <point x="164" y="202"/>
      <point x="196" y="116"/>
      <point x="249" y="116" type="curve" smooth="yes"/>
      <point x="291" y="116"/>
      <point x="329" y="226"/>
    </contour>
  </outline>
</glyph>
<glyph name="oe" format="1">
  <advance width="624"/>
  <unicode hex="0153"/>
  <outline>
    <contour>
      <point x="616" y="65" type="curve"/>
      <point x="588" y="26"/>
      <point x="486" y="-1"/>
      <point x="448" y="-1" type="curve" smooth="yes"/>
      <point x="398" y="-1"/>
      <point x="340" y="38"/>
      <point x="318" y="69" type="curve"/>
      <point x="289" y="32"/>
      <point x="250" y="5"/>
      <point x="208" y="5" type="curve" smooth="yes"/>
      <point x="146" y="5"/>
      <point x="88" y="37"/>
      <point x="55" y="93" type="curve" smooth="yes"/>
      <point x="34" y="128"/>
      <point x="15" y="175"/>
      <point x="15" y="225" type="curve" smooth="yes"/>
      <point x="15" y="393"/>
      <point x="105" y="459"/>
      <point x="206" y="459" type="curve" smooth="yes"/>
      <point x="251" y="459"/>
      <point x="301" y="433"/>
      <point x="325" y="400" type="curve"/>
      <point x="349" y="429"/>
      <point x="396" y="454"/>
      <point x="447" y="454" type="curve" smooth="yes"/>
      <point x="543" y="454"/>
      <point x="595" y="355"/>
      <point x="603" y="200" type="curve"/>
      <point x="514" y="193"/>
      <point x="424" y="190"/>
      <point x="382" y="188" type="curve"/>
      <point x="384" y="138"/>
      <point x="430" y="108"/>
      <point x="461" y="108" type="curve" smooth="yes"/>
      <point x="479" y="108"/>
      <point x="523" y="115"/>
      <point x="581" y="142" type="curve"/>
      <point x="592" y="107"/>
      <point x="599" y="92"/>
    </contour>
    <contour>
      <point x="480" y="278" type="curve"/>
      <point x="478" y="331"/>
      <point x="454" y="360"/>
      <point x="432" y="360" type="curve" smooth="yes"/>
      <point x="403" y="360"/>
      <point x="381" y="321"/>
      <point x="382" y="274" type="curve"/>
      <point x="394" y="274"/>
      <point x="428" y="273"/>
      <point x="434" y="273" type="curve" smooth="yes"/>
      <point x="446" y="274"/>
      <point x="466" y="276"/>
    </contour>
    <contour>
      <point x="270" y="234" type="curve" smooth="yes"/>
      <point x="270" y="315"/>
      <point x="228" y="348"/>
      <point x="194" y="348" type="curve" smooth="yes"/>
      <point x="162" y="348"/>
      <point x="144" y="322"/>
      <point x="144" y="243" type="curve" smooth="yes"/>
      <point x="144" y="172"/>
      <point x="161" y="118"/>
      <point x="211" y="118" type="curve" smooth="yes"/>
      <point x="243" y="118"/>
      <point x="270" y="160"/>
    </contour>
  </outline>
</glyph>
<glyph name="florin" format="1">
  <advance width="295"/>
  <unicode hex="0192"/>
  <outline>
    <contour>
      <point x="287" y="577" type="curve"/>
      <point x="219" y="569"/>
      <point x="210" y="564"/>
      <point x="198" y="547" type="curve" smooth="yes"/>
      <point x="193" y="541"/>
      <point x="190" y="511"/>
      <point x="191" y="502" type="curve" smooth="yes"/>
      <point x="192" y="489"/>
      <point x="192" y="452"/>
      <point x="192" y="434" type="curve"/>
      <point x="208" y="435"/>
      <point x="231" y="437"/>
      <point x="258" y="440" type="curve"/>
      <point x="260" y="336" type="line"/>
      <point x="260" y="336"/>
      <point x="213" y="339"/>
      <point x="197" y="339" type="curve"/>
      <point x="195" y="242" type="line" smooth="yes"/>
      <point x="194" y="181"/>
      <point x="192" y="105"/>
      <point x="192" y="85" type="curve" smooth="yes"/>
      <point x="192" y="-68"/>
      <point x="134" y="-125"/>
      <point x="62" y="-178" type="curve"/>
      <point x="29" y="-143"/>
      <point x="13" y="-128"/>
      <point x="-24" y="-102" type="curve"/>
      <point x="34" y="-61"/>
      <point x="63" y="4"/>
      <point x="60" y="55" type="curve" smooth="yes"/>
      <point x="59" y="74"/>
      <point x="61" y="107"/>
      <point x="61" y="141" type="curve" smooth="yes"/>
      <point x="61" y="173"/>
      <point x="63" y="213"/>
      <point x="63" y="223" type="curve" smooth="yes"/>
      <point x="63" y="336" type="line"/>
      <point x="19" y="344" type="line"/>
      <point x="1" y="441" type="line"/>
      <point x="63" y="441" type="line"/>
      <point x="63" y="469"/>
      <point x="60" y="550"/>
      <point x="60" y="560" type="curve" smooth="yes"/>
      <point x="60" y="592"/>
      <point x="71" y="659"/>
      <point x="258" y="684" type="curve"/>
      <point x="265" y="641"/>
      <point x="269" y="624"/>
    </contour>
  </outline>
</glyph>
<glyph name="circumflex" format="1">
  <advance width="350"/>
  <unicode hex="02C6"/>
  <outline>
    <contour>
      <point x="331" y="551" type="line"/>
      <point x="268" y="482" type="line"/>
      <point x="172" y="552" type="line"/>
      <point x="79" y="475" type="line"/>
      <point x="15" y="546" type="line"/>
      <point x="157" y="654" type="line"/>
      <point x="200" y="652" type="line"/>
    </contour>
  </outline>
</glyph>
<glyph name="caron" format="1">
  <advance width="350"/>
  <unicode hex="02C7"/>
  <outline>
    <contour>
      <point x="328" y="602" type="line"/>
      <point x="191" y="497" type="line"/>
      <point x="138" y="499" type="line"/>
      <point x="15" y="597" type="line"/>
      <point x="77" y="665" type="line"/>
      <point x="173" y="593" type="line"/>
      <point x="266" y="673" type="line"/>
    </contour>
  </outline>
</glyph>
<glyph name="breve" format="1">
  <advance width="350"/>
  <unicode hex="02D8"/>
  <outline>
    <contour>
      <point x="332" y="636" type="line"/>
      <point x="318" y="568"/>
      <point x="269" y="497"/>
      <point x="174" y="497" type="curve" smooth="yes"/>
      <point x="85" y="497"/>
      <point x="37" y="551"/>
      <point x="14" y="613" type="curve"/>
      <point x="104" y="649" type="line"/>
      <point x="120" y="609"/>
      <point x="143" y="590"/>
      <point x="168" y="590" type="curve" smooth="yes"/>
      <point x="199" y="590"/>
      <point x="225" y="613"/>
      <point x="232" y="653" type="curve"/>
    </contour>
  </outline>
</glyph>
<glyph name="dotaccent" format="1">
  <advance width="350"/>
  <unicode hex="02D9"/>
  <outline>
    <contour>
      <point x="242" y="595" type="curve" smooth="yes"/>
      <point x="242" y="553"/>
      <point x="206" y="526"/>
      <point x="171" y="526" type="curve" smooth="yes"/>
      <point x="135" y="526"/>
      <point x="106" y="556"/>
      <point x="106" y="592" type="curve" smooth="yes"/>
      <point x="106" y="631"/>
      <point x="141" y="653"/>
      <point x="170" y="653" type="curve" smooth="yes"/>
      <point x="208" y="653"/>
      <point x="242" y="624"/>
    </contour>
  </outline>
</glyph>
<glyph name="ring" format="1">
  <advance width="350"/>
  <unicode hex="02DA"/>
  <outline>
    <contour>
      <point x="285" y="585" type="curve" smooth="yes"/>
      <point x="285" y="533"/>
      <point x="231" y="486"/>
      <point x="174" y="486" type="curve" smooth="yes"/>
      <point x="115" y="486"/>
      <point x="62" y="536"/>
      <point x="62" y="595" type="curve" smooth="yes"/>
      <point x="62" y="668"/>
      <point x="127" y="691"/>
      <point x="177" y="691" type="curve" smooth="yes"/>
      <point x="246" y="691"/>
      <point x="285" y="645"/>
    </contour>
    <contour>
      <point x="218" y="597" type="curve" smooth="yes"/>
      <point x="218" y="612"/>
      <point x="200" y="631"/>
      <point x="183" y="631" type="curve" smooth="yes"/>
      <point x="140" y="631"/>
      <point x="127" y="617"/>
      <point x="127" y="590" type="curve" smooth="yes"/>
      <point x="127" y="567"/>
      <point x="147" y="546"/>
      <point x="166" y="546" type="curve" smooth="yes"/>
      <point x="199" y="546"/>
      <point x="218" y="557"/>
    </contour>
  </outline>
</glyph>
<glyph name="ogonek" format="1">
  <advance width="350"/>
  <unicode hex="02DB"/>
  <outline>
    <contour>
      <point x="261" y="-118" type="curve"/>
      <point x="234" y="-186" type="line"/>
      <point x="113" y="-155"/>
      <point x="86" y="-125"/>
      <point x="86" y="-65" type="curve" smooth="yes"/>
      <point x="86" y="-39"/>
      <point x="111" y="1"/>
      <point x="164" y="28" type="curve"/>
      <point x="251" y="19" type="line"/>
      <point x="199" y="-28"/>
      <point x="187" y="-51"/>
      <point x="187" y="-69" type="curve" smooth="yes"/>
      <point x="187" y="-94"/>
      <point x="217" y="-107"/>
    </contour>
  </outline>
</glyph>
